<svg preserveAspectRatio="none" width="100%" height="100%" overflow="visible" style="display: block;" viewBox="0 0 54 54" fill="none" xmlns="http://www.w3.org/2000/svg">
<path id="Union" d="M41.6056 47.5943C41.9762 47.5237 43.3944 47.47 43.7053 47.5074C45.5041 47.7334 47.3194 48.2624 48.9389 49.0711C49.6514 49.4267 50.4322 49.8875 51.1242 50.2961C51.8946 50.7506 53.2547 51.2848 53.9038 51.8368C53.9954 52.1126 54.1046 53.6745 53.7961 53.6954C51.15 53.8719 48.5042 53.8175 45.8548 53.8373L43.573 53.8585C43.2502 53.8609 42.7006 53.8847 42.3928 53.8504C42.3928 53.8504 42.0808 53.8484 42.0808 53.8504C42.0785 53.8506 41.9334 53.8662 41.8102 53.8504C40.8577 53.9023 39.8701 53.8917 38.9136 53.8931L35.0691 53.9009C32.3213 53.903 29.5542 53.9711 26.8011 53.9634C26.4891 53.9588 26.299 53.9906 25.9741 53.957C24.6044 54.0118 23.2664 53.9553 21.9144 53.9648L12.8582 53.9983C12.8616 53.9961 12.8649 53.9935 12.8682 53.9911L12.8354 53.9903C12.7893 53.8978 12.744 53.8046 12.6996 53.711C12.738 53.6667 12.7309 53.6758 12.7777 53.6544C12.7308 53.6758 12.738 53.6667 12.6996 53.711L12.6938 53.688C12.6874 53.694 12.6795 53.7028 12.6667 53.7176C12.7111 53.8112 12.7564 53.9044 12.8025 53.9969C12.6756 54.0025 12.4888 53.9885 12.3571 53.9832L12.179 53.9966C9.37054 53.873 6.52726 54.0912 3.71608 53.951C2.73369 53.9023 0.966247 54.1364 0.105559 53.8666C0.0989398 53.8295 0.0925292 53.7924 0.0863395 53.7554C0.00686604 53.2797 -0.092262 51.8209 0.170346 51.3357C0.268555 51.1542 0.943071 51.4 1.19373 51.4434C3.19946 51.7923 5.02904 51.7305 7.02272 51.4731C10.2806 51.0529 13.0146 49.7932 16.3578 49.979C18.3228 50.0881 19.527 50.5913 21.3312 51.0702C23.8721 51.7256 26.5116 51.9265 29.1241 51.663C31.81 51.3678 34.2647 50.3533 36.7216 49.2783C38.7569 48.3877 39.1258 47.8058 41.4807 47.5939L41.5142 47.5964C41.514 47.5934 41.5139 47.5904 41.5135 47.5873L41.6056 47.5943ZM12.1082 53.8903C12.121 53.8904 12.1326 53.8903 12.1432 53.8903C12.1425 53.8882 12.1419 53.886 12.1412 53.8837L12.1962 53.6767L12.1727 53.6477L12.1082 53.8903ZM10.2951 53.2139C10.2842 53.2153 10.2739 53.2168 10.2642 53.2183L10.2623 53.2204C10.2435 53.421 10.2158 53.4115 10.3244 53.5414C10.3308 53.5325 10.3365 53.524 10.342 53.5162C10.2515 53.4052 10.2773 53.4042 10.2951 53.2139ZM10.6328 53.1729L10.6856 53.2172C10.6611 53.3178 10.6562 53.2801 10.6828 53.3712L10.7725 53.4072L10.7885 53.3937L10.7157 53.3645C10.6891 53.2734 10.6941 53.3112 10.7185 53.2106L10.6576 53.1593C10.6475 53.165 10.6394 53.1693 10.6328 53.1729ZM12.9399 53.32L12.9554 53.3212L13.008 53.2979C13.0048 53.2967 13.0015 53.2956 12.9983 53.2942L12.9399 53.32ZM13.2736 53.2852C13.2478 53.2832 13.2217 53.3032 13.1804 53.3148C13.2216 53.3101 13.2498 53.2944 13.2736 53.2852ZM10.4367 53.2272C10.4682 53.2315 10.4891 53.2387 10.5253 53.2521C10.5297 53.2469 10.5333 53.242 10.5367 53.2377C10.5036 53.226 10.4818 53.2205 10.4392 53.2176C10.4383 53.2209 10.4375 53.2241 10.4367 53.2272ZM10.5607 53.0219L10.5923 53.0407L10.5962 52.9683C10.5894 52.9585 10.5797 52.9487 10.5652 52.9393L10.5607 53.0219ZM17.4673 51.8559C17.373 51.9198 17.4014 51.9064 17.3551 52.0385C16.1053 51.9445 14.6943 51.9936 13.4481 52.221C13.1713 52.2715 12.624 52.517 12.3715 52.6557C12.3145 52.6911 12.3096 52.744 12.2959 52.8009L12.3266 52.8633C13.1625 53.0968 14.633 52.6839 15.5308 52.696C16.402 52.7076 17.2557 52.821 18.1303 52.7172C18.3831 52.6872 19.2211 52.4495 19.0743 52.1013C18.9805 52.0402 18.9499 52.0152 18.8408 51.9791C18.823 52.0642 18.804 52.1487 18.792 52.2348C18.8394 52.2694 18.8706 52.2924 18.9162 52.3298C18.7945 52.3658 17.7584 52.1126 17.5632 52.0685C17.5623 52.0644 17.5617 52.0605 17.5609 52.0567L17.388 52.0318C17.43 51.9119 17.4106 51.9119 17.477 51.8652C17.4739 51.8622 17.4707 51.8591 17.4673 51.8559ZM11.6925 52.5141L11.6536 52.568L11.6926 52.514L11.6925 52.5141ZM11.7824 52.1699L11.8174 52.2182L11.7988 52.3228C11.872 52.3415 11.8412 52.3393 11.89 52.339L11.8991 52.3326C11.8829 52.3325 11.8875 52.3304 11.8318 52.3162L11.8504 52.2117L11.8142 52.1619C11.8024 52.1649 11.792 52.1675 11.7824 52.1699ZM11.6042 52.0731L11.6233 52.1783C11.6766 52.1907 11.7027 52.1879 11.7431 52.178C11.718 52.1816 11.6939 52.1806 11.6562 52.1718L11.6378 52.0704C11.6271 52.0713 11.6159 52.0724 11.6042 52.0731ZM20.0811 51.7605L20.0693 51.8026L20.0948 51.8008L20.1345 51.7453L20.0811 51.7605ZM37.4411 51.7111L37.4551 51.7478L37.4809 51.7365L37.4644 51.6955L37.4411 51.7111ZM37.5493 51.2404L37.5782 51.2549L37.5574 51.2364L37.5493 51.2404ZM43.5772 49.6043L43.6574 49.7184C43.218 49.7124 42.7668 49.574 42.3238 49.6011C42.0135 49.6287 41.7032 49.6541 41.3987 49.7216C40.4018 49.9433 38.4778 50.6185 37.721 51.2509C38.2523 51.2181 38.7794 51.1348 39.3083 51.0755C39.888 51.0105 40.472 50.9692 41.0535 50.9204C41.4557 50.8865 41.8697 50.8251 42.273 50.8403C42.9095 50.8417 43.5461 50.853 44.182 50.8738C44.6017 50.8915 46.3829 51.0391 46.6492 50.9727C46.6288 50.8254 46.4685 50.7184 46.3533 50.6316C45.5743 50.045 44.591 49.6329 43.6059 49.575L43.5772 49.6043ZM19.5724 50.6902L19.5283 50.7608L19.5911 50.7304L19.6218 50.6782L19.5724 50.6902ZM42.6072 43.5703C44.6325 42.6617 46.9938 42.4796 49.1708 42.8503C50.4977 43.0767 51.6259 43.7472 52.8261 44.2978C53.3074 44.5185 53.6663 44.6065 53.959 45.0613C53.9726 45.4388 54.0366 47.6722 53.8992 47.8937C53.409 48.0375 51.2821 47.2483 50.8742 47.7564C50.9487 48.1569 53.2616 48.7017 53.7378 48.6082C53.9568 48.5651 53.9694 49.2158 53.9254 49.3653C53.19 50.0899 48.8853 47.7306 47.9238 47.3708C45.5342 46.477 43.1955 46.6546 40.7265 47.0229C37.8295 47.4735 35.3482 49.3356 32.531 50.0839C30.4835 50.6352 28.3738 50.7827 26.264 50.639C23.1819 50.5129 20.418 49.1026 17.5967 48.0269C17.2828 47.9072 16.9752 47.7158 16.6637 47.6028C14.5238 46.8263 12.1954 46.2238 9.89983 46.4915C9.38935 46.5508 8.80623 46.5678 8.30867 46.6702C6.78207 46.9845 5.26197 47.3461 3.69944 47.4386C3.52833 47.4188 3.4939 47.4011 3.35105 47.3062C3.43141 47.3596 3.47739 47.3886 3.53276 47.4072C3.53891 47.4093 3.54518 47.4112 3.55163 47.4131C3.59029 47.4241 3.63526 47.4312 3.69944 47.4386C3.51364 47.4559 3.38101 47.4657 3.19142 47.4661C2.41665 47.5317 0.95867 47.5124 0.222972 47.3358C0.132083 46.84 0.0495071 44.9666 0.247852 44.551C0.478438 44.3769 1.01617 44.6181 1.28332 44.6877C1.80328 44.8226 2.32298 45.0118 2.84561 45.1383C4.84687 45.6228 6.97289 45.3526 8.9 44.6937C9.76695 44.3935 10.4597 44.1153 11.3683 43.8928L11.6125 43.8345C14.3069 43.2684 16.2119 44.4278 18.3949 45.799C18.7711 46.0353 19.0202 46.2101 19.3695 46.4905C18.3362 46.2305 17.3744 45.8308 16.4323 45.6178C17.2189 46.8573 20.5355 48.0336 22.0262 48.3133C25.4687 48.9595 29.5578 49.5277 32.9154 48.2127C34.9915 47.3994 36.9245 46.7104 38.879 45.6768C40.1092 44.9945 41.3254 44.159 42.6072 43.5703ZM10.0433 47.4356C11.8626 47.3562 13.0433 47.4854 14.8089 47.8262C15.2555 47.9123 15.9288 48.008 16.2894 48.2912C16.3602 48.347 16.3758 48.3799 16.3836 48.4664C16.2037 48.6116 14.2474 48.7337 13.8299 48.7927C12.8967 48.9241 11.9572 49.2055 11.0422 49.4294C9.49948 49.8065 7.9606 50.1293 6.37513 50.266C5.69647 50.3465 4.97594 50.254 4.30587 50.1396C3.45985 49.9959 2.65421 49.7529 1.8288 49.53C1.4152 49.4188 0.955505 49.3376 0.567663 49.1579C0.456167 49.1063 0.343016 49.0357 0.275528 48.9311C0.200026 48.8143 0.211494 48.7051 0.240514 48.5759C0.395538 48.3993 1.84097 48.6458 2.15847 48.6713C3.98906 48.8185 5.23302 48.3538 6.9638 47.9657C7.98379 47.7372 9.00672 47.5719 10.0433 47.4356ZM6.96415 49.8666L6.96331 49.8952L6.98051 49.8906L7.0042 49.8486L6.96415 49.8666ZM7.67136 49.6158L7.62285 49.6338L7.62292 49.6339L7.67136 49.6158L7.68163 49.547H7.68149L7.67136 49.6158ZM5.86159 49.446C5.88446 49.439 5.91024 49.4357 5.92924 49.4213L5.9291 49.4211C5.91011 49.4355 5.88442 49.4388 5.86159 49.4458L5.85013 49.4106L5.86159 49.446ZM53.2425 49.0844C53.2446 49.079 53.2468 49.0734 53.249 49.0674C53.3552 49.0706 53.414 49.0728 53.5102 49.1247C53.5159 49.1622 53.5168 49.1827 53.5126 49.1997C53.5168 49.1827 53.516 49.1621 53.5103 49.1245C53.414 49.0726 53.3553 49.0704 53.249 49.0672C53.2468 49.0733 53.2446 49.079 53.2425 49.0844ZM0.756572 48.9795C0.840156 49.0996 0.922571 49.1554 1.06876 49.185C1.1321 49.1981 1.18624 49.1995 1.25061 49.1907L1.22692 49.1934C1.17259 49.1989 1.12424 49.1964 1.06883 49.185C0.922639 49.1553 0.840153 49.0995 0.756572 48.9795ZM51.199 48.4597L51.2391 48.4715C51.2124 48.4638 51.1856 48.4557 51.159 48.4472L51.199 48.4597ZM50.977 48.1773C50.9783 48.1928 50.9785 48.2084 50.978 48.2244C50.9771 48.2564 50.9738 48.2901 50.9728 48.3281C50.9742 48.2711 50.981 48.2237 50.977 48.1773ZM0.210252 38.6251C0.67972 38.2434 3.13179 38.3006 3.8307 38.3596C6.80441 38.6117 9.41415 40.0268 12.2389 40.8129C13.9972 41.3235 15.7887 41.5774 17.4992 42.2539C19.4708 43.0344 21.271 44.651 23.4065 45.0342C25.4068 45.393 28.1612 45.7009 30.16 45.4202C32.2848 45.1108 34.3409 44.4477 36.2403 43.4585C37.7604 42.6732 38.8557 41.9909 40.4899 41.3666C42.3764 40.6458 44.0395 39.8827 46.1328 39.8541C47.8669 39.7051 49.6425 39.8106 51.3171 40.311C51.9333 40.495 53.39 40.8206 53.8416 41.2433C54.0416 41.4308 54.0233 43.3995 53.8988 43.675C53.8098 43.6822 52.4932 43.0446 52.309 42.9602C49.4188 41.6346 46.2516 41.1864 43.2018 42.3249C39.5996 43.67 36.5208 46.2624 32.6823 47.0644C32.0737 47.1922 31.4904 47.2621 30.8714 47.3302C29.3324 47.4937 27.7794 47.4828 26.2428 47.2974L26.0875 47.2671C24.3557 46.9888 22.5999 46.5537 21.0277 45.7623C18.945 44.7139 17.1498 42.8624 14.7347 42.5739C13.7926 42.4613 12.3364 42.5012 11.4231 42.7201C10.4552 42.9525 9.60339 43.3755 8.68006 43.7216C7.41084 44.1969 6.06961 44.3141 4.72793 44.2107C4.44972 44.1895 4.17689 44.1934 3.90394 44.1295C3.24335 43.9748 0.551974 43.4913 0.238697 42.9489C0.0860941 42.6844 0.211869 42.2239 0.278603 41.9446C0.79853 42.1155 1.4218 42.248 1.95726 42.3769C3.36406 42.7162 4.64423 42.9479 6.09858 42.8229C6.91236 42.7533 7.71589 42.5986 8.53113 42.5287C8.92444 42.4948 9.21569 42.5926 9.57827 42.5654C8.69586 41.7529 7.71129 42.0922 6.62191 41.9877C5.08462 41.8412 3.55273 41.6363 2.01701 41.4622C1.5517 41.4093 0.694926 41.1179 0.252395 40.9675C0.05337 40.8997 0.16055 38.8307 0.210252 38.6251ZM49.0739 44.5376C49.0921 44.7954 49.1691 44.8685 49.3609 45.0323C49.6768 45.3025 50.0228 45.5479 50.3538 45.8C51.4087 46.602 51.7934 46.7496 53.1005 47.001C53.0669 46.8835 53.0354 46.7708 52.9538 46.6754C52.5273 46.1772 51.242 45.5641 50.6298 45.2265C50.1517 44.9628 49.6146 44.6404 49.0739 44.5376ZM32.1614 46.7232L32.1464 46.761L32.1753 46.7621L32.1721 46.7218L32.1614 46.7232ZM44.7377 46.4745L44.7477 46.5466L44.8017 46.5353L44.7857 46.4597L44.7377 46.4745ZM45.4902 46.4007L45.526 46.435L45.5435 46.4202L45.5317 46.3806L45.4902 46.4007ZM32.1148 46.405L32.0611 46.4212L32.0612 46.4213L32.1148 46.4051L32.1481 46.3574H32.2068L32.2066 46.3573L32.1481 46.3574L32.1148 46.405ZM31.8491 46.2573L31.849 46.2575L31.9585 46.231L31.9584 46.2309L31.8491 46.2573ZM10.3582 45.2384C10.3843 45.2774 10.4176 45.308 10.4494 45.3389C10.4547 45.3441 10.4599 45.3492 10.4651 45.3544C10.4936 45.3831 10.5196 45.4134 10.5366 45.4521L10.5318 45.4417C10.4879 45.3537 10.3968 45.3094 10.3457 45.2181L10.3582 45.2384ZM41.1779 45.2287L41.1397 45.2163C41.1526 45.2206 41.1654 45.2241 41.1779 45.2287ZM10.1875 45.3037C10.1816 45.3167 10.1766 45.3303 10.1725 45.345C10.1739 45.3399 10.1754 45.3349 10.1771 45.3301C10.1786 45.3255 10.1802 45.3211 10.182 45.3167C10.1837 45.3123 10.1856 45.308 10.1875 45.3037ZM48.8645 45.1443C48.9096 45.1659 48.9411 45.1899 48.98 45.2202H48.9802C48.9412 45.1898 48.9097 45.1658 48.8646 45.1443L48.8645 45.1443ZM16.1921 45.0803L16.1135 45.0845L16.1136 45.0846L16.1921 45.0803ZM13.9096 44.7228C13.9452 44.7407 13.9712 44.7602 14.0002 44.7838C13.9754 44.7636 13.953 44.7465 13.9248 44.7307L13.9096 44.7228ZM13.5247 44.7275L13.522 44.7477L13.5247 44.7277L13.5799 44.6886L13.6173 44.7013L13.6 44.7795L13.6173 44.7011L13.5799 44.6884L13.5247 44.7275ZM8.66783 36.3185C8.90122 36.2489 9.76642 36.3167 10.0418 36.3223C12.4441 36.334 14.1536 37.5837 16.1327 38.7212C18.4082 40.0288 21.1199 41.1176 23.6911 41.7031C25.1743 42.041 26.5503 42.1 28.0539 42.1183C30.3898 42.1469 32.5604 41.7302 34.7603 40.9604C35.442 40.7015 36.2811 40.4858 36.9249 40.151C39.3105 38.9094 41.5798 37.1748 44.2772 36.6575C44.8801 36.542 45.6412 36.5476 46.2617 36.5745C47.1581 36.6109 48.0483 36.7344 48.9197 36.9431C50.4773 37.3189 52.0954 37.8239 53.6473 38.2406C54.0827 38.3571 54.0062 39.7947 53.9043 40.1655C53.7475 40.2294 52.9446 39.7442 52.7209 39.6616C52.2446 39.4861 51.7848 39.3582 51.2989 39.2202C50.6362 39.0319 49.9896 38.771 49.309 38.6425C48.4434 38.468 47.4386 38.4475 46.5529 38.4779C45.9353 38.4991 44.7895 38.5429 44.2038 38.6778C42.2955 39.1167 40.2938 39.8993 38.5573 40.7856C37.463 41.3443 36.4314 41.9735 35.3479 42.5018C33.6582 43.3257 31.9671 43.9006 30.1064 44.2036C29.3435 44.3279 28.5623 44.4268 27.7905 44.4875C27.3271 44.5239 26.8172 44.5052 26.3667 44.5408C25.2838 44.6266 24.2582 44.7927 23.1738 44.5511C22.6568 44.4356 22.215 44.0631 21.7629 43.801C21.1969 43.473 20.5336 43.1459 19.9901 42.7935C18.9207 42.1003 18.0097 41.4301 16.8015 40.9629C15.2536 40.3643 13.6654 40.0302 12.0673 39.61C11.4018 39.4352 10.5544 39.1704 9.89745 38.962C9.20566 38.7427 8.58079 38.5005 7.87662 38.2992C7.06585 38.0675 5.3759 37.7744 4.7361 37.3234C5.46423 36.8414 7.34591 36.488 8.26541 36.3531L8.66783 36.3185ZM30.5795 43.6089C30.5666 43.6277 30.5548 43.6442 30.5443 43.6608C30.5548 43.6443 30.5665 43.6278 30.5794 43.609C30.5916 43.62 30.6016 43.633 30.6155 43.6415C30.6302 43.6503 30.6477 43.6539 30.6635 43.6599C30.7228 43.7326 30.6975 43.8123 30.6946 43.903L30.6946 43.9031C30.6975 43.8123 30.7229 43.7325 30.6635 43.6598C30.6478 43.6538 30.6303 43.6502 30.6156 43.6414C30.6016 43.6329 30.5916 43.6198 30.5795 43.6089ZM31.3309 43.6831L31.3348 43.6827L31.3051 43.6538L31.3309 43.6831ZM52.659 42.4323C52.8833 42.6703 52.8819 42.4791 53.0414 42.5827C52.8818 42.4789 52.8833 42.6703 52.659 42.4323ZM22.5532 42.3821L22.5683 42.4139L22.5831 42.4093L22.5763 42.368L22.5532 42.3821ZM10.1749 41.9633C10.1635 41.9956 10.1525 42.0229 10.1442 42.0492L10.1533 42.0225C10.1599 42.0042 10.1673 41.9848 10.1749 41.9633C10.2181 41.977 10.2237 41.9741 10.231 41.9856C10.2325 41.9879 10.234 41.9908 10.2359 41.9945C10.2397 42.0019 10.2451 42.0126 10.2545 42.0287C10.2169 41.9644 10.244 41.9852 10.1749 41.9633ZM10.9301 41.838C10.9324 41.8621 10.9371 41.8874 10.9419 41.9167C11.0209 41.9637 10.9396 41.9248 11.0552 41.9393C11.1057 41.9457 11.1799 41.9912 11.2274 42.0131C11.248 41.9762 11.2744 41.933 11.3004 41.8866C11.2744 41.9329 11.2481 41.9761 11.2275 42.013C11.18 41.9911 11.1057 41.9455 11.0552 41.9392C10.9397 41.9247 11.0209 41.9636 10.9419 41.9166C10.9387 41.897 10.9356 41.8792 10.9332 41.8624L10.9301 41.838ZM11.0241 41.594C11.0327 41.6279 11.0495 41.6631 11.0779 41.7189C11.0535 41.671 11.0377 41.6383 11.0283 41.6085L11.0241 41.594ZM11.392 41.6769C11.39 41.6849 11.3876 41.6928 11.3852 41.7008C11.3876 41.6928 11.39 41.685 11.392 41.6771V41.6769ZM52.4228 41.5562C52.2746 41.5904 52.1362 41.6219 51.997 41.684L52.0231 41.6727C52.1536 41.6179 52.2839 41.5883 52.4228 41.5562ZM8.53581 28.8882C9.78953 28.5478 11.0978 28.4483 12.3896 28.5945C14.5275 28.8155 16.2399 29.746 17.9892 30.8962C18.543 31.2603 19.1114 31.6197 19.6188 32.0428C21.8429 33.8971 23.3877 35.5805 26.2176 36.5866C28.3863 37.3571 30.6488 37.6654 32.9551 37.3141C33.4685 37.2357 34.6759 36.8687 35.0731 37.0368L35.0849 37.0937C34.8727 37.3095 33.5448 37.8631 33.222 37.9458C31.5889 38.3628 29.7593 38.7294 28.0786 38.7796C26.1782 38.8361 24.5246 38.5987 22.7653 37.9133C21.5116 37.4246 20.3787 36.9846 19.2457 36.2179C18.4381 35.7433 17.5628 35.0642 16.7249 34.6991C16.4904 34.5967 15.5594 34.3135 15.3453 34.4929C15.4624 34.6896 16.3423 35.1832 16.5709 35.3584C17.7895 36.2931 18.9053 37.2844 20.3761 37.8293C21.1112 38.1203 21.8964 38.2672 22.6433 38.5232C23.0712 38.6701 23.4891 38.9462 23.9157 39.12C26.4987 40.1726 29.297 39.7348 32.0076 39.7479C33.4467 39.7546 34.9535 39.4459 36.3305 39.0843C36.4031 39.0635 36.484 39.0776 36.5538 39.1076C36.7201 39.4374 34.4351 40.1999 34.0962 40.3041C31.9829 40.9549 29.9779 41.2713 27.7687 41.1434C25.7054 41.0474 23.419 40.8669 21.4813 40.0971C19.7781 39.4205 18.0648 38.3946 16.4775 37.48C14.2258 36.1826 11.5293 35.3238 8.88462 35.5854C8.24382 35.5936 7.84492 35.6522 7.21883 35.7588C6.46281 35.9107 5.71081 36.0816 4.96359 36.2712C4.29135 36.4474 0.740793 37.5813 0.347793 37.4345C0.269428 37.4052 0.226987 37.3313 0.201796 37.2565C0.0979622 36.9485 0.113465 35.0771 0.298871 34.816C0.397553 34.6769 0.952934 34.8265 1.11154 34.8587L1.2033 34.8774C2.75407 35.1949 6.48194 35.4721 7.92575 35.0339C11.5035 33.9476 15.0381 32.3811 18.6889 34.3537C18.918 34.4777 19.8188 35.15 20.0108 35.1355C20.1724 34.7612 18.8686 33.735 18.5771 33.5288C17.6514 32.8628 16.7328 32.4298 15.7016 31.957C13.5813 30.9848 11.2653 30.4996 8.92677 30.7574C7.75741 30.8863 6.53928 31.4149 5.34889 31.5569C4.4548 31.6875 3.87255 31.7204 2.92857 31.7126C2.47667 31.7087 0.299927 31.6162 0.23059 30.8492C0.177917 30.2662 1.2181 30.4162 1.53912 30.5275C1.60617 30.5508 1.97884 30.5741 2.11283 30.5833C2.1664 30.5858 2.31566 30.5879 2.35842 30.6009C2.65731 30.638 2.95429 30.6059 3.253 30.5826C5.14151 30.436 6.74222 29.3907 8.53581 28.8882ZM10.6855 40.8202C10.6861 40.8228 10.6868 40.8254 10.6877 40.8279C10.6886 40.8304 10.6897 40.8329 10.6911 40.8351C10.6993 40.8479 10.7072 40.8578 10.7148 40.8664C10.7262 40.8793 10.7369 40.8893 10.7469 40.902C10.7302 40.8808 10.7117 40.8672 10.6911 40.8351C10.6882 40.8305 10.6867 40.8254 10.6855 40.8202ZM0.736793 40.4297L0.786205 40.4371L0.797946 40.377L0.764679 40.3746L0.736793 40.4297ZM15.2114 39.5232L15.1993 39.5927L15.2361 39.5546L15.2399 39.508L15.2114 39.5232ZM13.2569 39.2555C13.3269 39.2887 13.3879 39.3142 13.4457 39.3665C13.4888 39.4056 13.4775 39.4198 13.4814 39.4734L13.4003 39.5648L13.4815 39.4734C13.4775 39.4197 13.4889 39.4056 13.4458 39.3664C13.388 39.3141 13.327 39.2887 13.2569 39.2555ZM14.4174 39.1089L14.4256 39.1654L14.4581 39.1542L14.4682 39.075L14.4174 39.1089ZM11.0671 39.0458L11.0932 39.1397H11.0933L11.0671 39.0458ZM11.9376 38.65L12.0018 38.6595C12.0908 38.7269 12.0937 38.7654 12.131 38.8673L12.131 38.8674C12.0937 38.7653 12.0909 38.7268 12.0018 38.6594L11.9376 38.6498V38.65ZM21.6282 38.5023C21.6339 38.505 21.6389 38.5086 21.6434 38.5126C21.6479 38.5166 21.6519 38.5212 21.6554 38.5262C21.6763 38.5563 21.6811 38.6022 21.6918 38.6358C21.6775 38.591 21.6739 38.5242 21.6282 38.5023ZM21.4689 38.4775C21.5008 38.4773 21.5331 38.4779 21.5642 38.483L21.5508 38.4811C21.5239 38.4777 21.4963 38.4774 21.4689 38.4775ZM11.5047 38.3917C11.5168 38.4019 11.5269 38.4199 11.5428 38.4206L11.5047 38.3917ZM44.6564 33.1776C45.7857 33.1211 46.9695 33.1144 48.0862 33.3454C49.8482 33.6321 52.0413 34.5616 53.7965 34.3168C54.0509 35.3981 53.8602 35.2318 52.8454 35.426C52.1934 35.5507 51.5117 35.6945 50.8637 35.8124C50.455 35.8869 49.7501 35.6948 49.3554 35.5769C49.3631 35.5645 49.3691 35.554 49.3742 35.5445C49.3691 35.554 49.3631 35.5644 49.3555 35.5767C49.2031 35.5075 48.9852 35.4627 48.8152 35.4122L48.8151 35.4123L48.7679 35.3822C47.9176 34.8466 45.7617 35.1312 44.7856 35.3297C43.0183 35.6888 41.5086 36.6016 39.9517 37.4534C39.1051 37.9153 38.5547 38.232 37.527 38.1893C36.782 38.1582 36.3469 37.6427 36.8915 37.0427C37.458 36.4191 38.4581 36.0172 39.1609 35.5458C40.9085 34.3585 42.4569 33.2875 44.6564 33.1776ZM13.9702 37.9647L13.9703 37.9647L14.1071 37.8731C14.2462 37.9532 14.2391 37.9222 14.3085 38.0415L14.2876 38.1251L14.3086 38.0414C14.2392 37.922 14.2463 37.9531 14.1071 37.8729L13.9702 37.9647ZM9.69177 38.0773C9.70177 38.0831 9.71179 38.0883 9.72217 38.0933C9.7066 38.0858 9.69185 38.0777 9.67674 38.0682L9.69177 38.0773ZM14.0094 38.0032L14.0424 37.98L13.9705 37.965L14.0094 38.0032ZM13.4286 37.9343C13.4524 37.9568 13.4725 37.9745 13.493 37.9916L13.4725 37.9741C13.4518 37.9562 13.4302 37.9361 13.4035 37.9101L13.4286 37.9343ZM9.59784 37.9418C9.59994 37.9566 9.60075 37.9682 9.60154 37.9779L9.60021 37.9618C9.59966 37.9558 9.59889 37.9492 9.59784 37.9418ZM30.9919 37.8352C30.9995 37.8679 30.9899 37.9029 30.9658 37.9276C30.9304 37.9636 30.8735 37.9686 30.8327 37.939C30.8276 37.9353 30.8229 37.9312 30.8186 37.9268L30.8127 37.9202C30.8184 37.9272 30.8251 37.9336 30.8328 37.9391C30.8736 37.9687 30.9305 37.9638 30.9659 37.9278C30.99 37.9031 30.9996 37.8681 30.992 37.8354L30.9919 37.8352ZM13.1911 37.748C13.1906 37.7485 13.1901 37.7492 13.1896 37.7498C13.1923 37.7467 13.1951 37.7439 13.1982 37.7412L13.1911 37.748ZM13.319 37.6766C13.2834 37.6962 13.2559 37.7079 13.2343 37.7187C13.2559 37.7079 13.2834 37.6963 13.3191 37.6767L13.319 37.6766ZM9.79115 37.2963L9.79723 37.3761L9.85915 37.3517L9.85622 37.2878L9.79115 37.2963ZM53.5135 35.8679C54.1184 35.692 53.9288 36.8861 53.9113 37.217C53.1227 37.0789 51.648 36.5503 50.9481 36.207C51.4705 36.1597 51.9912 36.0954 52.5093 36.0142C52.7653 35.9744 53.1496 35.8907 53.4006 35.8684L53.449 35.8648L53.4491 35.8646L53.5132 35.8678L53.5135 35.8679ZM9.01574 37.0542C9.01502 37.059 9.01386 37.0638 9.01224 37.0685C9.01143 37.0708 9.01049 37.0731 9.00945 37.0754C9.00737 37.08 9.00482 37.0844 9.00183 37.0886C8.98629 37.1105 8.961 37.123 8.93445 37.1227C8.96101 37.123 8.98635 37.1106 9.0019 37.0887C9.00942 37.0781 9.01395 37.0662 9.01574 37.0542ZM26.218 17.6679C27.6102 17.3936 29.0458 17.4161 30.4284 17.7339C30.588 17.7912 30.7498 17.8436 30.9126 17.891C32.914 18.6726 34.2708 19.6581 35.3454 21.587C35.9905 22.8519 36.7463 24.6114 36.4708 26.0436C36.3881 26.4732 35.88 26.6773 35.5339 26.4619C35.3944 26.4082 35.0692 26.157 35.0334 26.0016C34.8509 25.2096 34.8842 24.5894 34.5814 23.7961C33.9016 22.0149 32.6481 20.8166 30.8664 20.0601C28.9245 19.2355 26.206 18.9636 24.1712 19.6699C22.3142 20.3877 19.9911 22.5941 19.191 24.4265C18.4977 26.0144 18.3074 28.1512 18.9048 29.8127C19.1084 30.3788 19.4821 30.6758 20.0221 30.905C19.9926 30.4965 19.7533 29.8036 19.632 29.3749C19.1798 27.777 19.5441 25.6025 20.3501 24.1829C21.2357 22.6229 23.4342 20.7687 25.2024 20.3399C27.1404 19.8699 29.2076 19.9606 30.9273 21.0524C32.0308 21.7454 33.1494 22.6195 33.4775 23.9403C33.7112 24.8799 33.6918 26.377 32.4741 26.6625C32.277 26.7087 31.8824 26.6685 31.7149 26.5407C31.2476 26.1835 31.4107 25.9906 31.6193 25.5459C31.6701 25.3068 31.6651 24.939 31.6207 24.7071C31.2074 22.5479 28.3709 21.3325 26.3492 21.7166C24.5902 22.0509 23.1499 23.1998 22.1256 24.6106C21.4065 25.6011 21.1587 27.3073 21.3563 28.4952C21.7957 30.5752 23.4182 32.3331 25.1845 33.4663C28.1798 35.3877 31.4064 35.2623 34.7185 34.3943C35.9322 34.0761 37.0998 33.615 38.3579 33.4095C38.7748 33.3417 40.2992 33.147 40.6044 33.349C40.6839 33.5846 40.0441 34.0066 39.8587 34.1228C36.5649 36.2112 31.8906 37.593 28.0775 36.1918C25.335 35.1839 22.572 33.1908 20.2071 31.4954C19.8572 31.2458 19.5158 30.9848 19.1832 30.7129C18.4513 30.1037 17.895 29.6934 17.0019 29.3081C16.3614 29.032 16.5556 28.4306 16.6353 27.849C16.8716 26.1267 17.3773 24.3705 18.2255 22.8428C19.8739 20.1611 22.8745 18.4135 25.918 17.7169L26.218 17.6679ZM16.9138 36.4506L16.8802 36.5103L16.9311 36.5152L16.9438 36.4496L16.9138 36.4506ZM1.93748 36.3546C1.93699 36.358 1.93631 36.3613 1.93545 36.3647C1.92182 36.4184 1.8668 36.4508 1.81245 36.4378C1.79196 36.4328 1.77448 36.4219 1.76136 36.4075L1.75521 36.4001C1.76879 36.4183 1.78862 36.4321 1.81252 36.4379C1.86686 36.451 1.92189 36.4185 1.93552 36.3648C1.93723 36.3581 1.93816 36.3514 1.93846 36.3447L1.93748 36.3546ZM1.93538 36.3154C1.93782 36.3248 1.93891 36.3346 1.93846 36.3446V36.3348C1.93809 36.3283 1.93707 36.3218 1.93545 36.3156L1.93538 36.3154ZM18.8412 35.7503C18.8508 35.7694 18.8518 35.7991 18.8721 35.8065L18.8721 35.7443L18.8412 35.7503ZM41.3225 35.436L41.3859 35.3545L41.4187 35.3636L41.4188 35.3636L41.3859 35.3544L41.3225 35.436ZM48.8055 35.2326L48.8748 35.3681L48.8749 35.368L48.8055 35.2326ZM10.0668 31.5828C11.1231 31.4606 12.5145 31.7516 13.4682 32.181C13.6385 32.2576 13.8498 32.3431 13.9179 32.5236L13.8731 32.5712C13.4783 32.7157 12.6869 32.7104 12.244 32.7595C11.0017 32.8972 9.80519 33.2726 8.60947 33.6285C6.82855 34.1593 5.18686 34.3327 3.33609 34.3231C2.82684 34.256 0.600777 34.1794 0.197253 33.6013C0.0722628 33.4223 0.0996418 32.4324 0.197043 32.1807C0.332465 32.0864 1.29895 32.3918 1.52716 32.4392C3.38729 32.8237 5.50222 32.8159 7.33093 32.3018C8.2938 32.0309 9.04144 31.6852 10.0668 31.5828ZM25.315 27.1996C25.5601 27.2939 25.7786 27.8716 25.8978 28.1054C26.0458 28.3981 26.2139 28.6807 26.401 28.9508C27.384 30.381 29.0465 31.8716 30.7877 32.2643C32.7869 32.7156 35.443 32.0644 37.3903 31.5163C38.2495 31.2765 39.0957 30.9343 39.9645 30.732C41.0853 30.4707 42.3091 30.3203 43.4552 30.2034C44.2227 30.125 45.1098 30.1776 45.8498 30.381C46.3042 30.506 46.7483 30.6868 47.2117 30.7987C48.1478 31.0173 49.1039 31.1392 50.0654 31.1625C51.0251 31.1907 51.9132 30.9616 52.8568 30.8683C53.0504 30.8493 53.4622 30.8577 53.6243 30.9485C53.9271 31.118 53.9346 31.7116 53.5202 31.7554C53.0611 31.8302 52.6517 31.8363 52.2084 31.8631C51.6523 31.8924 51.1006 31.974 50.5606 32.1075C51.0144 32.2851 51.6166 32.4041 52.0957 32.4924C52.699 32.6393 52.9567 32.4733 53.5352 32.455C53.6333 32.4518 53.7489 32.5041 53.8126 32.5863C53.9292 32.7371 53.8913 33.2767 53.8512 33.4487C53.5569 33.8077 49.4127 32.6238 48.7894 32.4673C46.9033 31.9938 44.9921 32.2049 43.0816 32.3614C41.1583 32.5189 39.2346 32.6397 37.3417 33.0281C36.3283 33.2379 35.3457 33.6422 34.3502 33.9162C32.0605 34.5462 29.2211 34.4509 27.1238 33.2735C26.1325 32.717 25.067 31.7031 24.8185 30.5713C24.5491 29.3435 24.6554 28.2788 25.315 27.1996ZM28.6378 32.0824L28.5881 32.152L28.6464 32.158L28.7055 32.0803L28.6378 32.0824ZM25.9388 31.7023C25.9338 31.7798 25.9464 31.8386 26.0048 31.9069C26.0184 31.9228 26.0351 31.9358 26.0503 31.9503V31.95C26.0351 31.9356 26.0184 31.9225 26.0048 31.9066C25.9382 31.8287 25.9313 31.763 25.9419 31.6678L25.9388 31.7023ZM27.023 26.9637C27.3135 27.1248 27.4896 27.6813 27.7 27.979C28.2399 28.7442 29.1242 29.4036 30.0002 29.7404C32.0745 30.5385 33.782 30.1271 35.7572 29.3632C36.8687 28.9331 37.8681 28.5091 38.9606 28.0511C40.8528 27.3338 43.066 27.3409 45.0412 27.6237C46.9402 27.896 48.4341 29.0564 50.3045 29.3145C50.8638 29.3919 51.437 29.4021 51.9956 29.3686C52.2837 29.3512 53.6792 28.8594 53.8166 29.2203C53.7518 29.3922 53.4352 29.4929 53.2566 29.5893C51.7705 30.3418 50.3847 30.249 48.783 30.1292C47.5159 30.0342 46.6496 29.6016 45.4466 29.3474C44.5567 29.1595 43.3432 29.1281 42.4276 29.2026C41.5877 29.2708 40.5468 29.5056 39.7306 29.7415C37.1761 30.6907 35.2484 32.0923 32.3403 31.8303C30.5526 31.6745 28.7155 30.9086 27.5415 29.5374C27.0691 28.9862 26.2502 27.5573 27.023 26.9637ZM33.9766 31.5576C33.8145 31.5 33.8038 31.5417 33.6392 31.4929L33.6393 31.493C33.8039 31.5417 33.8146 31.5001 33.9767 31.5576L34.0397 31.4249L34.0396 31.4248L33.9766 31.5576ZM33.583 31.2401C33.5107 31.345 33.5576 31.3019 33.422 31.3552L33.5018 31.4665L33.4842 31.4918C33.4756 31.4793 33.4679 31.4672 33.4608 31.4554C33.4679 31.4672 33.4757 31.4794 33.4843 31.492L33.5019 31.4665L33.422 31.3553C33.5577 31.302 33.5108 31.345 33.5831 31.2402L33.5598 31.1777L33.5597 31.1776L33.583 31.2401ZM44.2475 31.2786C44.2399 31.3775 44.2288 31.332 44.2885 31.4182C44.3519 31.4323 44.3851 31.4386 44.4108 31.4257L44.4109 31.4256C44.3852 31.4386 44.352 31.4322 44.2887 31.4181C44.2289 31.332 44.2399 31.3775 44.2475 31.2786ZM22.5797 25.5373C23.6669 23.2629 27.2222 21.1732 29.5184 23.1171C29.5664 23.1577 29.5309 23.2108 29.5159 23.2646C29.395 23.257 29.4486 23.2408 29.3517 23.3204L29.3477 23.3831L29.3517 23.3206C29.4487 23.2409 29.395 23.2572 29.516 23.2647L29.5299 23.3618L29.5371 23.374C29.6975 23.6294 30.2623 23.8266 30.2584 24.3642C30.3815 24.5307 29.9696 25.6192 29.7674 25.5677C29.2901 25.4459 28.4675 24.7625 27.765 24.7859C26.7277 24.8203 25.592 25.146 24.8468 25.8767C23.8597 26.8446 23.4844 28.4863 23.7468 29.8098C23.8127 30.1453 24.0347 30.8021 24.0359 31.0606C23.9272 31.1959 23.6616 31.2323 23.5325 31.1016C22.1171 29.6813 21.7035 27.3707 22.5797 25.5373ZM20.4794 31.0256C20.4679 31.0602 20.4563 31.0947 20.4445 31.1291L20.4172 31.1559C20.4066 31.1414 20.3995 31.1269 20.395 31.1119V31.1121C20.3995 31.127 20.4066 31.1416 20.4172 31.1561L20.4445 31.1293C20.4681 31.0604 20.4911 30.9911 20.5135 30.9219L20.5134 30.9219L20.4794 31.0256ZM15.8785 30.9279C15.925 30.9775 15.952 31.0429 15.9572 31.1172L15.8512 31.1302L15.8513 31.1303L15.9573 31.1173C15.9521 31.043 15.925 30.9776 15.8785 30.9279L15.8785 30.9279ZM14.1956 30.8867L14.2442 30.8785L14.2508 30.8354L14.2305 30.8333L14.1956 30.8867ZM13.9863 30.5873C13.9996 30.6187 14.0214 30.6461 14.0682 30.6878C14.1794 30.6963 14.2317 30.6861 14.3401 30.6723L14.34 30.6722C14.2316 30.686 14.1793 30.6962 14.0681 30.6877C14.0214 30.646 13.9996 30.6186 13.9863 30.5873ZM25.6219 30.28L25.6649 30.3608L25.672 30.2694L25.6219 30.28ZM25.4786 29.9703C25.5745 29.9657 25.5754 29.9721 25.6587 29.9294L25.6585 29.9293C25.5753 29.972 25.5744 29.9657 25.4786 29.9703ZM52.7642 29.7523C52.7524 29.7516 52.6756 29.7294 52.6616 29.7258L52.6615 29.726C52.6754 29.7295 52.7524 29.7517 52.7642 29.7524L52.7939 29.6469L52.7642 29.7523ZM25.6303 29.6189C25.6287 29.6354 25.6264 29.6523 25.6237 29.6695L25.6274 29.644C25.6286 29.6355 25.6295 29.6271 25.6303 29.6189ZM16.3929 2.15226C19.6122 0.76466 23.7514 -0.0726786 27.2748 0.0049704C33.0373 0.131428 38.6123 2.04819 43.2072 5.48255C44.5784 6.50868 45.7747 7.64882 46.9637 8.86229C48.1646 10.0881 48.9257 11.249 49.8271 12.649C52.1591 16.234 53.5407 20.3449 53.8062 24.5979C53.8373 25.0961 54.0953 28.0774 53.8098 28.3462C53.3918 28.1629 52.333 28.5136 52.0485 28.3794C51.9612 28.1594 51.9716 26.6452 51.9437 26.2645C51.87 25.3507 51.7676 24.4395 51.6366 23.532C50.931 18.8371 48.7232 14.0782 45.5714 10.4739C44.8089 9.60196 43.568 8.55576 42.6902 7.77702C42.0171 7.18002 41.022 6.61575 40.2952 6.08288C40.1954 6.04103 40.0169 5.90333 39.9045 5.8481C39.5921 5.69484 39.2017 5.45951 38.8929 5.32743C38.7308 5.2584 38.5959 5.19072 38.4398 5.11162C37.3782 4.58829 36.3999 4.17219 35.3049 3.72612C35.33 3.70998 35.344 3.68329 35.3446 3.65577C35.3439 3.68323 35.33 3.70987 35.3049 3.72598C35.2849 3.73887 35.2605 3.74311 35.2373 3.73771C35.2137 3.7323 35.194 3.71775 35.1818 3.69743C35.1773 3.6898 35.174 3.68175 35.1721 3.67356V3.6737C35.174 3.68189 35.1773 3.68994 35.1818 3.69757C31.8769 2.4242 28.216 1.9133 24.7034 2.47719C24.5381 2.49739 24.2801 2.52891 24.2801 2.52891L24.2802 2.52898L23.6572 2.63547L23.3181 2.70369L23.2385 2.70776C23.1271 2.73064 23.004 2.7587 22.893 2.77597C21.9819 3.02146 20.9372 3.20271 20.0494 3.49514C17.996 4.15828 16.0287 5.05732 14.188 6.17364C7.21384 10.3499 2.58999 17.5897 2.04476 25.6586C1.9864 26.4623 1.97979 27.2684 2.02505 28.0725C2.03944 28.3342 2.21459 29.5472 2.02233 29.6344L2.02219 29.6342C1.78866 29.6211 1.68981 29.5943 1.46315 29.5407L1.46287 29.5408C1.13963 29.4794 0.364209 29.371 0.148191 29.1245C0.0309726 28.991 0.0325807 27.1964 0.0391647 26.8719C0.0600634 25.0227 0.249681 23.1792 0.605612 21.3637C1.6776 16.1165 4.34337 11.316 8.24808 7.6008C10.387 5.58038 13.6771 3.32279 16.3929 2.15226ZM25.6257 29.517C25.6266 29.5204 25.6274 29.5238 25.6281 29.5273C25.6267 29.5203 25.625 29.5136 25.6228 29.507L25.6257 29.517ZM10.7317 29.4897L10.7072 29.5253L10.7636 29.5183L10.7585 29.4805L10.7317 29.4897ZM20.0287 4.96285C23.0625 4.07899 26.3513 3.63726 29.5149 3.83241C30.3414 3.8834 31.3516 4.14951 32.1707 4.31824L32.1708 4.31817C33.0632 4.41225 35.6277 5.17068 36.3971 5.59497H36.3969L36.397 5.59504C36.9899 5.77885 38.2695 6.49335 38.8603 6.82032C46.5354 11.0705 50.6146 19.713 50.4815 28.2049C50.4804 28.2695 50.4146 28.3016 50.3706 28.3302C50.104 28.3563 49.7559 28.1893 49.5233 28.0583L49.3444 27.7172C49.1039 27.6084 48.6638 27.4495 48.5958 27.1797C48.4841 26.7348 48.5908 26.2202 48.5471 25.76C48.3435 23.6145 47.6093 21.6138 46.8542 19.6056C46.4256 18.4653 45.9897 17.3073 45.3989 16.2322C45.2093 15.8844 44.9742 15.604 44.766 15.2797C44.6067 15.0323 44.4929 14.7929 44.3183 14.5404C43.4061 13.2191 42.3334 12.1923 41.1343 11.1356C39.7198 9.88949 38.3793 8.90352 36.6875 8.04794C35.5439 7.46959 34.6611 7.24873 33.4542 6.87674C30.7479 6.04264 28.2216 5.58508 25.3742 5.79078C24.7664 5.83468 24.2216 5.89753 23.6209 6.00873C23.3035 6.06749 22.6419 6.25889 22.3752 6.28393L22.3751 6.28386L22.3239 6.29469L22.2647 6.19371L22.2872 6.11426L22.2646 6.19378L22.3239 6.29483C20.7679 6.86372 19.2916 7.20382 17.7708 7.98725C15.4859 9.0916 13.7103 10.5196 11.9383 12.2813C9.86311 14.3446 8.57459 16.4414 7.48804 19.1519C6.78691 20.901 6.2265 22.5534 6.02282 24.4503C5.9334 25.2832 5.8282 26.1334 5.79925 26.9731C5.71011 27.2627 5.94615 28.4475 5.7822 28.6286C5.59166 28.8391 4.27969 29.5654 3.95712 29.3663C3.9247 29.2216 3.94154 28.5132 3.93378 28.2871C3.8615 26.1794 3.92243 24.1426 4.35437 22.0681C4.6143 20.7877 4.99049 19.5331 5.47853 18.3194C7.14176 14.2863 10.3087 10.2758 13.9597 7.81406C15.7416 6.6126 17.9618 5.56505 20.0287 4.96285ZM20.8093 29.3325L20.8433 29.3508L20.8429 29.2838L20.8093 29.3325ZM17.9522 28.8951C17.9215 28.9347 17.9093 28.9385 17.8689 28.9703L17.8341 28.9436V28.9437L17.869 28.9705C17.9093 28.9387 17.9216 28.9349 17.9523 28.8953L17.9501 28.8402L17.95 28.8402L17.9522 28.8951ZM22.0439 15.003C25.0085 13.9015 27.8131 13.6352 30.8958 14.3894C31.7843 14.6067 32.6359 14.8687 33.4707 15.2413C35.7572 16.2617 37.3618 17.8743 38.6406 19.9817C39.026 20.6166 39.3985 21.29 39.6608 21.9844C39.9514 22.7536 40.6882 25.5948 40.4166 26.2717C40.3965 26.321 40.3643 26.3528 40.326 26.3879C40.0129 26.5014 39.5943 26.4806 39.2719 26.5558C38.9527 26.6307 38.5623 26.785 38.2499 26.8998C38.1368 24.5048 37.842 22.758 36.4275 20.7349C35.9587 20.0625 35.4151 19.4441 34.8068 18.8912C32.7962 17.0866 30.2838 16.0025 27.5189 16.1035C26.6952 16.1336 26.0833 16.3098 25.307 16.4412C22.735 16.8519 20.4927 17.9477 18.7427 19.885C17.3508 21.4258 16.2629 23.2323 15.9369 25.3029C15.7829 26.2806 15.7445 27.1714 15.7555 28.1562C15.7566 28.2548 15.7051 28.4002 15.6032 28.4423C15.5678 28.4235 15.5216 28.4038 15.4957 28.3783C15.091 28.1852 14.4059 28.0121 13.9638 27.9097C13.8311 27.8797 13.7313 27.8751 13.6408 27.7801C13.5399 27.5156 13.5823 27.1791 13.5953 26.899C13.6681 25.3289 14.1689 23.9589 14.8192 22.5422C15.2446 21.6155 15.69 20.6514 16.2346 19.7873C17.5774 17.6568 19.6536 15.8911 22.0439 15.003ZM43.8327 28.3258L43.8836 28.3586L43.8539 28.3187L43.8327 28.3258ZM4.77405 28.278L4.80494 28.2667L4.80557 28.1907L4.77594 28.1886L4.77405 28.278ZM14.1709 12.0115C18.7537 8.20627 23.1028 6.73816 29.0558 7.23787C29.0726 7.33569 29.7797 7.54884 29.843 7.62632C29.989 7.5534 29.7611 7.37034 29.9042 7.32305C35.3278 7.96845 40.0182 11.1435 43.33 15.362C44.5069 16.8609 45.4054 18.6989 46.0638 20.4752C46.471 21.6414 46.5848 23.0701 46.841 24.2771C46.9269 24.6812 47.3513 26.5321 47.1309 26.803C47.0804 26.7987 45.4266 26.5057 45.4265 26.5056C45.1595 26.2117 45.1341 25.3727 45.0332 24.9725C44.4288 21.6199 43.3826 18.2934 41.2599 15.5563C40.9955 15.2156 40.6652 14.9149 40.38 14.5922C39.737 13.9407 38.9884 13.138 38.1926 12.6556C37.4215 12.1883 36.5802 11.6445 35.7983 11.2081C33.9856 10.1966 31.8175 9.63167 29.7604 9.37571C28.3115 9.20946 26.4805 9.21171 25.0426 9.43075V9.43096L24.9077 9.45351C21.4333 9.96291 19.0152 11.1715 16.2857 13.2567C12.0393 16.501 9.69704 21.1349 9.1488 26.3565C9.08504 26.7499 9.12963 27.2316 9.00343 27.5996C8.93656 27.7945 8.36772 27.7956 8.15317 27.8479C7.87388 27.9157 7.383 28.2412 7.16075 28.1028C7.0653 27.8397 7.15422 26.5653 7.18528 26.211C7.53624 22.2043 8.57991 18.936 10.8867 15.629C11.8087 14.2806 12.9137 13.0634 14.1709 12.0115ZM15.2277 27.9965C15.2198 28.0468 15.2167 28.0574 15.1817 28.0902C15.1924 28.0802 15.2002 28.0724 15.206 28.0647C15.2104 28.0589 15.2136 28.0533 15.2163 28.0471C15.2189 28.0408 15.2209 28.034 15.2226 28.0259C15.2244 28.0177 15.2259 28.0082 15.2277 27.9965ZM43.8236 27.8668C43.8262 27.8836 43.8338 27.9056 43.8464 27.9437C43.9831 28.0235 44.1044 27.9589 44.3201 28.008L44.322 27.9317L44.3218 27.9316L44.3201 28.0077C44.1044 27.9586 43.983 28.0232 43.8464 27.9435C43.8363 27.913 43.8294 27.8928 43.8257 27.8773L43.8236 27.8668ZM20.3835 27.802C20.4045 27.8073 20.426 27.8196 20.4471 27.8147L20.447 27.8146C20.426 27.8196 20.4045 27.8073 20.3835 27.802ZM27.4517 10.708C29.3714 10.7263 31.2722 11.0842 33.0635 11.7649C33.2431 11.8316 33.9127 12.0978 34.0539 12.1944C34.1838 12.2545 34.3634 12.3445 34.4919 12.3954H34.4918L34.492 12.3956C36.0228 13.2101 36.7993 13.8508 38.0735 14.9897C39.8923 16.6149 41.0123 18.0134 41.987 20.2391C42.3223 21.0046 42.6408 21.6505 42.8823 22.4851C43.1865 23.5363 43.5429 25.1522 43.5483 26.2368C43.2663 26.2377 41.8418 26.3041 41.7155 26.0828C41.5505 25.7938 41.5226 24.9093 41.4285 24.5334C41.0513 23.0233 40.5865 21.4367 39.8547 20.0517C38.3261 17.1581 35.4227 14.5227 32.2265 13.5841L32.0981 13.5422C22.058 11.3704 14.4605 16.2791 12.562 26.3485C12.5178 26.583 12.4623 27.5195 12.3745 27.6413C12.0826 27.7667 10.9692 27.72 10.5938 27.7186C10.5725 27.2256 10.679 26.6991 10.7314 26.2113C10.9649 24.0373 11.5482 22.0957 12.5063 20.1278C12.862 19.4032 13.2649 18.5537 13.7598 17.9129C14.7797 16.5923 16.2265 15.1007 17.5534 14.09C19.5644 12.5582 22.3801 11.3477 24.9051 10.931L25.0251 10.9117L25.1511 10.879C25.1799 10.95 25.1947 10.9704 25.2003 10.9882C25.1964 10.9758 25.1882 10.9621 25.1738 10.931C25.1675 10.9174 25.1599 10.9006 25.1511 10.879V10.8788L25.204 10.8685L25.2885 10.8776L25.2888 10.8776C26.1035 10.7441 26.4852 10.7684 27.2534 10.706L27.4517 10.708ZM49.9338 27.4545C49.913 27.5503 49.9107 27.605 49.8428 27.673L49.8429 27.673C49.9205 27.5953 49.9122 27.535 49.9441 27.4107L49.9338 27.4545ZM7.93141 27.5456L7.93491 27.5452L7.91219 27.5166L7.93141 27.5456ZM5.10623 27.4806C5.14018 27.5194 5.1766 27.4979 5.23455 27.4911L5.23448 27.4911C5.17658 27.4978 5.14017 27.5194 5.10623 27.4806ZM14.5912 27.0798C14.558 27.1637 14.5146 27.198 14.451 27.2629L14.4118 27.2802L14.3512 27.2424L14.2951 27.2064C14.2528 27.2545 14.2219 27.2877 14.1759 27.3322L14.1226 27.2784C14.122 27.2317 14.1238 27.2008 14.1271 27.1793L14.127 27.1795C14.1237 27.201 14.122 27.2319 14.1226 27.2786L14.1759 27.3324C14.2219 27.2879 14.2528 27.2547 14.2951 27.2066L14.3512 27.2426L14.4118 27.2804L14.451 27.2631C14.5146 27.1982 14.558 27.1638 14.5912 27.0798ZM13.8957 27.2345L13.9133 27.2967L13.9539 27.2924L13.9555 27.2108L13.8957 27.2345ZM50.0025 26.7594C49.9843 26.7592 49.9597 26.7677 49.8954 26.7798C50.0479 26.751 49.9766 26.7424 50.1283 26.8238C50.0405 26.7767 50.0275 26.7597 50.0025 26.7594ZM45.8302 26.1848C45.9135 26.2295 45.8792 26.2182 45.9772 26.2212C45.9828 26.2176 45.9883 26.2142 45.9936 26.2109C45.9883 26.2142 45.9829 26.2176 45.9773 26.2211C45.8792 26.2182 45.9135 26.2295 45.8302 26.1848ZM11.9536 25.9636C11.9173 25.9399 11.8689 25.946 11.8397 25.9779C11.8358 25.9821 11.8326 25.9868 11.8297 25.9915C11.8326 25.9868 11.8358 25.9822 11.8396 25.9781C11.8688 25.9461 11.9173 25.94 11.9536 25.9637C11.9859 25.9847 11.9999 26.0235 11.99 26.0592C12 26.0235 11.9859 25.9846 11.9536 25.9636ZM42.8314 25.7188C42.82 25.7046 42.7946 25.6886 42.712 25.6998L42.6258 25.813L42.595 25.8645L42.6258 25.8131L42.7121 25.7C42.7945 25.6888 42.82 25.7046 42.8314 25.7188ZM15.0649 25.581C15.0431 25.6718 15.0503 25.6626 15.0104 25.7449L15.0102 25.745H15.0104C15.0504 25.6627 15.0432 25.6719 15.0649 25.5811C15.0493 25.5502 15.0404 25.5304 15.0334 25.517L15.0333 25.517C15.0403 25.5304 15.0493 25.55 15.0649 25.581ZM42.9217 25.6836C42.9032 25.6991 42.8892 25.7105 42.8785 25.7187C42.8716 25.724 42.8659 25.7278 42.8614 25.7307C42.8579 25.7328 42.8551 25.7344 42.8527 25.7353C42.8511 25.7359 42.8498 25.7363 42.8486 25.7364C42.842 25.7372 42.8399 25.7314 42.8352 25.724C42.8464 25.7417 42.8423 25.7503 42.9217 25.6838L42.9217 25.6836ZM46.6906 25.5273C46.6483 25.533 46.6063 25.5382 46.5638 25.5434C46.6247 25.5359 46.6845 25.5286 46.7458 25.5195L46.7287 25.6943L46.7458 25.5194L46.6906 25.5273ZM42.9031 25.4864L42.8731 25.5463L42.9031 25.4866L42.9629 25.4808L42.9628 25.4808L42.9031 25.4864ZM46.7245 25.305C46.7238 25.3246 46.7219 25.344 46.7188 25.3631C46.7172 25.3726 46.7154 25.3821 46.7132 25.3914L46.6406 25.4377L46.7133 25.3914L46.7189 25.3632C46.722 25.3441 46.7238 25.3246 46.7245 25.305ZM46.1092 25.2796L46.1117 25.4885L46.1651 25.5247C46.271 25.4784 46.2656 25.4846 46.3332 25.3921L46.3331 25.392C46.2655 25.4845 46.271 25.4783 46.1651 25.5246L46.1117 25.4884L46.1092 25.2796ZM46.6736 25.0435C46.676 25.0493 46.6783 25.0551 46.6806 25.061C46.6747 25.046 46.6684 25.0312 46.6615 25.0169L46.6736 25.0435ZM5.49971 25.0343L5.53703 25.0505L5.49964 25.0342L5.49971 25.0343ZM46.6191 24.9437C46.6221 24.9481 46.625 24.9527 46.6279 24.9573C46.62 24.945 46.6118 24.933 46.6031 24.9218L46.6191 24.9437ZM46.3552 24.8974C46.4032 24.9003 46.4133 24.8978 46.4294 24.9073C46.4255 24.9049 46.4219 24.9033 46.418 24.9022C46.414 24.901 46.4098 24.9003 46.4045 24.8998C46.3939 24.8989 46.3794 24.8989 46.3552 24.8974ZM32.9096 24.7914C32.9196 24.7971 32.9297 24.8022 32.94 24.8068C32.9554 24.8138 32.9711 24.8196 32.987 24.8241C33.004 24.8289 33.0212 24.8321 33.0386 24.8339C33.0457 24.8346 33.0529 24.8352 33.0601 24.8353C33.1118 24.8366 33.1639 24.8238 33.2129 24.7944C33.1149 24.8531 33.0044 24.8458 32.9096 24.7914ZM46.2069 23.7672C46.212 23.7678 46.2194 23.7682 46.2316 23.7693C46.2133 23.7676 46.2057 23.7676 46.2005 23.7662L46.2069 23.7672ZM13.1797 21.6625L13.1706 21.6951L13.2013 21.6912L13.2063 21.6546L13.1797 21.6625ZM13.2676 20.4985C13.1903 20.5027 13.1216 20.5039 13.0443 20.5045L13.0443 20.5045C13.1217 20.504 13.1903 20.5027 13.2676 20.4985ZM18.2702 19.9633L18.2965 19.9906L18.2779 19.9615L18.2702 19.9633ZM13.4959 19.813C13.5113 19.8225 13.5226 19.8293 13.5317 19.835C13.55 19.8464 13.5596 19.8532 13.5765 19.8672C13.5511 19.8462 13.5422 19.8415 13.4959 19.813ZM13.4618 19.5327C13.4419 19.5681 13.4226 19.5975 13.4045 19.6243L13.4325 19.5818C13.4421 19.5667 13.4519 19.5504 13.4618 19.5327ZM27.5082 18.5753C27.5347 18.6711 27.5201 18.6515 27.6156 18.7335L27.7597 18.7612L27.7595 18.7609L27.6156 18.7333C27.5065 18.6396 27.541 18.6786 27.4939 18.5265L27.5082 18.5753ZM16.217 17.0682C16.2303 17.0686 16.2504 17.0678 16.2862 17.0703L16.3096 17.0722C16.2926 17.0706 16.2785 17.0697 16.2665 17.0691C16.2427 17.068 16.2276 17.0685 16.217 17.0682ZM34.0819 16.4765C34.1141 16.4784 34.1399 16.4819 34.1609 16.4872C34.1679 16.4889 34.1744 16.4909 34.1804 16.493L34.1803 16.493C34.1624 16.4865 34.1402 16.4819 34.1121 16.4789L34.0819 16.4765ZM23.6659 16.165C23.6368 16.2082 23.6564 16.189 23.603 16.218V16.2182C23.6565 16.1892 23.6369 16.2083 23.6659 16.1651L23.6928 16.1069L23.6926 16.1068L23.6659 16.165ZM32.6013 15.9014C32.6036 15.9068 32.6053 15.9124 32.6064 15.9184C32.6157 15.9656 32.5871 16.0121 32.5399 16.025C32.5063 16.0344 32.4697 16.0242 32.4458 15.9987C32.4399 15.9923 32.435 15.9853 32.4312 15.9777L32.4312 15.9779C32.4351 15.9855 32.44 15.9925 32.4459 15.9989C32.4699 16.0244 32.5063 16.0346 32.54 16.0253C32.5872 16.0123 32.6158 15.9658 32.6065 15.9186C32.6054 15.9127 32.6037 15.907 32.6015 15.9016L32.6013 15.9014ZM29.5242 15.9629L29.5418 16.0121L29.5772 15.9864L29.5711 15.9405L29.5242 15.9629ZM32.9206 15.7749C32.9217 15.791 32.9182 15.8076 32.9096 15.8226C32.8939 15.8497 32.8649 15.8663 32.8334 15.8659C32.8019 15.8656 32.7729 15.8483 32.7582 15.821L32.7534 15.8107C32.7548 15.8143 32.7564 15.8178 32.7582 15.8212C32.7729 15.8485 32.802 15.8658 32.8334 15.8661C32.8649 15.8664 32.8939 15.8499 32.9096 15.8228C32.9196 15.8052 32.9227 15.7856 32.9197 15.767L32.9206 15.7749ZM26.8214 15.3391C26.8223 15.3727 26.8005 15.3878 26.7535 15.474C26.7331 15.4517 26.7235 15.4425 26.7185 15.4351C26.7235 15.4425 26.7332 15.4518 26.7535 15.4741C26.8005 15.388 26.8223 15.3727 26.8214 15.3391ZM12.9955 15.2966L13.0038 15.3369L13.0418 15.3222L13.0205 15.2806L12.9955 15.2966ZM45.1677 13.0916C45.2447 13.1111 45.3213 13.1317 45.3978 13.1536L45.2829 13.1217C45.2446 13.1114 45.2062 13.1014 45.1677 13.0916ZM29.8345 12.7575L29.7983 12.8118L29.857 12.8066L29.8917 12.7523L29.8345 12.7575ZM30.8885 12.6275C30.924 12.6486 30.9753 12.6607 31.0475 12.6841L31.0474 12.684C31.0268 12.6773 31.0079 12.6716 30.9906 12.6663C30.9646 12.6583 30.9422 12.6513 30.9229 12.6438C30.9165 12.6413 30.9104 12.6387 30.9047 12.636C30.8989 12.6333 30.8935 12.6305 30.8884 12.6274L30.8885 12.6275ZM29.8552 12.5114L29.8287 12.5599L29.8774 12.562L29.8924 12.5034L29.8552 12.5114ZM26.4633 12.4209C26.5534 12.4643 26.5242 12.4446 26.5939 12.515C26.5241 12.4445 26.5535 12.4643 26.4633 12.4209ZM33.2639 12.2167C33.2429 12.2115 33.221 12.2147 33.2025 12.2247C33.221 12.2148 33.2429 12.2116 33.2638 12.2168C33.2949 12.2246 33.3189 12.2492 33.3257 12.2803C33.3296 12.2984 33.3271 12.3167 33.3195 12.3328C33.3272 12.3167 33.3298 12.2983 33.3258 12.2802C33.319 12.2491 33.295 12.2245 33.2639 12.2167ZM25.4662 12.1349L25.4223 12.1909L25.4842 12.1629L25.5411 12.0997L25.4662 12.1349ZM17.2315 11.2417C17.0735 11.3213 17.0226 11.291 16.9183 11.4594C17.0226 11.291 17.0736 11.3214 17.2316 11.2418C17.2354 11.2445 17.2397 11.2493 17.2444 11.2553C17.2397 11.2492 17.2354 11.2444 17.2315 11.2417ZM16.8273 10.6444C16.8177 10.6628 16.8098 10.6812 16.8034 10.6994C16.8098 10.6813 16.8177 10.6629 16.8273 10.6445C17.0074 10.708 17.1021 10.7779 17.1181 10.8788C17.1022 10.7778 17.0075 10.7079 16.8273 10.6444ZM17.6685 10.6153C17.6364 10.7041 17.6737 10.6795 17.6223 10.8052L17.6224 10.8053C17.6739 10.6794 17.6364 10.7041 17.6685 10.6153ZM17.5957 10.5706L17.679 10.5882C17.6772 10.5927 17.6755 10.597 17.674 10.601C17.6756 10.5969 17.6772 10.5926 17.6791 10.5882L17.5958 10.5705L17.5957 10.5706ZM16.9043 10.3728C16.8771 10.4057 16.8551 10.4365 16.8414 10.4734C16.8551 10.4365 16.877 10.4058 16.9043 10.373L16.9043 10.3728ZM16.9892 10.2714C16.9695 10.2967 16.9505 10.3188 16.9329 10.3392C16.9505 10.3189 16.9695 10.2969 16.9892 10.2715C16.9995 10.2959 17.0098 10.3202 17.0202 10.3446L17.0202 10.3444C17.0099 10.3201 16.9995 10.2957 16.9892 10.2714ZM35.676 9.92528L35.6921 9.96928L35.7161 9.95473L35.6881 9.92218L35.676 9.92528ZM24.9947 9.24136C24.9781 9.26268 24.9653 9.27809 24.9555 9.28998C24.9653 9.2781 24.9781 9.26277 24.9947 9.2415L25.0489 9.23667C25.0714 9.30701 25.0747 9.31227 25.0669 9.3395C25.0747 9.31217 25.0714 9.30697 25.0489 9.23653L24.9947 9.24136ZM31.7864 9.25819L31.7975 9.28998L31.8118 9.28515L31.81 9.2426L31.7864 9.25819ZM26.8933 8.67903C26.9116 8.83503 26.9033 8.93403 26.8965 9.0901L26.8322 9.05907L26.8322 9.0592L26.8966 9.09024C26.9034 8.93416 26.9116 8.83512 26.8934 8.6791L26.8933 8.67903ZM26.5008 8.69097L26.5717 8.82615V8.82601L26.5008 8.69097ZM25.0539 8.72518C25.0988 8.86309 25.0573 8.81835 25.1529 8.88912C25.0573 8.8184 25.0989 8.86311 25.0539 8.72518L25.1708 8.62889C25.2784 8.6373 25.2942 8.66309 25.3823 8.72669L25.4002 8.7667C25.4469 8.86846 25.4566 8.92407 25.5543 8.9734L25.6442 8.97451V8.97437L25.5543 8.9734C25.4566 8.92408 25.447 8.86837 25.4003 8.76663L25.3823 8.72669C25.2942 8.6631 25.2784 8.63723 25.1709 8.62882L25.0539 8.72518ZM22.3835 8.63234C22.3824 8.71602 22.3854 8.7877 22.4265 8.87188C22.3716 8.75966 22.3847 8.66955 22.3847 8.54371L22.3835 8.63234ZM23.7613 8.62117C23.7716 8.62702 23.7833 8.63082 23.7956 8.63213L23.7836 8.62999C23.7718 8.62707 23.7608 8.62179 23.7513 8.61461L23.7613 8.62117ZM23.728 8.58792C23.7319 8.59491 23.7368 8.60124 23.7424 8.60682L23.7346 8.59785C23.7322 8.59469 23.73 8.59142 23.728 8.58792ZM31.9702 8.59185L32.0554 8.41487L32.0554 8.4148L31.9702 8.59185ZM31.6915 8.4535L31.6357 8.51633L31.6358 8.51626L31.6915 8.4535ZM25.5815 8.28645L25.5051 8.33742L25.4404 8.37846L25.4403 8.37873L25.5051 8.33756L25.5818 8.28638L25.5815 8.28645ZM30.7809 8.24224L30.7576 8.293L30.7995 8.28265L30.8216 8.23768L30.7809 8.24224ZM24.0987 8.24024C24.0927 8.24157 24.0838 8.24493 24.0635 8.25031C24.0905 8.24314 24.0973 8.23958 24.1041 8.23962C24.1024 8.23961 24.1007 8.2398 24.0987 8.24024ZM25.0032 8.2143C25.0687 8.22009 25.1036 8.22312 25.1699 8.22361L25.2183 8.16409L25.1699 8.22348C25.1036 8.22298 25.0687 8.22009 25.0032 8.2143ZM27.3374 8.08512C27.3468 8.10146 27.3555 8.11807 27.364 8.13457C27.3518 8.11093 27.3391 8.08711 27.325 8.06401L27.3374 8.08512ZM27.2682 7.98428C27.2839 8.00287 27.2984 8.0227 27.3118 8.04325L27.2981 8.02291C27.2839 8.0029 27.2687 7.98382 27.2521 7.96614L27.2682 7.98428ZM25.8667 7.56432C25.8682 7.69403 25.733 7.89743 25.6648 8.02153L25.6648 8.02167C25.7331 7.89757 25.8683 7.69411 25.8669 7.56438L25.8667 7.56432ZM27.1574 7.89228C27.1646 7.89607 27.1717 7.90012 27.1785 7.90441C27.1921 7.913 27.205 7.92255 27.2173 7.9329C27.1989 7.91738 27.179 7.90357 27.1575 7.89221L27.1574 7.89228ZM26.6032 7.73681C26.603 7.73034 26.6026 7.72386 26.6022 7.71736C26.603 7.73034 26.6035 7.74327 26.6035 7.75619L26.6032 7.73681ZM26.4361 7.70888C26.4392 7.71617 26.4426 7.72331 26.4462 7.73033L26.4361 7.70888C26.4331 7.70159 26.4303 7.69417 26.4279 7.6866L26.4361 7.70888ZM29.0558 7.23787C29.1249 7.23981 29.6076 7.29402 29.6641 7.3085C29.521 7.35578 29.989 7.55339 29.843 7.62632C29.7797 7.54884 29.0726 7.33569 29.0558 7.23787ZM34.5352 6.53202L34.5405 6.5872L34.6018 6.56575L34.5932 6.50947L34.5352 6.53202ZM35.3416 3.63108C35.3425 3.63427 35.3431 3.6375 35.3436 3.64073C35.3431 3.63755 35.3426 3.63436 35.3417 3.63122L35.3416 3.63108Z" fill="var(--fill-0, #323032)"/>
</svg>
