<svg width="180" height="180" viewBox="0 0 180 180" fill="none" xmlns="http://www.w3.org/2000/svg">
<rect width="180" height="180" fill="white"/>
<path d="M136.48 157.563C137.68 157.334 142.275 157.16 143.282 157.281C149.11 158.013 154.992 159.727 160.239 162.348C162.547 163.5 165.077 164.993 167.319 166.316C169.815 167.789 174.221 169.52 176.324 171.308C176.621 172.202 176.975 177.262 175.975 177.33C167.402 177.902 158.83 177.725 150.247 177.789L142.854 177.858C141.808 177.866 140.027 177.943 139.03 177.832C139.03 177.832 138.019 177.825 138.019 177.832C138.012 177.833 137.542 177.883 137.143 177.832C134.056 178 130.857 177.966 127.758 177.97L115.302 177.995C106.4 178.002 97.4346 178.223 88.5148 178.198C87.5039 178.183 86.8883 178.286 85.8354 178.177C81.3979 178.355 77.0628 178.172 72.6825 178.203L43.3416 178.311C43.3526 178.304 43.3632 178.296 43.374 178.288L43.2678 178.285C43.1183 177.986 42.9716 177.683 42.8276 177.38C42.9521 177.237 42.929 177.266 43.0808 177.197C42.9288 177.266 42.9521 177.237 42.8276 177.38L42.8088 177.306C42.7881 177.325 42.7627 177.354 42.721 177.402C42.8649 177.705 43.0116 178.007 43.1612 178.307C42.75 178.325 42.1449 178.279 41.7181 178.262L41.1412 178.305C32.042 177.905 22.8301 178.612 13.7222 178.158C10.5394 178 4.81314 178.758 2.02461 177.884C2.00317 177.764 1.9824 177.644 1.96235 177.524C1.70486 175.983 1.3837 171.257 2.23452 169.685C2.5527 169.097 4.73805 169.893 5.55014 170.034C12.0485 171.164 17.9761 170.964 24.4354 170.13C34.9906 168.768 43.8484 164.687 54.6797 165.289C61.0463 165.642 64.9478 167.273 70.7929 168.824C79.0253 170.948 87.5769 171.599 96.0411 170.745C104.743 169.789 112.696 166.502 120.656 163.019C127.25 160.134 128.445 158.248 136.075 157.562L136.184 157.57C136.183 157.56 136.182 157.55 136.181 157.54L136.48 157.563ZM40.9118 177.961C40.9532 177.962 40.9906 177.961 41.025 177.961C41.0228 177.954 41.0209 177.947 41.0185 177.94L41.1967 177.269L41.1208 177.175L40.9118 177.961ZM35.0375 175.77C35.002 175.774 34.9687 175.779 34.9372 175.784L34.9311 175.791C34.8703 176.441 34.7807 176.41 35.1324 176.831C35.153 176.802 35.1716 176.774 35.1895 176.749C34.8963 176.389 34.9798 176.386 35.0375 175.77ZM36.1316 175.637L36.3026 175.78C36.2234 176.106 36.2073 175.984 36.2935 176.279L36.5843 176.396L36.6359 176.352L36.4002 176.258C36.3139 175.962 36.3301 176.085 36.4092 175.759L36.2118 175.593C36.1793 175.611 36.153 175.625 36.1316 175.637ZM43.6063 176.113L43.6564 176.117L43.8269 176.042C43.8166 176.038 43.806 176.034 43.7954 176.03L43.6063 176.113ZM44.6875 176.001C44.6037 175.994 44.5191 176.059 44.3855 176.096C44.5191 176.081 44.6105 176.03 44.6875 176.001ZM35.4963 175.813C35.5981 175.827 35.6659 175.85 35.7834 175.894C35.7975 175.877 35.8092 175.861 35.8203 175.847C35.713 175.809 35.6422 175.791 35.5044 175.782C35.5016 175.792 35.4989 175.803 35.4963 175.813ZM35.898 175.148L36.0003 175.208L36.013 174.974C35.991 174.942 35.9594 174.91 35.9127 174.88L35.898 175.148ZM58.2745 171.37C57.9689 171.577 58.0611 171.533 57.9109 171.961C53.8617 171.657 49.2903 171.816 45.2527 172.553C44.3561 172.716 42.5829 173.512 41.7648 173.961C41.58 174.076 41.5642 174.247 41.5198 174.431L41.6194 174.634C44.3275 175.39 49.0917 174.053 52.0006 174.092C54.8231 174.129 57.5891 174.497 60.4224 174.16C61.2414 174.063 63.9565 173.293 63.481 172.165C63.1769 171.967 63.0779 171.886 62.7243 171.769C62.6668 172.045 62.6051 172.318 62.5663 172.598C62.7199 172.71 62.8209 172.784 62.9689 172.905C62.5744 173.022 59.2175 172.202 58.5852 172.059C58.5824 172.045 58.5802 172.033 58.5777 172.02L58.0175 171.94C58.1538 171.552 58.0907 171.551 58.306 171.4C58.296 171.39 58.2855 171.38 58.2745 171.37ZM39.5648 173.502L39.4389 173.677L39.5652 173.502L39.5648 173.502ZM39.8562 172.387L39.9696 172.544L39.9094 172.882C40.1464 172.943 40.0466 172.936 40.2049 172.935L40.2343 172.914C40.1817 172.914 40.1966 172.907 40.016 172.861L40.0763 172.523L39.9592 172.361C39.9211 172.371 39.8872 172.38 39.8562 172.387ZM39.2788 172.074L39.3406 172.414C39.5135 172.455 39.5978 172.446 39.7289 172.414C39.6474 172.425 39.5695 172.422 39.4473 172.393L39.3877 172.065C39.3528 172.068 39.3166 172.071 39.2788 172.074ZM66.743 171.061L66.7045 171.197L66.7872 171.191L66.916 171.012L66.743 171.061ZM122.987 170.901L123.033 171.02L123.116 170.983L123.063 170.85L122.987 170.901ZM123.338 169.376L123.431 169.423L123.364 169.363L123.338 169.376ZM142.867 164.075L143.127 164.445C141.703 164.425 140.242 163.977 138.806 164.065C137.801 164.154 136.796 164.236 135.809 164.455C132.579 165.173 126.346 167.361 123.894 169.41C125.615 169.304 127.323 169.034 129.037 168.841C130.915 168.631 132.807 168.497 134.691 168.339C135.994 168.229 137.335 168.03 138.642 168.079C140.704 168.084 142.767 168.121 144.827 168.188C146.187 168.245 151.957 168.724 152.82 168.508C152.754 168.031 152.235 167.685 151.861 167.403C149.338 165.503 146.152 164.168 142.96 163.98L142.867 164.075ZM65.0948 167.593L64.9519 167.822L65.1553 167.723L65.2547 167.554L65.0948 167.593ZM139.725 144.526C146.286 141.582 153.937 140.992 160.99 142.193C165.289 142.926 168.944 145.099 172.833 146.883C174.392 147.598 175.555 147.883 176.503 149.356C176.547 150.579 176.754 157.815 176.309 158.533C174.721 158.999 167.83 156.442 166.509 158.088C166.75 159.386 174.244 161.151 175.787 160.848C176.496 160.708 176.537 162.816 176.394 163.301C174.012 165.648 160.065 158.005 156.95 156.839C149.208 153.943 141.631 154.518 133.631 155.712C124.245 157.172 116.206 163.205 107.079 165.629C100.445 167.415 93.6101 167.893 86.7749 167.427C76.7892 167.019 67.8344 162.45 58.6936 158.965C57.6766 158.577 56.68 157.957 55.671 157.591C48.7378 155.075 41.1942 153.123 33.7568 153.99C32.1029 154.182 30.2137 154.237 28.6017 154.569C23.6557 155.587 18.7308 156.759 13.6684 157.058C13.114 156.994 13.0024 156.937 12.5396 156.629C12.8 156.803 12.9489 156.896 13.1283 156.957C13.1483 156.963 13.1686 156.97 13.1895 156.976C13.3147 157.011 13.4604 157.034 13.6684 157.058C13.0664 157.115 12.6367 157.146 12.0224 157.147C9.51226 157.36 4.78859 157.298 2.40502 156.725C2.11055 155.119 1.84301 149.05 2.48563 147.703C3.2327 147.139 4.97487 147.92 5.84042 148.146C7.52501 148.583 9.20877 149.196 10.9021 149.606C17.3859 151.175 24.2739 150.3 30.5175 148.165C33.3263 147.193 35.5707 146.291 38.5144 145.57L39.3057 145.382C48.0353 143.548 54.2072 147.304 61.2797 151.746C62.4987 152.512 63.3058 153.078 64.4373 153.987C61.0896 153.144 57.9735 151.849 54.9213 151.159C57.4698 155.175 68.2152 158.986 73.0448 159.892C84.1982 161.986 97.4463 163.827 108.324 159.566C115.051 156.931 121.313 154.699 127.646 151.35C131.631 149.14 135.572 146.433 139.725 144.526ZM34.2217 157.049C40.1158 156.791 43.9413 157.21 49.6615 158.314C51.1086 158.593 53.2899 158.903 54.4582 159.821C54.6877 160.002 54.7382 160.108 54.7635 160.388C54.1807 160.859 47.8424 161.255 46.4899 161.446C43.4664 161.871 40.4226 162.783 37.4581 163.508C32.4598 164.73 27.474 165.776 22.3372 166.219C20.1385 166.48 17.804 166.18 15.6331 165.809C12.8921 165.344 10.2819 164.556 7.60771 163.834C6.26769 163.474 4.77833 163.211 3.52177 162.629C3.16054 162.462 2.79395 162.233 2.57529 161.894C2.33068 161.515 2.36783 161.162 2.46185 160.743C2.96411 160.171 7.64713 160.97 8.67579 161.052C14.6067 161.529 18.6369 160.024 24.2445 158.766C27.5491 158.026 30.8633 157.49 34.2217 157.049ZM24.2456 164.925L24.2429 165.017L24.2986 165.003L24.3754 164.867L24.2456 164.925ZM26.5369 164.112L26.3797 164.171L26.3799 164.171L26.5369 164.112L26.5701 163.889H26.5697L26.5369 164.112ZM20.6734 163.562C20.7475 163.539 20.8311 163.529 20.8926 163.482L20.8922 163.481C20.8306 163.528 20.7474 163.539 20.6734 163.562L20.6363 163.447L20.6734 163.562ZM174.182 162.391C174.188 162.373 174.196 162.355 174.203 162.336C174.547 162.346 174.737 162.353 175.049 162.521C175.067 162.643 175.07 162.709 175.057 162.764C175.07 162.709 175.068 162.642 175.049 162.52C174.737 162.352 174.547 162.345 174.203 162.335C174.196 162.355 174.188 162.373 174.182 162.391ZM4.13382 162.051C4.40462 162.44 4.67163 162.621 5.14528 162.717C5.35048 162.759 5.52589 162.764 5.73445 162.735L5.65769 162.744C5.48165 162.762 5.32502 162.753 5.14551 162.716C4.67185 162.62 4.40461 162.44 4.13382 162.051ZM167.561 160.367L167.691 160.405C167.604 160.38 167.518 160.354 167.431 160.326L167.561 160.367ZM166.842 159.452C166.846 159.502 166.847 159.552 166.845 159.604C166.842 159.708 166.831 159.817 166.828 159.94C166.833 159.756 166.855 159.602 166.842 159.452ZM2.36381 128.504C3.88483 127.267 11.8292 127.453 14.0936 127.644C23.728 128.461 32.1833 133.045 41.3352 135.592C47.0317 137.246 52.8359 138.069 58.378 140.261C64.7657 142.789 70.598 148.027 77.5168 149.268C83.9976 150.431 92.9213 151.428 99.3972 150.519C106.281 149.517 112.943 147.368 119.097 144.164C124.021 141.619 127.57 139.409 132.865 137.386C138.977 135.051 144.365 132.578 151.147 132.486C156.765 132.003 162.518 132.345 167.944 133.966C169.94 134.562 174.66 135.617 176.123 136.986C176.771 137.594 176.711 143.972 176.308 144.865C176.02 144.888 171.754 142.822 171.157 142.549C161.793 138.254 151.532 136.802 141.651 140.491C129.98 144.849 120.005 153.248 107.569 155.846C105.597 156.26 103.708 156.487 101.702 156.707C96.7158 157.237 91.6844 157.202 86.706 156.601L86.2029 156.503C80.5919 155.601 74.9034 154.191 69.8098 151.628C63.0621 148.231 57.2457 142.232 49.4211 141.297C46.3689 140.932 41.6511 141.062 38.6919 141.771C35.5563 142.524 32.7964 143.895 29.8049 145.016C25.6928 146.556 21.3474 146.936 17.0005 146.6C16.0991 146.532 15.2152 146.544 14.3309 146.337C12.1907 145.836 3.47094 144.27 2.45597 142.512C1.96155 141.655 2.36905 140.164 2.58526 139.259C4.26976 139.812 6.28908 140.241 8.02389 140.659C12.5817 141.758 16.7293 142.509 21.4413 142.104C24.0778 141.879 26.6811 141.378 29.3224 141.151C30.5967 141.041 31.5403 141.358 32.715 141.27C29.8561 138.637 26.6662 139.737 23.1368 139.398C18.1561 138.923 13.193 138.26 8.21749 137.696C6.70992 137.524 3.93409 136.58 2.50035 136.093C1.85553 135.873 2.20278 129.17 2.36381 128.504ZM160.676 147.66C160.735 148.495 160.984 148.732 161.606 149.262C162.629 150.138 163.75 150.933 164.823 151.75C168.24 154.348 169.487 154.826 173.722 155.641C173.613 155.26 173.511 154.895 173.246 154.586C171.864 152.972 167.7 150.985 165.717 149.892C164.168 149.037 162.428 147.992 160.676 147.66ZM105.882 154.741L105.833 154.863L105.927 154.867L105.916 154.736L105.882 154.741ZM146.627 153.935L146.66 154.168L146.835 154.132L146.783 153.887L146.627 153.935ZM149.065 153.696L149.181 153.807L149.238 153.759L149.2 153.631L149.065 153.696ZM105.73 153.71L105.557 153.762L105.557 153.762L105.731 153.71L105.839 153.556H106.029L106.028 153.555L105.839 153.556L105.73 153.71ZM104.87 153.231L104.869 153.232L105.224 153.146L105.224 153.146L104.87 153.231ZM35.2418 149.93C35.3266 150.057 35.4343 150.156 35.5372 150.256C35.5544 150.272 35.5714 150.289 35.5882 150.306C35.6805 150.399 35.7648 150.497 35.8198 150.622L35.8042 150.589C35.6621 150.304 35.3669 150.16 35.2015 149.864L35.2418 149.93ZM135.094 149.899L134.97 149.859C135.012 149.872 135.054 149.884 135.094 149.899ZM34.6888 150.142C34.6697 150.184 34.6535 150.228 34.6404 150.275C34.6449 150.259 34.6498 150.243 34.6551 150.227C34.6601 150.212 34.6653 150.198 34.6709 150.184C34.6766 150.17 34.6826 150.155 34.6888 150.142ZM159.998 149.625C160.144 149.695 160.246 149.773 160.372 149.871H160.372C160.246 149.773 160.144 149.695 159.998 149.625L159.998 149.625ZM54.143 149.418L53.8883 149.432L53.8885 149.432L54.143 149.418ZM46.7481 148.26C46.8635 148.318 46.9475 148.381 47.0415 148.457C46.9613 148.392 46.8886 148.336 46.7972 148.285L46.7481 148.26ZM45.5011 148.275L45.4923 148.34L45.5011 148.276L45.6798 148.149L45.8009 148.19L45.745 148.443L45.8011 148.189L45.6798 148.148L45.5011 148.275ZM29.7653 121.031C30.5215 120.805 33.3246 121.025 34.2169 121.043C42 121.081 47.5385 125.13 53.9506 128.815C61.3228 133.052 70.1084 136.579 78.4388 138.476C83.2442 139.571 87.7023 139.762 92.5737 139.821C100.142 139.914 107.174 138.564 114.302 136.07C116.51 135.231 119.229 134.532 121.315 133.448C129.044 129.425 136.396 123.805 145.135 122.129C147.089 121.755 149.555 121.773 151.565 121.86C154.469 121.978 157.353 122.378 160.176 123.054C165.223 124.272 170.465 125.908 175.493 127.258C176.904 127.635 176.656 132.293 176.326 133.494C175.818 133.702 173.216 132.13 172.492 131.862C170.949 131.293 169.459 130.879 167.885 130.432C165.738 129.822 163.643 128.977 161.438 128.56C158.633 127.995 155.378 127.928 152.508 128.027C150.507 128.096 146.795 128.237 144.897 128.674C138.715 130.097 132.229 132.632 126.603 135.504C123.058 137.314 119.716 139.352 116.205 141.064C110.731 143.733 105.252 145.596 99.2236 146.577C96.7519 146.98 94.221 147.301 91.7203 147.497C90.219 147.615 88.567 147.554 87.1075 147.67C83.5989 147.948 80.2762 148.486 76.7628 147.703C75.0879 147.329 73.6564 146.122 72.1916 145.273C70.358 144.21 68.2091 143.151 66.4482 142.009C62.9832 139.763 60.0318 137.592 56.1173 136.078C51.1025 134.139 45.9568 133.056 40.7791 131.695C38.623 131.128 35.8776 130.27 33.7491 129.595C31.5078 128.885 29.4833 128.1 27.2019 127.448C24.5751 126.697 19.0999 125.748 17.027 124.287C19.3861 122.725 25.4824 121.58 28.4615 121.143L29.7653 121.031ZM100.756 144.651C100.715 144.712 100.676 144.765 100.642 144.819C100.676 144.765 100.714 144.712 100.756 144.651C100.795 144.687 100.828 144.729 100.873 144.756C100.921 144.785 100.977 144.796 101.028 144.816C101.221 145.051 101.139 145.31 101.129 145.603L101.129 145.604C101.139 145.31 101.221 145.051 101.029 144.816C100.978 144.796 100.921 144.785 100.873 144.756C100.828 144.728 100.796 144.686 100.756 144.651ZM103.191 144.891L103.204 144.89L103.107 144.796L103.191 144.891ZM172.291 140.839C173.018 141.61 173.013 140.99 173.53 141.326C173.013 140.99 173.018 141.61 172.291 140.839ZM74.7521 140.676L74.801 140.779L74.849 140.764L74.827 140.63L74.7521 140.676ZM34.6481 139.319C34.611 139.424 34.5756 139.512 34.5484 139.598L34.5781 139.511C34.5994 139.452 34.6234 139.389 34.6481 139.319C34.7881 139.363 34.8062 139.354 34.8299 139.391C34.8346 139.399 34.8395 139.408 34.8457 139.42C34.8581 139.444 34.8755 139.479 34.906 139.531C34.784 139.323 34.872 139.39 34.6481 139.319ZM37.0949 138.913C37.1024 138.991 37.1174 139.073 37.1331 139.168C37.3891 139.32 37.1257 139.194 37.5002 139.241C37.6636 139.262 37.9043 139.41 38.0581 139.48C38.1247 139.361 38.2101 139.221 38.2945 139.071C38.2102 139.221 38.1249 139.361 38.0583 139.48C37.9045 139.409 37.6636 139.262 37.5002 139.241C37.1258 139.194 37.3891 139.32 37.1331 139.168C37.1226 139.104 37.1127 139.047 37.1048 138.992L37.0949 138.913ZM37.3992 138.123C37.4271 138.232 37.4816 138.347 37.5738 138.527C37.4947 138.372 37.4434 138.266 37.4128 138.17L37.3992 138.123ZM38.5913 138.391C38.5849 138.417 38.5771 138.443 38.5692 138.469C38.577 138.443 38.585 138.417 38.5913 138.392V138.391ZM171.526 138C171.046 138.111 170.597 138.213 170.146 138.414L170.231 138.378C170.654 138.2 171.076 138.104 171.526 138ZM29.3376 96.9576C33.3995 95.8547 37.6381 95.5322 41.8234 96.0059C48.75 96.7221 54.2979 99.7368 59.9653 103.463C61.7598 104.643 63.6013 105.807 65.2449 107.178C72.451 113.186 77.4557 118.64 86.6245 121.899C93.6506 124.396 100.981 125.395 108.453 124.256C110.117 124.002 114.028 122.813 115.315 123.358L115.353 123.542C114.666 124.241 110.364 126.035 109.318 126.303C104.027 127.654 98.099 128.842 92.6537 129.004C86.4969 129.187 81.1392 128.418 75.4393 126.198C71.3774 124.614 67.7069 123.189 64.0362 120.705C61.4199 119.167 58.584 116.967 55.8691 115.784C55.1095 115.452 52.0931 114.535 51.3994 115.116C51.7787 115.753 54.6296 117.353 55.3703 117.92C59.3183 120.948 62.9335 124.16 67.6988 125.925C70.0804 126.868 72.6242 127.344 75.0439 128.174C76.4305 128.65 77.7843 129.544 79.1666 130.107C87.5352 133.518 96.6013 132.099 105.383 132.141C110.046 132.163 114.928 131.163 119.389 129.992C119.624 129.924 119.886 129.97 120.112 130.067C120.651 131.136 113.248 133.606 112.15 133.943C105.303 136.052 98.8073 137.077 91.6497 136.663C84.965 136.352 77.5572 135.767 71.2793 133.273C65.761 131.081 60.2104 127.757 55.0676 124.794C47.7724 120.59 39.0361 117.808 30.4677 118.656C28.3916 118.682 27.0992 118.872 25.0707 119.217C22.6213 119.709 20.1849 120.263 17.764 120.878C15.5861 121.448 4.08269 125.122 2.80942 124.646C2.55553 124.551 2.41803 124.312 2.33641 124.07C2 123.072 2.05023 117.009 2.65092 116.163C2.97064 115.712 4.77001 116.197 5.28386 116.301L5.58116 116.362C10.6055 117.39 22.6833 118.288 27.3611 116.869C38.9525 113.349 50.404 108.274 62.2323 114.665C62.9746 115.067 65.8929 117.245 66.5152 117.198C67.0386 115.985 62.8146 112.661 61.87 111.992C58.871 109.835 55.8949 108.432 52.5537 106.9C45.6843 103.75 38.1807 102.178 30.6042 103.014C26.8157 103.431 22.8691 105.144 19.0123 105.604C16.1156 106.027 14.2292 106.133 11.1708 106.108C9.70672 106.096 2.65434 105.796 2.4297 103.311C2.25905 101.422 5.62912 101.908 6.66916 102.269C6.88641 102.344 8.09382 102.42 8.52793 102.449C8.70148 102.457 9.18507 102.464 9.3236 102.507C10.292 102.627 11.2541 102.523 12.2219 102.447C18.3405 101.972 23.5266 98.5856 29.3376 96.9576ZM36.3024 135.616C36.3043 135.624 36.3065 135.632 36.3094 135.641C36.3122 135.649 36.3158 135.657 36.3205 135.664C36.3471 135.705 36.3727 135.737 36.3972 135.765C36.4341 135.807 36.4688 135.839 36.5012 135.881C36.4472 135.812 36.3871 135.768 36.3205 135.664C36.3111 135.649 36.3062 135.633 36.3024 135.616ZM4.06974 134.35L4.22982 134.374L4.26786 134.18L4.16008 134.172L4.06974 134.35ZM50.9655 131.413L50.9264 131.639L51.0457 131.515L51.0579 131.364L50.9655 131.413ZM44.6334 130.546C44.8603 130.654 45.0578 130.736 45.245 130.906C45.3846 131.033 45.348 131.078 45.3607 131.252L45.0981 131.548L45.3609 131.252C45.3482 131.078 45.3848 131.032 45.2452 130.905C45.058 130.736 44.8603 130.654 44.6334 130.546ZM48.3933 130.071L48.4198 130.254L48.5251 130.218L48.5577 129.962L48.3933 130.071ZM37.5387 129.867L37.6231 130.171H37.6236L37.5387 129.867ZM40.3589 128.584L40.5669 128.615C40.8554 128.834 40.8647 128.958 40.9854 129.289L40.9856 129.289C40.8647 128.958 40.8556 128.833 40.5669 128.615L40.3589 128.584V128.584ZM71.7553 128.106C71.7738 128.115 71.7901 128.126 71.8046 128.139C71.8192 128.152 71.832 128.167 71.8433 128.183C71.9113 128.281 71.9266 128.43 71.9613 128.539C71.9149 128.393 71.9034 128.177 71.7553 128.106ZM71.2392 128.026C71.3426 128.025 71.4473 128.027 71.5479 128.043L71.5046 128.037C71.4175 128.026 71.3279 128.025 71.2392 128.026ZM38.9563 127.748C38.9958 127.781 39.0283 127.839 39.08 127.841L38.9563 127.748ZM146.364 110.855C150.023 110.672 153.858 110.65 157.476 111.398C163.185 112.327 170.29 115.338 175.977 114.546C176.801 118.049 176.183 117.51 172.895 118.139C170.783 118.543 168.574 119.009 166.475 119.391C165.151 119.632 162.867 119.01 161.588 118.628C161.613 118.588 161.632 118.554 161.649 118.523C161.632 118.554 161.613 118.588 161.588 118.628C161.094 118.403 160.389 118.258 159.838 118.094L159.837 118.095L159.684 117.997C156.93 116.262 149.945 117.184 146.782 117.827C141.056 118.991 136.165 121.948 131.121 124.708C128.378 126.204 126.595 127.23 123.266 127.092C120.852 126.991 119.442 125.321 121.207 123.377C123.042 121.357 126.282 120.055 128.559 118.527C134.221 114.681 139.238 111.211 146.364 110.855ZM46.9444 126.364L46.9446 126.364L47.3877 126.067C47.8387 126.327 47.8155 126.226 48.0405 126.613L47.9728 126.884L48.0407 126.613C47.8157 126.226 47.8389 126.327 47.3879 126.067L46.9444 126.364ZM33.0827 126.729C33.1151 126.748 33.1476 126.765 33.1812 126.781C33.1308 126.757 33.083 126.73 33.0341 126.7L33.0827 126.729ZM47.0714 126.489L47.1783 126.414L46.9453 126.365L47.0714 126.489ZM45.1895 126.266C45.2666 126.338 45.3317 126.396 45.3983 126.451L45.3317 126.395C45.2647 126.337 45.1947 126.272 45.1082 126.187L45.1895 126.266ZM32.7784 126.29C32.7852 126.338 32.7879 126.376 32.7904 126.407L32.7861 126.355C32.7843 126.335 32.7818 126.314 32.7784 126.29ZM102.093 125.945C102.117 126.051 102.086 126.164 102.008 126.244C101.893 126.361 101.709 126.377 101.577 126.281C101.56 126.269 101.545 126.256 101.531 126.241L101.512 126.22C101.53 126.243 101.552 126.263 101.577 126.281C101.709 126.377 101.893 126.361 102.008 126.245C102.086 126.164 102.117 126.051 102.093 125.945L102.093 125.945ZM44.4201 125.662C44.4184 125.664 44.417 125.666 44.4154 125.668C44.4241 125.658 44.4331 125.649 44.443 125.64L44.4201 125.662ZM44.8345 125.431C44.7191 125.494 44.6302 125.532 44.5601 125.567C44.6302 125.532 44.7193 125.494 44.8347 125.431L44.8345 125.431ZM33.4047 124.199L33.4244 124.457L33.625 124.378L33.6155 124.171L33.4047 124.199ZM175.06 119.571C177.019 119.001 176.405 122.87 176.349 123.942C173.793 123.494 169.016 121.782 166.748 120.669C168.441 120.516 170.128 120.308 171.806 120.045C172.636 119.916 173.881 119.645 174.694 119.573L174.851 119.561L174.851 119.56L175.059 119.571L175.06 119.571ZM30.8925 123.414C30.8902 123.43 30.8864 123.445 30.8812 123.46C30.8785 123.468 30.8755 123.476 30.8721 123.483C30.8654 123.498 30.8571 123.512 30.8474 123.526C30.7971 123.597 30.7151 123.637 30.6291 123.636C30.7152 123.637 30.7973 123.597 30.8476 123.526C30.872 123.492 30.8867 123.453 30.8925 123.414ZM86.6256 60.605C91.1361 59.7164 95.7873 59.7894 100.267 60.8189C100.784 61.0044 101.308 61.1743 101.836 61.3279C108.32 63.86 112.716 67.0532 116.197 73.3026C118.288 77.4005 120.736 83.1012 119.843 87.7414C119.576 89.1331 117.929 89.7944 116.808 89.0965C116.356 88.9224 115.302 88.1086 115.186 87.6051C114.595 85.0392 114.703 83.0298 113.722 80.4598C111.519 74.6887 107.458 70.8066 101.686 68.3555C95.3944 65.6838 86.5867 64.803 79.9942 67.0914C73.9779 69.417 66.4514 76.5653 63.8592 82.502C61.6129 87.6466 60.9962 94.5698 62.9317 99.9528C63.5915 101.787 64.8021 102.749 66.5517 103.492C66.4561 102.168 65.681 99.9232 65.288 98.5343C63.8229 93.3572 65.003 86.3121 67.6143 81.7127C70.4837 76.6585 77.6066 70.6512 83.3352 69.262C89.614 67.7394 96.3115 68.033 101.883 71.5704C105.459 73.8157 109.083 76.6475 110.146 80.9268C110.903 83.9711 110.84 88.8214 106.895 89.7463C106.256 89.8962 104.977 89.7658 104.435 89.3517C102.921 88.1947 103.449 87.5695 104.125 86.129C104.29 85.3542 104.274 84.1627 104.13 83.4113C102.791 76.4157 93.6008 72.478 87.0507 73.7225C81.3518 74.8053 76.6853 78.5277 73.3668 83.0984C71.0369 86.3076 70.2342 91.8355 70.8745 95.6843C72.298 102.423 77.5546 108.118 83.2774 111.79C92.9818 118.015 103.435 117.609 114.166 114.797C118.099 113.766 121.881 112.272 125.958 111.606C127.308 111.386 132.247 110.756 133.236 111.41C133.493 112.173 131.421 113.54 130.82 113.917C120.148 120.683 105.004 125.16 92.6503 120.62C83.7649 117.355 74.8132 110.897 67.151 105.405C66.0176 104.596 64.9113 103.75 63.8338 102.869C61.4626 100.896 59.6603 99.5662 56.7667 98.318C54.6916 97.4233 55.3208 95.4748 55.5791 93.5905C56.3443 88.0107 57.9828 82.3206 60.731 77.3712C66.0717 68.6827 75.7933 63.0208 85.6538 60.7637L86.6256 60.605ZM56.4812 121.459L56.3725 121.652L56.5373 121.668L56.5783 121.455L56.4812 121.459ZM7.95981 121.148C7.95821 121.159 7.95601 121.169 7.95325 121.18C7.90908 121.354 7.73082 121.459 7.55473 121.417C7.48836 121.401 7.43173 121.366 7.38921 121.319L7.36928 121.295C7.41326 121.354 7.47751 121.399 7.55496 121.418C7.73102 121.46 7.90931 121.355 7.95347 121.181C7.95899 121.159 7.96202 121.137 7.96298 121.116L7.95981 121.148ZM7.95302 121.021C7.96091 121.051 7.96443 121.083 7.96298 121.115V121.084C7.96179 121.062 7.9585 121.041 7.95325 121.021L7.95302 121.021ZM62.7257 119.19C62.757 119.252 62.7602 119.348 62.8258 119.372L62.826 119.171L62.7257 119.19ZM135.562 118.171L135.768 117.908L135.874 117.937L135.874 117.937L135.768 117.907L135.562 118.171ZM159.806 117.512L160.031 117.952L160.031 117.951L159.806 117.512ZM34.2978 105.688C37.72 105.292 42.2281 106.234 45.3179 107.626C45.8695 107.874 46.5544 108.151 46.7748 108.736L46.6296 108.89C45.3508 109.358 42.7866 109.341 41.3515 109.5C37.3266 109.946 33.4502 111.162 29.5762 112.315C23.8063 114.035 18.4874 114.597 12.4911 114.566C10.8412 114.349 3.62906 114.1 2.32169 112.227C1.91674 111.647 2.00544 108.44 2.32101 107.625C2.75976 107.319 5.89107 108.309 6.63044 108.462C12.657 109.708 19.5091 109.683 25.4339 108.017C28.5535 107.139 30.9758 106.019 34.2978 105.688ZM83.7002 91.4866C84.4943 91.7922 85.2022 93.6639 85.5884 94.4213C86.0676 95.3697 86.6122 96.285 87.2187 97.1602C90.4033 101.794 95.7895 106.623 101.431 107.895C107.908 109.358 116.514 107.248 122.823 105.472C125.606 104.695 128.348 103.587 131.163 102.931C134.794 102.084 138.759 101.597 142.472 101.218C144.959 100.964 147.833 101.135 150.23 101.794C151.703 102.199 153.141 102.785 154.643 103.147C157.675 103.856 160.773 104.25 163.888 104.326C166.998 104.417 169.875 103.675 172.932 103.373C173.559 103.311 174.894 103.339 175.419 103.633C176.4 104.182 176.424 106.105 175.081 106.247C173.594 106.489 172.268 106.509 170.831 106.596C169.03 106.691 167.242 106.955 165.493 107.388C166.963 107.963 168.914 108.349 170.466 108.635C172.421 109.111 173.256 108.573 175.13 108.513C175.448 108.503 175.822 108.672 176.029 108.939C176.407 109.428 176.284 111.176 176.154 111.733C175.2 112.896 161.774 109.06 159.754 108.553C153.643 107.019 147.451 107.703 141.262 108.21C135.03 108.72 128.798 109.112 122.665 110.37C119.382 111.05 116.198 112.36 112.973 113.248C105.555 115.289 96.3552 114.98 89.5604 111.165C86.3485 109.362 82.8964 106.077 82.0916 102.411C81.2186 98.4326 81.5629 94.983 83.7002 91.4866ZM94.4656 107.306L94.3044 107.532L94.4934 107.551L94.6848 107.299L94.4656 107.306ZM85.7211 106.075C85.705 106.326 85.7456 106.516 85.9348 106.738C85.9788 106.789 86.0331 106.831 86.0822 106.878V106.877C86.0331 106.831 85.979 106.788 85.935 106.737C85.719 106.484 85.6967 106.272 85.7312 105.963L85.7211 106.075ZM89.2337 90.7224C90.175 91.2441 90.7454 93.0472 91.4271 94.0117C93.1765 96.491 96.0414 98.6271 98.8794 99.7186C105.6 102.304 111.132 100.971 117.532 98.4965C121.132 97.103 124.371 95.7291 127.91 94.2452C134.041 91.9215 141.211 91.9442 147.61 92.8607C153.763 93.7428 158.603 97.5024 164.663 98.3388C166.475 98.5893 168.332 98.6224 170.142 98.5137C171.075 98.4577 175.597 96.864 176.042 98.0333C175.832 98.5905 174.806 98.9165 174.227 99.2288C169.413 101.667 164.923 101.366 159.734 100.978C155.628 100.671 152.822 99.2689 148.924 98.4451C146.041 97.8365 142.109 97.7347 139.143 97.9761C136.422 98.1969 133.049 98.9577 130.405 99.722C122.128 102.797 115.883 107.338 106.461 106.489C100.669 105.985 94.7173 103.503 90.9136 99.0608C89.3833 97.2748 86.7299 92.6457 89.2337 90.7224ZM111.763 105.606C111.237 105.419 111.203 105.554 110.669 105.396L110.67 105.397C111.203 105.555 111.238 105.42 111.763 105.606L111.967 105.176L111.967 105.176L111.763 105.606ZM110.487 104.577C110.253 104.917 110.405 104.777 109.966 104.95L110.224 105.311L110.167 105.393C110.139 105.352 110.114 105.313 110.092 105.275C110.115 105.313 110.14 105.353 110.168 105.393L110.224 105.311L109.966 104.95C110.405 104.778 110.253 104.917 110.488 104.578L110.412 104.375L110.412 104.375L110.487 104.577ZM145.039 104.702C145.015 105.023 144.978 104.875 145.172 105.154C145.377 105.2 145.485 105.221 145.568 105.179L145.568 105.178C145.485 105.22 145.378 105.2 145.172 105.154C144.979 104.875 145.015 105.022 145.039 104.702ZM74.8381 86.101C78.3604 78.7321 89.8792 71.9619 97.3186 78.2599C97.4739 78.3913 97.3591 78.5633 97.3104 78.7376C96.9186 78.7131 97.0925 78.6606 96.7783 78.9186L96.7657 79.1215L96.7786 78.9191C97.0927 78.6611 96.9188 78.7136 97.3107 78.7381L97.3557 79.0525L97.3793 79.092C97.8987 79.9196 99.7286 80.5585 99.716 82.3002C100.115 82.8396 98.7804 86.3662 98.1254 86.1994C96.5788 85.8048 93.9136 83.5909 91.6379 83.6664C88.277 83.7781 84.5975 84.8333 82.1833 87.2007C78.985 90.3364 77.7693 95.6553 78.6193 99.9434C78.8327 101.03 79.5521 103.158 79.5558 103.996C79.2038 104.434 78.3432 104.552 77.925 104.129C73.3392 99.527 71.9992 92.041 74.8381 86.101ZM68.0334 103.882C67.9962 103.994 67.9585 104.106 67.9202 104.218L67.8317 104.305C67.7975 104.258 67.7744 104.211 67.7599 104.162V104.163C67.7744 104.211 67.7975 104.258 67.8317 104.305L67.9202 104.218C67.9968 103.995 68.0714 103.771 68.1437 103.546L68.1435 103.546L68.0334 103.882ZM53.1268 103.566C53.2775 103.727 53.3653 103.938 53.382 104.179L53.0385 104.221L53.0387 104.222L53.3822 104.179C53.3655 103.939 53.2777 103.727 53.1271 103.566L53.1268 103.566ZM47.6746 103.432L47.8322 103.406L47.8535 103.266L47.7878 103.259L47.6746 103.432ZM46.9964 102.462C47.0397 102.564 47.1102 102.653 47.2618 102.788C47.622 102.816 47.7914 102.782 48.1426 102.738L48.1424 102.737C47.7912 102.782 47.6218 102.815 47.2616 102.788C47.1102 102.653 47.0397 102.564 46.9964 102.462ZM84.6944 101.467L84.8337 101.729L84.8565 101.432L84.6944 101.467ZM84.2302 100.463C84.5407 100.449 84.5437 100.469 84.8135 100.331L84.8131 100.33C84.5435 100.469 84.5405 100.449 84.2302 100.463ZM172.632 99.7571C172.594 99.7548 172.345 99.6828 172.3 99.6713L172.299 99.6717C172.344 99.6831 172.594 99.7552 172.632 99.7575L172.728 99.4154L172.632 99.7571ZM84.7216 99.3249C84.7165 99.3781 84.7091 99.433 84.7001 99.4889L84.7123 99.406C84.716 99.3786 84.719 99.3516 84.7216 99.3249ZM54.7936 10.3363C65.2238 5.84068 78.6343 3.12781 90.0497 3.37938C108.719 3.78909 126.782 9.99915 141.669 21.1261C146.111 24.4506 149.987 28.1445 153.839 32.076C157.73 36.0473 160.196 39.8086 163.116 44.3443C170.671 55.9596 175.148 69.2783 176.008 83.0573C176.109 84.6715 176.945 94.3305 176.02 95.2014C174.665 94.6076 171.235 95.7439 170.313 95.3091C170.03 94.5963 170.064 89.6903 169.974 88.457C169.735 85.4965 169.403 82.5442 168.979 79.6042C166.693 64.3932 159.54 48.9748 149.328 37.2973C146.858 34.4724 142.837 31.0829 139.994 28.5599C137.813 26.6257 134.589 24.7975 132.234 23.071C131.911 22.9355 131.332 22.4893 130.968 22.3104C129.956 21.8139 128.691 21.0514 127.691 20.6235C127.166 20.3998 126.728 20.1806 126.223 19.9243C122.783 18.2288 119.614 16.8807 116.066 15.4354C116.147 15.3832 116.193 15.2967 116.195 15.2075C116.193 15.2965 116.147 15.3828 116.066 15.435C116.001 15.4768 115.922 15.4905 115.847 15.473C115.77 15.4555 115.707 15.4083 115.667 15.3425C115.653 15.3178 115.642 15.2917 115.636 15.2652V15.2656C115.642 15.2922 115.653 15.3182 115.667 15.3429C104.96 11.2174 93.0988 9.56214 81.7184 11.3891C81.1829 11.4545 80.3472 11.5566 80.3472 11.5566L80.3474 11.5569L78.329 11.9019L77.2304 12.1229L76.9725 12.1361C76.6117 12.2102 76.2128 12.3011 75.853 12.3571C72.9013 13.1524 69.5164 13.7397 66.6402 14.6871C59.9875 16.8356 53.6137 19.7484 47.6499 23.3651C25.0546 36.8956 10.0738 60.3517 8.30738 86.4941C8.11831 89.0977 8.09688 91.7096 8.24353 94.3147C8.29014 95.1625 8.85761 99.0926 8.2347 99.3752L8.23425 99.3743C7.47767 99.3319 7.1574 99.2452 6.42303 99.0715L6.42212 99.0719C5.37487 98.8729 2.86261 98.5217 2.16274 97.7231C1.78296 97.2905 1.78817 91.4762 1.80951 90.4247C1.87722 84.4337 2.49155 78.461 3.64473 72.5789C7.11783 55.5787 15.7546 40.0257 28.4054 27.9889C35.3352 21.443 45.9948 14.1287 54.7936 10.3363ZM84.7066 98.9946C84.7095 99.0057 84.7123 99.0168 84.7146 99.0281C84.7101 99.0055 84.7043 98.9835 84.6974 98.9622L84.7066 98.9946ZM36.452 98.9061L36.3725 99.0217L36.5553 98.9989L36.539 98.8764L36.452 98.9061ZM66.5732 19.4423C76.4024 16.5787 87.0575 15.1476 97.3071 15.7798C99.9851 15.945 103.258 16.8072 105.912 17.3538L105.912 17.3536C108.803 17.6584 117.112 20.1156 119.605 21.4903H119.604L119.604 21.4905C121.525 22.086 125.671 24.4009 127.585 25.4603C152.451 39.2303 165.668 67.2311 165.236 94.7435C165.233 94.9529 165.02 95.0569 164.877 95.1496C164.013 95.2342 162.885 94.6931 162.132 94.2687L161.552 93.1635C160.773 92.8111 159.347 92.2963 159.127 91.4223C158.765 89.9807 159.111 88.3133 158.969 86.8226C158.31 79.8713 155.931 73.3894 153.484 66.8831C152.096 63.1887 150.684 59.4368 148.77 55.9537C148.155 54.8268 147.393 53.9182 146.719 52.8675C146.203 52.0662 145.834 51.2903 145.268 50.4723C142.313 46.1916 138.838 42.8648 134.953 39.4412C130.37 35.404 126.027 32.2096 120.546 29.4376C116.84 27.5638 113.98 26.8483 110.07 25.6431C101.302 22.9407 93.1172 21.4583 83.8917 22.1247C81.9228 22.2669 80.1577 22.4706 78.2115 22.8308C77.183 23.0212 75.0395 23.6413 74.1754 23.7224L74.1751 23.7222L74.0094 23.7573L73.8174 23.4301L73.8903 23.1727L73.8171 23.4304L74.0092 23.7577C68.968 25.6009 64.1849 26.7028 59.2579 29.241C51.8549 32.8189 46.1022 37.4454 40.3614 43.1531C33.6378 49.8379 29.4632 56.6313 25.9429 65.4132C23.6714 71.0801 21.8557 76.4334 21.1958 82.5791C20.9061 85.2776 20.5653 88.0321 20.4715 90.7528C20.1827 91.6909 20.9474 95.5295 20.4162 96.1165C19.7989 96.7984 15.5483 99.1516 14.5032 98.5066C14.3982 98.0375 14.4527 95.7424 14.4276 95.0101C14.1934 88.1813 14.3908 81.5823 15.7902 74.861C16.6324 70.713 17.8512 66.6481 19.4324 62.7158C24.821 49.6493 35.0816 36.6556 46.9104 28.6799C52.6836 24.7873 59.8765 21.3933 66.5732 19.4423ZM69.1022 98.3969L69.2125 98.4563L69.2109 98.2391L69.1022 98.3969ZM59.8455 96.9799C59.746 97.108 59.7064 97.1205 59.5756 97.2235L59.463 97.1368V97.1372L59.5758 97.2242C59.7067 97.1212 59.7463 97.1087 59.8457 96.9806L59.8387 96.802L59.8382 96.8018L59.8455 96.9799ZM73.1021 51.971C82.7071 48.4023 91.7935 47.5396 101.781 49.9831C104.66 50.6873 107.419 51.5359 110.123 52.7431C117.532 56.0493 122.73 61.2738 126.873 68.1016C128.122 70.1586 129.329 72.3403 130.179 74.59C131.12 77.082 133.507 86.2873 132.627 88.4804C132.562 88.6399 132.458 88.7431 132.334 88.857C131.319 89.2245 129.963 89.1572 128.919 89.4009C127.884 89.6434 126.62 90.1434 125.607 90.5152C125.241 82.7559 124.286 77.0965 119.703 70.5418C118.184 68.3634 116.423 66.3597 114.452 64.5683C107.938 58.7218 99.7985 55.2093 90.8404 55.5367C88.1717 55.6342 86.1892 56.205 83.6741 56.6308C75.341 57.9614 68.0764 61.5117 62.4066 67.7881C57.8971 72.7801 54.3723 78.6331 53.3161 85.3415C52.8174 88.509 52.6929 91.3951 52.7285 94.586C52.7321 94.9052 52.5653 95.3765 52.2349 95.5127C52.1205 95.452 51.9706 95.3879 51.8867 95.3055C50.5757 94.6797 48.356 94.1191 46.9235 93.7874C46.4938 93.6901 46.1703 93.6752 45.877 93.3675C45.55 92.5105 45.6875 91.4201 45.7296 90.5128C45.9656 85.4258 47.5881 80.987 49.695 76.3971C51.0731 73.3948 52.5162 70.2713 54.2807 67.4717C58.6311 60.5691 65.3577 54.8484 73.1021 51.971ZM143.695 95.1353L143.86 95.2416L143.764 95.1122L143.695 95.1353ZM17.15 94.9804L17.25 94.9438L17.2521 94.6977L17.1561 94.6908L17.15 94.9804ZM47.5947 42.2789C62.4421 29.9506 76.5329 25.1941 95.8198 26.8131C95.8743 27.13 98.1651 27.8206 98.3703 28.0716C98.8433 27.8353 98.1048 27.2423 98.5685 27.0891C116.14 29.1801 131.337 39.4668 142.066 53.1343C145.879 57.9904 148.79 63.9455 150.924 69.7003C152.243 73.4787 152.612 78.1074 153.442 82.018C153.72 83.3274 155.095 89.324 154.381 90.2015C154.217 90.1878 148.859 89.2385 148.859 89.2382C147.994 88.2861 147.912 85.5675 147.585 84.2711C145.627 73.4092 142.237 62.6317 135.36 53.7638C134.503 52.6598 133.433 51.6858 132.509 50.6401C130.426 48.5293 128 45.9289 125.422 44.3658C122.923 42.8519 120.198 41.0899 117.665 39.6763C111.792 36.3989 104.767 34.5687 98.1025 33.7394C93.4084 33.2008 87.476 33.2081 82.8175 33.9177V33.9184L82.3805 33.9915C71.1237 35.6419 63.2894 39.5575 54.4462 46.3135C40.6883 56.8244 33.0998 71.8376 31.3236 88.7551C31.117 90.0297 31.2615 91.5903 30.8526 92.7825C30.6359 93.414 28.793 93.4176 28.0979 93.5869C27.193 93.8066 25.6026 94.8613 24.8826 94.4128C24.5733 93.5603 24.8614 89.4314 24.962 88.2838C26.0991 75.3024 29.4805 64.7136 36.9543 53.9993C39.9414 49.6308 43.5215 45.6871 47.5947 42.2789ZM51.0185 94.0685C50.993 94.2314 50.9828 94.2657 50.8695 94.3719C50.9041 94.3395 50.9294 94.3142 50.9481 94.2895C50.9623 94.2707 50.9729 94.2524 50.9814 94.2323C50.9899 94.2121 50.9963 94.1901 51.002 94.1637C51.0077 94.1372 51.0126 94.1063 51.0185 94.0685ZM143.666 93.6481C143.674 93.7027 143.699 93.7739 143.739 93.8973C144.182 94.1559 144.575 93.9465 145.274 94.1056L145.28 93.8584L145.28 93.8582L145.274 94.1047C144.575 93.9456 144.182 94.1551 143.739 93.8966C143.707 93.7979 143.685 93.7325 143.673 93.6823L143.666 93.6481ZM67.7228 93.4383C67.7906 93.4555 67.8604 93.4954 67.9286 93.4794L67.9284 93.4792C67.8603 93.4952 67.7905 93.4555 67.7228 93.4383ZM90.6226 38.056C96.8423 38.1151 103.001 39.2748 108.804 41.4801C109.386 41.6963 111.556 42.5586 112.013 42.8718C112.434 43.0664 113.016 43.3578 113.432 43.5229H113.432L113.432 43.5234C118.392 46.1622 120.908 48.2383 125.036 51.9281C130.929 57.1935 134.557 61.7244 137.715 68.9354C138.802 71.4154 139.833 73.5083 140.616 76.2123C141.601 79.6178 142.756 84.8532 142.774 88.3674C141.86 88.3702 137.245 88.5854 136.835 87.8681C136.301 86.9319 136.211 84.0664 135.906 82.8484C134.684 77.9559 133.178 72.8156 130.807 68.3282C125.854 58.9533 116.448 50.4152 106.093 47.374L105.676 47.2384C73.1479 40.2019 48.5327 56.1055 42.3818 88.7291C42.2386 89.489 42.0588 92.5229 41.7745 92.9176C40.8286 93.3238 37.2215 93.1727 36.0053 93.1681C35.9361 91.571 36.2812 89.865 36.4509 88.2847C37.2075 81.2412 39.0975 74.9504 42.2016 68.5749C43.3539 66.2272 44.6593 63.4751 46.2626 61.399C49.567 57.1202 54.2543 52.2876 58.5535 49.0131C65.069 44.0502 74.1912 40.1286 82.3719 38.7782L82.7607 38.7159L83.1692 38.6099C83.2625 38.8399 83.3102 38.906 83.3284 38.9637C83.3158 38.9234 83.2894 38.8791 83.2425 38.7782C83.2221 38.7342 83.1975 38.6798 83.1692 38.6099V38.6093L83.3406 38.576L83.6143 38.6053L83.615 38.6055C86.2548 38.1729 87.4913 38.2515 89.9802 38.0495L90.6226 38.056ZM163.462 92.3123C163.394 92.6229 163.387 92.8 163.167 93.0202L163.167 93.0204C163.419 92.7688 163.392 92.5731 163.495 92.1704L163.462 92.3123ZM27.3794 92.6075L27.3907 92.6064L27.3171 92.5136L27.3794 92.6075ZM18.2262 92.397C18.3362 92.5228 18.4542 92.4529 18.6419 92.4312L18.6417 92.431C18.4541 92.4527 18.3361 92.5227 18.2262 92.397ZM48.9562 91.0985C48.8486 91.3704 48.7081 91.4814 48.502 91.6918L48.375 91.7478L48.1789 91.6254L47.997 91.5087C47.8599 91.6643 47.7598 91.772 47.6108 91.9161L47.4382 91.742C47.436 91.5907 47.4419 91.4904 47.4527 91.4207L47.4525 91.4214C47.4417 91.4911 47.436 91.5913 47.4382 91.7427L47.6108 91.9168C47.7598 91.7726 47.8599 91.665 47.997 91.5094L48.1786 91.6261L48.375 91.7485L48.502 91.6924C48.7082 91.4819 48.8486 91.3708 48.9562 91.0985ZM46.703 91.5997L46.7598 91.8012L46.8914 91.7874L46.8968 91.523L46.703 91.5997ZM163.684 90.0605C163.626 90.0598 163.546 90.0873 163.338 90.1266C163.832 90.0333 163.601 90.0054 164.092 90.269C163.808 90.1165 163.765 90.0615 163.684 90.0605ZM150.167 88.1986C150.437 88.3436 150.325 88.3071 150.643 88.3166C150.661 88.3051 150.679 88.2941 150.696 88.2833C150.679 88.294 150.661 88.3049 150.643 88.3164C150.326 88.3069 150.437 88.3437 150.167 88.1986ZM40.4109 87.482C40.2932 87.4053 40.1362 87.4251 40.0416 87.5285C40.0292 87.5421 40.0188 87.5571 40.0095 87.5725C40.0188 87.5573 40.0291 87.5425 40.0414 87.5289C40.136 87.4255 40.2932 87.4057 40.4109 87.4825C40.5153 87.5505 40.5609 87.6762 40.5287 87.7919C40.5611 87.6761 40.5155 87.5501 40.4109 87.482ZM140.451 86.689C140.414 86.6429 140.332 86.5911 140.064 86.6275L139.785 86.9942L139.685 87.1609L139.785 86.9944L140.064 86.6279C140.331 86.5917 140.414 86.643 140.451 86.689ZM50.4909 86.2425C50.4204 86.5367 50.4438 86.5069 50.3143 86.7734L50.3139 86.7739H50.3146C50.444 86.5073 50.4206 86.5371 50.4912 86.2429C50.4406 86.1426 50.4116 86.0787 50.3888 86.0353L50.3886 86.0351C50.4113 86.0785 50.4404 86.1423 50.4909 86.2425ZM140.743 86.575C140.684 86.6252 140.638 86.6622 140.604 86.6887C140.581 86.706 140.563 86.7183 140.548 86.7274C140.537 86.7345 140.528 86.7394 140.52 86.7424C140.515 86.7442 140.511 86.7457 140.507 86.7462C140.485 86.7485 140.479 86.7299 140.463 86.7059C140.5 86.7632 140.486 86.791 140.744 86.5754L140.743 86.575ZM152.954 86.0684C152.817 86.0872 152.681 86.1038 152.543 86.1207C152.741 86.0965 152.935 86.0728 153.133 86.0432L153.078 86.6096L153.133 86.0429L152.954 86.0684ZM140.683 85.9361L140.586 86.1301L140.683 85.9366L140.877 85.918L140.877 85.9178L140.683 85.9361ZM153.064 85.3482C153.062 85.4118 153.056 85.4748 153.046 85.5366C153.041 85.5674 153.035 85.598 153.028 85.6282L152.792 85.7781L153.028 85.6284L153.046 85.5368C153.056 85.475 153.062 85.4118 153.064 85.3482ZM151.071 85.266L151.079 85.9428L151.252 86.0601C151.595 85.9101 151.577 85.9303 151.796 85.6306L151.796 85.6302C151.577 85.9298 151.595 85.9097 151.252 86.0597L151.079 85.9424L151.071 85.266ZM152.899 84.5011C152.907 84.5197 152.915 84.5388 152.922 84.5578C152.903 84.5091 152.882 84.4613 152.86 84.415L152.899 84.5011ZM19.501 84.4713L19.6219 84.5239L19.5008 84.4709L19.501 84.4713ZM152.723 84.1777C152.732 84.1921 152.742 84.2071 152.751 84.222C152.726 84.1819 152.699 84.1432 152.671 84.1069L152.723 84.1777ZM151.868 84.0278C152.023 84.0371 152.056 84.0291 152.108 84.0597C152.095 84.0522 152.084 84.0469 152.071 84.0432C152.058 84.0394 152.044 84.0371 152.027 84.0356C151.993 84.0325 151.946 84.0325 151.868 84.0278ZM108.306 83.6843C108.338 83.7028 108.371 83.7193 108.404 83.7344C108.454 83.757 108.505 83.7757 108.556 83.7902C108.611 83.8057 108.667 83.8163 108.723 83.822C108.747 83.8243 108.77 83.8261 108.793 83.8267C108.961 83.8309 109.13 83.7892 109.288 83.6942C108.971 83.8842 108.613 83.8605 108.306 83.6843ZM151.387 80.3662C151.404 80.3679 151.428 80.3692 151.467 80.3729C151.408 80.3673 151.383 80.3672 151.366 80.3628L151.387 80.3662ZM44.3832 73.5471L44.3538 73.6528L44.4532 73.6401L44.4695 73.5214L44.3832 73.5471ZM44.6678 69.776C44.4176 69.7895 44.195 69.7934 43.9444 69.7952L43.9446 69.7954C44.1952 69.7936 44.4176 69.7895 44.6678 69.776ZM60.8757 68.042L60.9611 68.1305L60.9009 68.0359L60.8757 68.042ZM45.4076 67.5548C45.4576 67.5856 45.4942 67.6079 45.5237 67.6263C45.5829 67.6632 45.6139 67.6851 45.6687 67.7305C45.5866 67.6624 45.5578 67.6472 45.4076 67.5548ZM45.2971 66.6467C45.2328 66.7615 45.1703 66.8569 45.1114 66.9434L45.2022 66.8058C45.2332 66.7568 45.2649 66.7041 45.2971 66.6467ZM90.8058 63.5448C90.8916 63.8554 90.8442 63.7918 91.1536 64.0575L91.6207 64.1473L91.62 64.1464L91.1536 64.0568C90.8001 63.7533 90.9121 63.8797 90.7594 63.3869L90.8058 63.5448ZM54.2237 58.662C54.2667 58.6634 54.3317 58.6608 54.4478 58.669L54.5237 58.6752C54.4687 58.67 54.4229 58.6669 54.3842 58.6652C54.3068 58.6616 54.2581 58.6631 54.2237 58.662ZM112.104 56.745C112.208 56.7513 112.292 56.7626 112.36 56.7796C112.382 56.7853 112.403 56.7916 112.423 56.7986L112.423 56.7984C112.364 56.7774 112.293 56.7625 112.201 56.7528L112.104 56.745ZM78.3571 55.7358C78.263 55.8757 78.3265 55.8137 78.1533 55.9077V55.9084C78.3267 55.8142 78.2632 55.8762 78.3573 55.7363L78.4445 55.5475L78.4438 55.5472L78.3571 55.7358ZM107.307 54.8818C107.314 54.8993 107.32 54.9176 107.323 54.9368C107.354 55.0898 107.261 55.2403 107.108 55.2824C106.999 55.3129 106.881 55.2798 106.803 55.1971C106.784 55.1764 106.768 55.1535 106.756 55.1292L106.756 55.1298C106.768 55.1542 106.784 55.1771 106.803 55.1978C106.881 55.2805 106.999 55.3135 107.108 55.2831C107.261 55.241 107.354 55.0905 107.324 54.9374C107.32 54.9183 107.315 54.8999 107.307 54.8825L107.307 54.8818ZM97.3374 55.0811L97.3942 55.2404L97.509 55.1573L97.4893 55.0085L97.3374 55.0811ZM108.341 54.472C108.345 54.5241 108.333 54.5778 108.306 54.6266C108.255 54.7142 108.161 54.7681 108.059 54.7669C107.957 54.7659 107.863 54.7099 107.815 54.6212L107.8 54.5879C107.804 54.5995 107.809 54.6109 107.815 54.6219C107.863 54.7106 107.957 54.7663 108.059 54.7674C108.161 54.7685 108.255 54.7149 108.306 54.6273C108.338 54.5703 108.348 54.5066 108.338 54.4465L108.341 54.472ZM88.5806 53.0601C88.5834 53.1689 88.5128 53.2179 88.3606 53.497C88.2946 53.425 88.2635 53.3951 88.2473 53.371C88.2635 53.3951 88.2947 53.4253 88.3608 53.4975C88.513 53.2183 88.5834 53.1689 88.5806 53.0601ZM43.7863 52.9225L43.8133 53.053L43.9365 53.0054L43.8674 52.8704L43.7863 52.9225ZM148.02 45.7785C148.27 45.8417 148.518 45.9085 148.766 45.9792L148.394 45.8759C148.269 45.8425 148.145 45.8101 148.02 45.7785ZM98.3425 44.6961L98.2255 44.8719L98.4154 44.8552L98.528 44.6791L98.3425 44.6961ZM101.758 44.2749C101.873 44.3431 102.039 44.3825 102.273 44.4581L102.272 44.4579C102.206 44.4363 102.144 44.4177 102.088 44.4004C102.004 44.3746 101.931 44.352 101.869 44.3276C101.848 44.3194 101.828 44.3111 101.81 44.3023C101.791 44.2936 101.774 44.2844 101.757 44.2746L101.758 44.2749ZM98.4098 43.8988L98.324 44.0556L98.4815 44.0626L98.5302 43.8729L98.4098 43.8988ZM87.4204 43.6054C87.7125 43.746 87.6176 43.6822 87.8434 43.9102C87.6173 43.6819 87.7126 43.7461 87.4204 43.6054ZM109.453 42.9439C109.385 42.927 109.314 42.9375 109.255 42.9699C109.314 42.9376 109.385 42.9273 109.453 42.9442C109.554 42.9693 109.632 43.0493 109.654 43.15C109.666 43.2084 109.658 43.2678 109.634 43.32C109.659 43.2677 109.667 43.2081 109.654 43.1495C109.632 43.0489 109.554 42.9691 109.453 42.9439ZM84.1899 42.6787L84.0477 42.8601L84.2483 42.7696L84.4327 42.5647L84.1899 42.6787ZM57.5105 39.7851C56.9987 40.0429 56.8338 39.9447 56.4957 40.4904C56.8338 39.9448 56.9989 40.0432 57.5108 39.7853C57.5232 39.7939 57.5372 39.8095 57.5522 39.8291C57.5371 39.8094 57.5231 39.7937 57.5105 39.7851ZM56.2011 37.8497C56.1698 37.9096 56.1442 37.9691 56.1234 38.0281C56.1441 37.9692 56.1698 37.9099 56.2011 37.8502C56.7845 38.056 57.0914 38.2823 57.1433 38.6093C57.0916 38.2821 56.7847 38.0556 56.2011 37.8497ZM58.9264 37.7557C58.8224 38.0433 58.9433 37.9634 58.7767 38.3708L58.777 38.3711C58.9437 37.9634 58.8225 38.0431 58.9264 37.7557ZM58.6905 37.6106L58.9604 37.6678C58.9544 37.6823 58.9492 37.6961 58.9441 37.7092C58.9492 37.696 58.9546 37.6821 58.9606 37.6676L58.6907 37.6104L58.6905 37.6106ZM56.4506 36.97C56.3622 37.0765 56.2909 37.1761 56.2466 37.2958C56.2909 37.1763 56.3621 37.0768 56.4504 36.9704L56.4506 36.97ZM56.7255 36.6413C56.6616 36.7235 56.6002 36.795 56.5432 36.8612C56.6001 36.7951 56.6617 36.7238 56.7255 36.6417C56.759 36.7207 56.7923 36.7995 56.8258 36.8784L56.826 36.8779C56.7925 36.7991 56.759 36.7202 56.7255 36.6413ZM117.268 35.52L117.321 35.6625L117.398 35.6154L117.308 35.5099L117.268 35.52ZM82.6622 33.3041C82.6084 33.3732 82.5671 33.4231 82.5354 33.4617C82.567 33.4232 82.6086 33.3735 82.6622 33.3046L82.8379 33.2889C82.9108 33.5168 82.9214 33.5339 82.8961 33.6221C82.9216 33.5335 82.9109 33.5167 82.8379 33.2885L82.6622 33.3041ZM104.667 33.3587L104.703 33.4617L104.749 33.446L104.743 33.3082L104.667 33.3587ZM88.8136 31.4823C88.8728 31.9877 88.8461 32.3084 88.8241 32.8141L88.6155 32.7135L88.6157 32.714L88.8243 32.8145C88.8463 32.3088 88.873 31.988 88.8139 31.4825L88.8136 31.4823ZM87.542 31.5209L87.7716 31.9589V31.9585L87.542 31.5209ZM82.8542 31.6318C82.9998 32.0786 82.8651 31.9336 83.1748 32.1629C82.8653 31.9338 82.9998 32.0786 82.8542 31.6318L83.2328 31.3198C83.5814 31.347 83.6327 31.4306 83.9182 31.6367L83.9762 31.7663C84.1274 32.096 84.1588 32.2762 84.4755 32.436L84.7666 32.4396V32.4391L84.4755 32.436C84.1589 32.2762 84.1276 32.0957 83.9764 31.7661L83.9182 31.6367C83.6327 31.4306 83.5816 31.3468 83.233 31.3196L82.8542 31.6318ZM74.2023 31.331C74.1987 31.6021 74.2084 31.8343 74.3418 32.1071C74.164 31.7435 74.2061 31.4515 74.2062 31.0438L74.2023 31.331ZM78.6662 31.2948C78.6997 31.3137 78.7375 31.3261 78.7773 31.3303L78.7384 31.3234C78.7001 31.3139 78.6647 31.2968 78.634 31.2736L78.6662 31.2948ZM78.5584 31.1871C78.5711 31.2097 78.5869 31.2302 78.605 31.2483L78.5797 31.2193C78.5719 31.209 78.5647 31.1984 78.5584 31.1871ZM105.262 31.1998L105.538 30.6264L105.538 30.6262L105.262 31.1998ZM104.359 30.7516L104.178 30.9551L104.179 30.9549L104.359 30.7516ZM84.5635 30.2103L84.3158 30.3755L84.1064 30.5084L84.1059 30.5093L84.3158 30.3759L84.5644 30.2101L84.5635 30.2103ZM101.409 30.0671L101.333 30.2316L101.469 30.198L101.541 30.0524L101.409 30.0671ZM79.7594 30.0606C79.7398 30.0649 79.7111 30.0758 79.6452 30.0932C79.733 30.07 79.7548 30.0585 79.7768 30.0586C79.7713 30.0586 79.7658 30.0592 79.7594 30.0606ZM82.6898 29.9766C82.9021 29.9954 83.0152 30.0052 83.2299 30.0068L83.3868 29.8139L83.2299 30.0063C83.0152 30.0047 82.9021 29.9954 82.6898 29.9766ZM90.2524 29.5581C90.2828 29.611 90.311 29.6648 90.3384 29.7183C90.2992 29.6417 90.2577 29.5645 90.2121 29.4897L90.2524 29.5581ZM90.0282 29.2314C90.0791 29.2916 90.126 29.3558 90.1695 29.4224L90.1249 29.3565C90.0791 29.2917 90.0297 29.2299 89.9761 29.1726L90.0282 29.2314ZM85.4876 27.8707C85.4924 28.291 85.0545 28.95 84.8332 29.352L84.8334 29.3525C85.0547 28.9504 85.4928 28.2912 85.4881 27.8709L85.4876 27.8707ZM89.6693 28.9333C89.6926 28.9456 89.7154 28.9587 89.7375 28.9726C89.7816 29.0004 89.8234 29.0314 89.8631 29.0649C89.8036 29.0146 89.7393 28.9699 89.6695 28.933L89.6693 28.9333ZM87.8737 28.4296C87.873 28.4086 87.8719 28.3876 87.8706 28.3666C87.8732 28.4086 87.8747 28.4505 87.8746 28.4924L87.8737 28.4296ZM87.3323 28.3391C87.3422 28.3627 87.3532 28.3858 87.3649 28.4086L87.3323 28.3391C87.3224 28.3155 87.3136 28.2914 87.3056 28.2669L87.3323 28.3391ZM95.8198 26.8131C96.0435 26.8194 97.6075 26.995 97.7906 27.0419C97.3269 27.1951 98.8433 27.8353 98.3703 28.0716C98.1651 27.8206 95.8743 27.13 95.8198 26.8131ZM113.572 24.5262L113.59 24.705L113.788 24.6355L113.76 24.4531L113.572 24.5262ZM116.185 15.1275C116.188 15.1379 116.19 15.1483 116.192 15.1588C116.19 15.1485 116.188 15.1382 116.185 15.128L116.185 15.1275Z" fill="#323032"/>
</svg>
