<svg width="32" height="32" viewBox="0 0 32 32" fill="none" xmlns="http://www.w3.org/2000/svg">
<g clip-path="url(#clip0_8216_26367)">
<rect width="32" height="32" fill="white"/>
<path d="M24.2627 28.0109C24.4762 27.9702 25.293 27.9393 25.4721 27.9608C26.5082 28.091 27.5538 28.3957 28.4866 28.8615C28.8969 29.0663 29.3466 29.3318 29.7452 29.5671C30.189 29.8289 30.9724 30.1366 31.3462 30.4545C31.399 30.6133 31.4619 31.513 31.2842 31.525C29.7601 31.6267 28.2362 31.5954 26.7102 31.6067L25.3959 31.6189C25.21 31.6204 24.8934 31.634 24.7162 31.6143C24.7162 31.6143 24.5364 31.6132 24.5364 31.6143C24.5351 31.6144 24.4516 31.6234 24.3806 31.6143C23.832 31.6442 23.2631 31.6381 22.7122 31.6389L20.4979 31.6434C18.9152 31.6446 17.3214 31.6838 15.7357 31.6794C15.5559 31.6767 15.4465 31.695 15.2593 31.6757C14.4704 31.7072 13.6997 31.6747 12.921 31.6802L7.70488 31.6995C7.70683 31.6982 7.7087 31.6967 7.71063 31.6953L7.69175 31.6949C7.66517 31.6416 7.6391 31.5879 7.6135 31.534C7.63562 31.5085 7.63152 31.5137 7.6585 31.5014C7.63147 31.5137 7.63563 31.5085 7.6135 31.534L7.61016 31.5208C7.60647 31.5242 7.60195 31.5293 7.59454 31.5378C7.62013 31.5917 7.64621 31.6454 7.67279 31.6987C7.59969 31.7019 7.49212 31.6938 7.41625 31.6908L7.31368 31.6985C5.69605 31.6273 4.05838 31.753 2.43921 31.6723C1.87337 31.6442 0.855365 31.779 0.359628 31.6236C0.355815 31.6023 0.352123 31.5809 0.348558 31.5596C0.302783 31.2856 0.245687 30.4453 0.396943 30.1659C0.45351 30.0613 0.842016 30.2029 0.986388 30.2279C2.14165 30.4289 3.19545 30.3933 4.34376 30.245C6.22025 30.003 7.79497 29.2775 9.72053 29.3844C10.8524 29.4473 11.546 29.7371 12.5851 30.0129C14.0486 30.3904 15.5689 30.5062 17.0737 30.3544C18.6207 30.1844 20.0345 29.6 21.4496 28.9809C22.6219 28.4679 22.8344 28.1327 24.1908 28.0107L24.2101 28.0121C24.21 28.0104 24.2099 28.0087 24.2097 28.0069L24.2627 28.0109ZM7.27291 31.6373C7.28026 31.6373 7.28691 31.6373 7.29303 31.6373C7.29265 31.6361 7.2923 31.6348 7.29187 31.6335L7.32355 31.5143L7.31006 31.4975L7.27291 31.6373ZM6.22859 31.2477C6.22228 31.2485 6.21635 31.2494 6.21076 31.2502L6.20967 31.2514C6.19887 31.3669 6.18293 31.3615 6.24545 31.4363C6.24912 31.4312 6.25243 31.4263 6.2556 31.4218C6.20349 31.3579 6.21833 31.3573 6.22859 31.2477ZM6.4231 31.2241L6.45349 31.2496C6.43941 31.3075 6.43654 31.2858 6.45188 31.3383L6.50357 31.359L6.51274 31.3512L6.47084 31.3344C6.45551 31.282 6.45838 31.3037 6.47245 31.2458L6.43735 31.2162C6.43158 31.2195 6.42689 31.222 6.4231 31.2241ZM7.75193 31.3088L7.76083 31.3095L7.79114 31.2961C7.78931 31.2954 7.78742 31.2947 7.78554 31.2939L7.75193 31.3088ZM7.94415 31.2888C7.92925 31.2876 7.91421 31.2991 7.89045 31.3058C7.9142 31.3031 7.93044 31.294 7.94415 31.2888ZM6.31014 31.2554C6.32825 31.2578 6.34031 31.262 6.36119 31.2697C6.36369 31.2667 6.36578 31.2639 6.36775 31.2614C6.34867 31.2547 6.3361 31.2515 6.31159 31.2498C6.31108 31.2517 6.31061 31.2536 6.31014 31.2554ZM6.38155 31.1371L6.39975 31.1479L6.402 31.1062C6.39809 31.1006 6.39248 31.0949 6.38417 31.0895L6.38155 31.1371ZM10.3596 30.4655C10.3053 30.5023 10.3217 30.4946 10.295 30.5707C9.57511 30.5165 8.76241 30.5448 8.04462 30.6758C7.88523 30.7049 7.56999 30.8463 7.42454 30.9262C7.39169 30.9465 7.38888 30.977 7.38099 31.0098L7.3987 31.0458C7.88013 31.1802 8.72711 30.9424 9.24424 30.9494C9.74603 30.9561 10.2378 31.0214 10.7415 30.9616C10.8871 30.9443 11.3697 30.8074 11.2852 30.6068C11.2311 30.5717 11.2135 30.5572 11.1507 30.5365C11.1405 30.5855 11.1295 30.6341 11.1226 30.6838C11.1499 30.7037 11.1678 30.7169 11.1942 30.7385C11.124 30.7592 10.5273 30.6134 10.4148 30.5879C10.4143 30.5856 10.414 30.5833 10.4135 30.5811L10.3139 30.5668C10.3382 30.4978 10.3269 30.4978 10.3652 30.4709C10.3634 30.4692 10.3616 30.4674 10.3596 30.4655ZM7.03343 30.8446L7.01105 30.8757L7.03351 30.8446L7.03343 30.8446ZM7.08524 30.6464L7.10541 30.6742L7.0947 30.7344C7.13684 30.7452 7.11909 30.7439 7.14723 30.7437L7.15246 30.7401C7.14311 30.74 7.14577 30.7388 7.11366 30.7306L7.12437 30.6704L7.10356 30.6418C7.09678 30.6435 7.09075 30.645 7.08524 30.6464ZM6.98259 30.5906L6.99358 30.6512C7.02432 30.6583 7.0393 30.6567 7.06262 30.6511C7.04812 30.6531 7.03427 30.6525 7.01254 30.6474L7.00195 30.589C6.99575 30.5896 6.98931 30.5902 6.98259 30.5906ZM11.8651 30.4106L11.8583 30.4348L11.873 30.4338L11.8959 30.4018L11.8651 30.4106ZM21.8641 30.3821L21.8721 30.4032L21.887 30.3967L21.8775 30.3731L21.8641 30.3821ZM21.9264 30.111L21.943 30.1193L21.9311 30.1087L21.9264 30.111ZM25.3983 29.1686L25.4445 29.2343C25.1914 29.2309 24.9315 29.1512 24.6764 29.1668C24.4977 29.1827 24.319 29.1973 24.1436 29.2362C23.5694 29.3639 22.4612 29.7528 22.0253 30.1171C22.3313 30.0981 22.6349 30.0502 22.9395 30.016C23.2734 29.9786 23.6098 29.9548 23.9447 29.9267C24.1764 29.9072 24.4148 29.8718 24.6471 29.8805C25.0138 29.8813 25.3804 29.8878 25.7467 29.8998C25.9884 29.91 27.0143 29.995 27.1677 29.9568C27.156 29.872 27.0636 29.8104 26.9973 29.7603C26.5486 29.4225 25.9822 29.1851 25.4148 29.1518L25.3983 29.1686ZM11.5721 29.7941L11.5467 29.8348L11.5829 29.8172L11.6005 29.7872L11.5721 29.7941ZM24.8396 25.6932C26.0061 25.1699 27.3662 25.0649 28.6201 25.2785C29.3844 25.4089 30.0342 25.7951 30.7255 26.1122C31.0027 26.2393 31.2094 26.29 31.378 26.552C31.3858 26.7694 31.4227 28.0558 31.3436 28.1834C31.0612 28.2662 29.8362 27.8116 29.6012 28.1043C29.6441 28.335 30.9763 28.6488 31.2506 28.5949C31.3768 28.5701 31.384 28.9449 31.3586 29.0309C30.9351 29.4483 28.4557 28.0895 27.9019 27.8822C26.5255 27.3674 25.1785 27.4697 23.7564 27.6818C22.0878 27.9413 20.6586 29.0139 19.036 29.4449C17.8567 29.7624 16.6415 29.8474 15.4263 29.7646C13.6511 29.692 12.0591 28.8797 10.4341 28.2601C10.2533 28.1912 10.0761 28.0809 9.89676 28.0158C8.66419 27.5686 7.32311 27.2216 6.00091 27.3757C5.70688 27.4099 5.37102 27.4197 5.08444 27.4787C4.20515 27.6597 3.32961 27.868 2.42963 27.9212C2.33107 27.9099 2.31124 27.8997 2.22896 27.845C2.27525 27.8757 2.30173 27.8924 2.33362 27.9032C2.33716 27.9044 2.34078 27.9055 2.34449 27.9065C2.36675 27.9129 2.39266 27.917 2.42963 27.9212C2.32261 27.9312 2.24622 27.9368 2.13702 27.9371C1.69076 27.9749 0.851001 27.9637 0.427255 27.8621C0.374905 27.5765 0.327343 26.4974 0.441586 26.258C0.574398 26.1578 0.884118 26.2967 1.03799 26.3368C1.33748 26.4145 1.63681 26.5235 1.93784 26.5963C3.09052 26.8754 4.31506 26.7198 5.42503 26.3402C5.92437 26.1673 6.32338 26.0071 6.84669 25.8789L6.98738 25.8454C8.53931 25.5193 9.63654 26.1871 10.8939 26.9769C11.1106 27.1129 11.2541 27.2136 11.4552 27.3751C10.8601 27.2254 10.3061 26.9952 9.76348 26.8725C10.2166 27.5864 12.1268 28.264 12.9854 28.425C14.9683 28.7973 17.3235 29.1245 19.2573 28.3671C20.4531 27.8987 21.5665 27.5018 22.6922 26.9065C23.4008 26.5135 24.1014 26.0323 24.8396 25.6932ZM6.08355 27.9195C7.1314 27.8738 7.81149 27.9482 8.82841 28.1445C9.08566 28.1941 9.47345 28.2492 9.68116 28.4123C9.72195 28.4445 9.73093 28.4634 9.73542 28.5132C9.63182 28.5968 8.50502 28.6672 8.26457 28.7012C7.72706 28.7768 7.18593 28.9389 6.65891 29.0679C5.77032 29.2851 4.88396 29.471 3.97076 29.5497C3.57987 29.5961 3.16486 29.5429 2.77891 29.477C2.29163 29.3942 1.82759 29.2542 1.35218 29.1259C1.11395 29.0618 0.849178 29.015 0.625789 28.9115C0.56157 28.8818 0.496398 28.8411 0.457526 28.7809C0.414039 28.7136 0.420644 28.6507 0.437359 28.5763C0.526649 28.4746 1.35919 28.6166 1.54206 28.6312C2.59644 28.716 3.31293 28.4484 4.30982 28.2248C4.89732 28.0932 5.4865 27.998 6.08355 27.9195ZM4.31003 29.3197L4.30954 29.3362L4.31945 29.3335L4.33309 29.3094L4.31003 29.3197ZM4.71736 29.1753L4.68942 29.1856L4.68946 29.1857L4.71736 29.1753L4.72328 29.1356H4.7232L4.71736 29.1753ZM3.67497 29.0775C3.68814 29.0734 3.703 29.0715 3.71394 29.0632L3.71386 29.0631C3.70292 29.0714 3.68813 29.0733 3.67497 29.0774L3.66837 29.057L3.67497 29.0775ZM30.9654 28.8692C30.9665 28.8661 30.9678 28.8629 30.9691 28.8594C31.0303 28.8612 31.0641 28.8625 31.1195 28.8924C31.1228 28.914 31.1233 28.9258 31.1209 28.9356C31.1233 28.9258 31.1229 28.914 31.1196 28.8923C31.0641 28.8624 31.0303 28.8611 30.9691 28.8593C30.9678 28.8628 30.9665 28.8661 30.9654 28.8692ZM0.734597 28.8088C0.782739 28.8779 0.830209 28.9101 0.914413 28.9271C0.950893 28.9347 0.982077 28.9355 1.01915 28.9304L1.00551 28.932C0.974211 28.9351 0.946366 28.9337 0.914453 28.9271C0.830247 28.91 0.782738 28.8779 0.734597 28.8088ZM29.7883 28.5093L29.8114 28.5162C29.796 28.5117 29.7806 28.5071 29.7653 28.5022L29.7883 28.5093ZM29.6605 28.3467C29.6612 28.3556 29.6613 28.3646 29.661 28.3738C29.6605 28.3923 29.6586 28.4117 29.6581 28.4336C29.6589 28.4007 29.6627 28.3734 29.6605 28.3467ZM0.419929 22.8449C0.690332 22.625 2.10267 22.658 2.50522 22.6919C4.21801 22.8372 5.72117 23.6522 7.34818 24.105C8.3609 24.3991 9.39274 24.5453 10.378 24.935C11.5136 25.3845 12.5504 26.3157 13.7805 26.5364C14.9326 26.743 16.519 26.9204 17.6703 26.7587C18.8942 26.5805 20.0785 26.1985 21.1724 25.6288C22.048 25.1765 22.6788 24.7835 23.6201 24.4239C24.7067 24.0087 25.6646 23.5692 26.8703 23.5527C27.8691 23.4669 28.8918 23.5277 29.8563 23.8159C30.2113 23.9219 31.0503 24.1094 31.3104 24.3529C31.4256 24.4609 31.4151 25.5948 31.3433 25.7535C31.2921 25.7577 30.5338 25.3904 30.4276 25.3418C28.763 24.5782 26.9387 24.3201 25.1821 24.9759C23.1073 25.7506 21.334 27.2438 19.1231 27.7057C18.7726 27.7793 18.4366 27.8196 18.0801 27.8588C17.1936 27.953 16.2991 27.9467 15.4141 27.8399L15.3247 27.8224C14.3271 27.6622 13.3159 27.4116 12.4103 26.9557C11.2107 26.3519 10.1767 25.2855 8.78566 25.1193C8.24306 25.0544 7.40433 25.0774 6.87825 25.2035C6.32082 25.3373 5.83017 25.581 5.29835 25.7803C4.56731 26.0541 3.79479 26.1216 3.02201 26.062C2.86177 26.0498 2.70462 26.0521 2.54741 26.0153C2.16693 25.9262 0.616753 25.6477 0.436312 25.3353C0.348416 25.1829 0.42086 24.9177 0.459297 24.7568C0.758764 24.8553 1.11775 24.9315 1.42617 25.0058C2.23645 25.2012 2.9738 25.3347 3.81148 25.2627C4.28019 25.2226 4.74301 25.1335 5.21257 25.0933C5.43911 25.0737 5.60686 25.1301 5.8157 25.1144C5.30745 24.6464 4.74036 24.8419 4.1129 24.7817C3.22745 24.6972 2.34512 24.5793 1.46058 24.479C1.19257 24.4485 0.69909 24.2807 0.444202 24.194C0.329568 24.155 0.391301 22.9633 0.419929 22.8449ZM28.5643 26.2503C28.5748 26.3988 28.6191 26.4409 28.7296 26.5353C28.9116 26.6909 29.1109 26.8322 29.3015 26.9775C29.9091 27.4394 30.1307 27.5244 30.8836 27.6692C30.8642 27.6015 30.8461 27.5366 30.7991 27.4817C30.5534 27.1947 29.8131 26.8416 29.4604 26.6471C29.1851 26.4952 28.8757 26.3095 28.5643 26.2503ZM18.8231 27.5092L18.8144 27.531L18.8311 27.5316L18.8292 27.5084L18.8231 27.5092ZM26.0668 27.366L26.0725 27.4075L26.1036 27.401L26.0944 27.3574L26.0668 27.366ZM26.5002 27.3234L26.5208 27.3432L26.5309 27.3346L26.5241 27.3118L26.5002 27.3234ZM18.7962 27.3259L18.7653 27.3352L18.7654 27.3353L18.7963 27.3259L18.8154 27.2985H18.8492L18.8491 27.2985L18.8154 27.2985L18.7962 27.3259ZM18.6432 27.2409L18.6431 27.2409L18.7062 27.2257L18.7062 27.2256L18.6432 27.2409ZM6.2649 26.654C6.27997 26.6765 6.29912 26.6941 6.31743 26.7119C6.32048 26.7148 6.32351 26.7178 6.32649 26.7208C6.34289 26.7373 6.35789 26.7548 6.36767 26.7771L6.36489 26.7711C6.33962 26.7204 6.28715 26.6948 6.25773 26.6423L6.2649 26.654ZM24.0164 26.6484L23.9944 26.6413C24.0018 26.6437 24.0092 26.6457 24.0164 26.6484ZM6.1666 26.6916C6.16319 26.6991 6.16032 26.7069 6.15798 26.7154C6.15879 26.7124 6.15965 26.7096 6.1606 26.7068C6.16149 26.7042 6.16242 26.7016 6.16342 26.6991C6.16442 26.6965 6.16548 26.694 6.1666 26.6916ZM28.4437 26.5998C28.4697 26.6122 28.4878 26.626 28.5102 26.6435H28.5103C28.4879 26.626 28.4697 26.6122 28.4437 26.5998L28.4437 26.5998ZM9.62513 26.5629L9.57984 26.5654L9.57988 26.5654L9.62513 26.5629ZM8.31046 26.357C8.33098 26.3673 8.34592 26.3785 8.36263 26.3921C8.34837 26.3805 8.33544 26.3706 8.3192 26.3616L8.31046 26.357ZM8.08878 26.3597L8.08721 26.3714L8.08878 26.3598L8.12054 26.3373L8.14208 26.3446L8.13213 26.3896L8.14212 26.3445L8.12054 26.3372L8.08878 26.3597ZM5.29131 21.5163C5.42573 21.4762 5.92407 21.5153 6.08271 21.5185C7.46636 21.5252 8.45099 22.245 9.59091 22.9002C10.9015 23.6534 12.4634 24.2805 13.9444 24.6177C14.7987 24.8124 15.5912 24.8463 16.4573 24.8569C17.8027 24.8734 19.0529 24.6333 20.32 24.1899C20.7126 24.0408 21.196 23.9166 21.5667 23.7237C22.9408 23.0086 24.2479 22.0095 25.8015 21.7115C26.1488 21.645 26.5872 21.6483 26.9446 21.6638C27.4608 21.6847 27.9736 21.7559 28.4755 21.8761C29.3726 22.0925 30.3046 22.3834 31.1985 22.6234C31.4493 22.6905 31.4052 23.5185 31.3465 23.7321C31.2562 23.7689 30.7937 23.4895 30.6649 23.4419C30.3906 23.3408 30.1257 23.2671 29.8458 23.1876C29.4641 23.0792 29.0917 22.9289 28.6997 22.8549C28.2012 22.7544 27.6224 22.7426 27.1123 22.7601C26.7566 22.7723 26.0966 22.7975 25.7592 22.8752C24.6601 23.128 23.5072 23.5787 22.507 24.0893C21.8767 24.411 21.2825 24.7735 20.6584 25.0778C19.6852 25.5523 18.7112 25.8834 17.6394 26.0579C17.2 26.1295 16.7501 26.1865 16.3055 26.2215C16.0386 26.2424 15.7449 26.2316 15.4855 26.2522C14.8617 26.3016 14.271 26.3972 13.6464 26.2581C13.3487 26.1916 13.0942 25.977 12.8338 25.8261C12.5078 25.6371 12.1258 25.4488 11.8127 25.2458C11.1967 24.8465 10.672 24.4605 9.9761 24.1914C9.08459 23.8466 8.16979 23.6542 7.24932 23.4121C6.86601 23.3115 6.37794 23.1589 5.99954 23.0389C5.60108 22.9126 5.24118 22.7731 4.83559 22.6571C4.3686 22.5237 3.39523 22.3549 3.02672 22.0951C3.44611 21.8175 4.52991 21.6139 5.05952 21.5362L5.29131 21.5163ZM17.9119 25.7154C17.9045 25.7262 17.8977 25.7358 17.8917 25.7453C17.8977 25.7358 17.9045 25.7263 17.9119 25.7155C17.9189 25.7218 17.9247 25.7293 17.9327 25.7342C17.9411 25.7393 17.9512 25.7413 17.9603 25.7448C17.9945 25.7866 17.9799 25.8326 17.9782 25.8848L17.9783 25.8848C17.9799 25.8326 17.9945 25.7866 17.9603 25.7447C17.9513 25.7413 17.9412 25.7392 17.9327 25.7341C17.9247 25.7292 17.9189 25.7217 17.9119 25.7154ZM18.3447 25.7582L18.347 25.7579L18.3299 25.7413L18.3447 25.7582ZM30.6292 25.0377C30.7584 25.1748 30.7576 25.0647 30.8495 25.1244C30.7576 25.0646 30.7584 25.1748 30.6292 25.0377ZM13.289 25.0088L13.2976 25.0271L13.3062 25.0245L13.3023 25.0007L13.289 25.0088ZM6.15935 24.7676C6.15276 24.7862 6.14647 24.8019 6.14164 24.8171L6.14691 24.8017C6.1507 24.7912 6.15496 24.78 6.15935 24.7676C6.18425 24.7755 6.18746 24.7738 6.19167 24.7804C6.19252 24.7817 6.19339 24.7834 6.19449 24.7855C6.1967 24.7898 6.19979 24.796 6.2052 24.8052C6.18352 24.7682 6.19917 24.7802 6.15935 24.7676ZM6.59434 24.6954C6.59567 24.7093 6.59834 24.7238 6.60114 24.7408C6.64664 24.7678 6.59981 24.7454 6.66639 24.7538C6.69545 24.7574 6.73823 24.7837 6.76558 24.7963C6.77743 24.775 6.79261 24.7501 6.80761 24.7234C6.79262 24.7501 6.77746 24.775 6.76562 24.7962C6.73827 24.7836 6.69545 24.7573 6.66639 24.7537C6.59983 24.7454 6.64664 24.7677 6.60114 24.7407C6.59927 24.7294 6.5975 24.7192 6.59611 24.7095L6.59434 24.6954ZM6.64844 24.5549C6.6534 24.5744 6.66308 24.5947 6.67948 24.6268C6.66541 24.5993 6.6563 24.5804 6.65086 24.5632L6.64844 24.5549ZM6.86038 24.6026C6.85924 24.6072 6.85785 24.6118 6.85643 24.6164C6.85784 24.6118 6.85924 24.6073 6.86038 24.6027V24.6026ZM30.4932 24.5331C30.4079 24.5528 30.3281 24.5709 30.2479 24.6067L30.263 24.6002C30.3381 24.5687 30.4132 24.5516 30.4932 24.5331ZM5.21527 17.2366C5.93738 17.0406 6.69091 16.9832 7.43497 17.0674C8.66637 17.1948 9.65266 17.7307 10.6602 18.3932C10.9792 18.6029 11.3066 18.8099 11.5988 19.0536C12.8799 20.1216 13.7696 21.0912 15.3996 21.6707C16.6487 22.1145 17.9519 22.2921 19.2802 22.0897C19.576 22.0446 20.2714 21.8332 20.5002 21.93L20.507 21.9628C20.3847 22.0871 19.6199 22.406 19.434 22.4536C18.4933 22.6938 17.4395 22.905 16.4715 22.9338C15.3769 22.9664 14.4244 22.8297 13.4111 22.4349C12.689 22.1534 12.0365 21.8999 11.3839 21.4584C10.9188 21.185 10.4146 20.7939 9.93199 20.5836C9.79695 20.5246 9.2607 20.3615 9.13737 20.4648C9.2048 20.5781 9.71163 20.8624 9.84331 20.9633C10.5452 21.5017 11.1879 22.0726 12.035 22.3865C12.4584 22.5541 12.9107 22.6387 13.3408 22.7862C13.5873 22.8708 13.828 23.0298 14.0738 23.1299C15.5615 23.7362 17.1733 23.484 18.7345 23.4915C19.5634 23.4954 20.4313 23.3176 21.2244 23.1093C21.2662 23.0973 21.3128 23.1055 21.353 23.1228C21.4488 23.3127 20.1327 23.7519 19.9375 23.8119C18.7202 24.1868 17.5654 24.369 16.293 24.2954C15.1046 24.24 13.7876 24.1361 12.6716 23.6927C11.6905 23.303 10.7038 22.7121 9.78949 22.1853C8.49257 21.438 6.93945 20.9434 5.41617 21.0941C5.04709 21.0988 4.81733 21.1325 4.45671 21.194C4.02126 21.2814 3.58813 21.3799 3.15775 21.4891C2.77055 21.5906 0.725508 22.2437 0.499149 22.1591C0.454013 22.1422 0.429568 22.0997 0.415058 22.0566C0.355252 21.8792 0.364181 20.8013 0.470971 20.6509C0.52781 20.5708 0.847697 20.657 0.939048 20.6755L0.991902 20.6863C1.88511 20.8691 4.03228 21.0288 4.86389 20.7764C6.92458 20.1507 8.96041 19.2485 11.0632 20.3847C11.1952 20.4561 11.714 20.8433 11.8246 20.8349C11.9177 20.6193 11.1667 20.0283 10.9988 19.9095C10.4657 19.5259 9.93657 19.2765 9.34258 19.0042C8.12135 18.4442 6.78738 18.1648 5.44045 18.3133C4.76693 18.3875 4.06531 18.692 3.37967 18.7737C2.86469 18.849 2.52933 18.8679 1.98562 18.8634C1.72534 18.8612 0.47158 18.8079 0.431643 18.3661C0.401304 18.0303 1.00043 18.1167 1.18532 18.1808C1.22395 18.1942 1.4386 18.2077 1.51577 18.2129C1.54663 18.2144 1.6326 18.2156 1.65723 18.2231C1.82938 18.2445 2.00043 18.226 2.17248 18.2126C3.26023 18.1281 4.1822 17.5261 5.21527 17.2366ZM6.45345 24.1092C6.45379 24.1107 6.45418 24.1122 6.4547 24.1136C6.45521 24.1151 6.45584 24.1165 6.45667 24.1178C6.4614 24.1252 6.46595 24.1308 6.47032 24.1358C6.47687 24.1432 6.48304 24.149 6.48879 24.1563C6.4792 24.1441 6.46851 24.1362 6.45667 24.1178C6.45501 24.1151 6.45413 24.1122 6.45345 24.1092ZM0.723205 23.8842L0.751665 23.8885L0.758427 23.8539L0.739266 23.8525L0.723205 23.8842ZM9.06024 23.3621L9.05327 23.4022L9.07449 23.3802L9.07666 23.3534L9.06024 23.3621ZM7.93453 23.2079C7.97485 23.2271 8.00997 23.2418 8.04325 23.2719C8.06808 23.2944 8.06156 23.3026 8.06382 23.3335L8.01713 23.3861L8.06386 23.3334C8.0616 23.3025 8.06811 23.2944 8.04329 23.2718C8.01001 23.2417 7.97486 23.2271 7.93453 23.2079ZM8.60295 23.1235L8.60766 23.1561L8.62638 23.1496L8.63217 23.104L8.60295 23.1235ZM6.67324 23.0872L6.68825 23.1412H6.68833L6.67324 23.0872ZM7.1746 22.8592L7.2116 22.8647C7.26288 22.9035 7.26453 22.9257 7.28599 22.9844L7.28603 22.9844C7.26453 22.9256 7.26292 22.9034 7.2116 22.8646L7.1746 22.8591V22.8592ZM12.7562 22.7741C12.7595 22.7757 12.7624 22.7777 12.765 22.7801C12.7676 22.7824 12.7698 22.785 12.7718 22.7879C12.7839 22.8052 12.7866 22.8317 12.7928 22.851C12.7846 22.8252 12.7825 22.7867 12.7562 22.7741ZM12.6644 22.7599C12.6828 22.7597 12.7014 22.7601 12.7193 22.763L12.7116 22.7619C12.6961 22.76 12.6802 22.7598 12.6644 22.7599ZM6.92527 22.7104C6.93228 22.7163 6.93806 22.7267 6.94725 22.7271L6.92527 22.7104ZM26.0199 19.7072C26.6704 19.6747 27.3522 19.6708 27.9954 19.8039C29.0103 19.969 30.2735 20.5044 31.2844 20.3634C31.4309 20.9862 31.3211 20.8904 30.7366 21.0023C30.3611 21.0741 29.9684 21.1569 29.5952 21.2248C29.3598 21.2677 28.9538 21.1571 28.7264 21.0892C28.7309 21.082 28.7344 21.076 28.7373 21.0705C28.7344 21.076 28.7309 21.082 28.7265 21.0891C28.6387 21.0492 28.5132 21.0234 28.4153 20.9943L28.4152 20.9944L28.388 20.977C27.8983 20.6685 26.6566 20.8325 26.0943 20.9468C25.0764 21.1536 24.2069 21.6794 23.3101 22.17C22.8225 22.436 22.5055 22.6185 21.9136 22.5939C21.4845 22.576 21.2338 22.279 21.5475 21.9335C21.8738 21.5743 22.4498 21.3428 22.8546 21.0712C23.8612 20.3874 24.753 19.7705 26.0199 19.7072ZM8.34536 22.4645L8.3454 22.4645L8.42418 22.4117C8.50435 22.4579 8.50023 22.44 8.54023 22.5087L8.5282 22.5569L8.54027 22.5086C8.50027 22.4399 8.50439 22.4578 8.42422 22.4116L8.34536 22.4645ZM5.88107 22.5293C5.88683 22.5327 5.8926 22.5357 5.89858 22.5386C5.88961 22.5342 5.88112 22.5296 5.87242 22.5241L5.88107 22.5293ZM8.36794 22.4866L8.38694 22.4733L8.34552 22.4646L8.36794 22.4866ZM8.03339 22.447C8.04709 22.4599 8.05867 22.4701 8.07051 22.48L8.05867 22.4699C8.04676 22.4596 8.03431 22.448 8.01894 22.433L8.03339 22.447ZM5.82697 22.4513C5.82818 22.4598 5.82865 22.4665 5.8291 22.4721L5.82834 22.4628C5.82802 22.4594 5.82758 22.4556 5.82697 22.4513ZM18.1495 22.3899C18.1539 22.4088 18.1483 22.4289 18.1344 22.4431C18.114 22.4639 18.0813 22.4667 18.0578 22.4497C18.0548 22.4475 18.0521 22.4452 18.0497 22.4427L18.0463 22.4388C18.0495 22.4429 18.0534 22.4466 18.0578 22.4497C18.0813 22.4668 18.1141 22.464 18.1345 22.4432C18.1484 22.429 18.1539 22.4088 18.1495 22.39L18.1495 22.3899ZM7.89661 22.3397C7.8963 22.34 7.89606 22.3404 7.89576 22.3407C7.89731 22.3389 7.89892 22.3373 7.90067 22.3358L7.89661 22.3397ZM7.97027 22.2985C7.94976 22.3098 7.93395 22.3166 7.92148 22.3228C7.93395 22.3166 7.94979 22.3099 7.97031 22.2986L7.97027 22.2985ZM5.93831 22.0795L5.94182 22.1254L5.97748 22.1114L5.97579 22.0746L5.93831 22.0795ZM31.1214 21.2568C31.4698 21.1555 31.3606 21.8433 31.3505 22.0338C30.8963 21.9543 30.0469 21.6498 29.6438 21.4521C29.9447 21.4248 30.2446 21.3878 30.543 21.341C30.6905 21.3181 30.9118 21.2699 31.0564 21.2571L31.0843 21.255L31.0843 21.2549L31.1212 21.2567L31.1214 21.2568ZM5.49169 21.94C5.49128 21.9428 5.49061 21.9456 5.48968 21.9483C5.48921 21.9496 5.48867 21.951 5.48807 21.9523C5.48688 21.9549 5.48541 21.9574 5.48368 21.9599C5.47473 21.9725 5.46016 21.9797 5.44488 21.9795C5.46017 21.9797 5.47477 21.9726 5.48372 21.9599C5.48805 21.9538 5.49067 21.947 5.49169 21.94ZM15.3998 10.774C16.2017 10.616 17.0286 10.629 17.8249 10.812C17.9169 10.845 18.01 10.8752 18.1038 10.9025C19.2565 11.3526 20.0381 11.9203 20.657 13.0313C21.0286 13.7598 21.4639 14.7733 21.3052 15.5982C21.2576 15.8456 20.9649 15.9632 20.7656 15.8391C20.6852 15.8082 20.4979 15.6635 20.4773 15.574C20.3722 15.1178 20.3913 14.7606 20.217 14.3037C19.8254 13.2777 19.1034 12.5876 18.0772 12.1518C16.9587 11.6769 15.3929 11.5203 14.2209 11.9271C13.1513 12.3405 11.8133 13.6114 11.3524 14.6668C10.9531 15.5814 10.8435 16.8121 11.1876 17.7691C11.3049 18.0952 11.5201 18.2663 11.8311 18.3983C11.8141 18.1629 11.6763 17.7639 11.6064 17.5169C11.346 16.5966 11.5558 15.3441 12.02 14.5264C12.5301 13.6279 13.7964 12.56 14.8148 12.313C15.9311 12.0423 17.1217 12.0945 18.1123 12.7234C18.7479 13.1225 19.3922 13.626 19.5811 14.3867C19.7157 14.9279 19.7046 15.7902 19.0032 15.9546C18.8897 15.9813 18.6624 15.9581 18.5659 15.8845C18.2967 15.6788 18.3907 15.5677 18.5109 15.3116C18.5401 15.1738 18.5372 14.962 18.5117 14.8284C18.2736 13.5848 16.6398 12.8847 15.4754 13.106C14.4622 13.2985 13.6326 13.9602 13.0427 14.7728C12.6285 15.3433 12.4858 16.3261 12.5996 17.0103C12.8527 18.2083 13.7872 19.2208 14.8046 19.8735C16.5298 20.9802 18.3882 20.908 20.2959 20.408C20.995 20.2248 21.6675 19.9591 22.3921 19.8408C22.6323 19.8017 23.5103 19.6896 23.6861 19.806C23.7318 19.9416 23.3633 20.1847 23.2566 20.2516C21.3594 21.4545 18.6671 22.2504 16.4709 21.4433C14.8912 20.8628 13.2998 19.7148 11.9377 18.7383C11.7362 18.5945 11.5395 18.4442 11.3479 18.2876C10.9264 17.9367 10.606 17.7004 10.0916 17.4785C9.72265 17.3194 9.8345 16.973 9.88042 16.638C10.0165 15.6461 10.3077 14.6345 10.7963 13.7546C11.7458 12.21 13.4741 11.2034 15.227 10.8022L15.3998 10.774ZM10.0408 21.5924L10.0215 21.6268L10.0508 21.6296L10.0581 21.5918L10.0408 21.5924ZM1.41477 21.5371C1.41449 21.539 1.4141 21.541 1.41361 21.5429C1.40575 21.5738 1.37406 21.5925 1.34276 21.585C1.33096 21.5821 1.32089 21.5759 1.31333 21.5676L1.30979 21.5633C1.31761 21.5738 1.32903 21.5817 1.3428 21.5851C1.3741 21.5926 1.4058 21.5739 1.41365 21.543C1.41463 21.5391 1.41517 21.5353 1.41534 21.5314L1.41477 21.5371ZM1.41357 21.5145C1.41497 21.5199 1.41559 21.5256 1.41534 21.5313V21.5257C1.41513 21.5219 1.41454 21.5182 1.41361 21.5146L1.41357 21.5145ZM11.1509 21.1891C11.1565 21.2 11.1571 21.2171 11.1687 21.2214L11.1688 21.1856L11.1509 21.1891ZM24.0997 21.008L24.1362 20.9611L24.1551 20.9663L24.1551 20.9663L24.1362 20.961L24.0997 21.008ZM28.4097 20.8908L28.4496 20.9689L28.4497 20.9689L28.4097 20.8908ZM6.09708 18.7887C6.70547 18.7183 7.50691 18.8859 8.05621 19.1332C8.15428 19.1773 8.27603 19.2266 8.31521 19.3305L8.28941 19.358C8.06206 19.4412 7.60621 19.4381 7.35108 19.4664C6.63554 19.5457 5.9464 19.7619 5.25769 19.9669C4.23192 20.2726 3.28635 20.3725 2.22034 20.367C1.92703 20.3284 0.644862 20.2842 0.412441 19.9513C0.34045 19.8482 0.35622 19.278 0.412321 19.133C0.490321 19.0787 1.047 19.2546 1.17844 19.2819C2.24983 19.5034 3.46798 19.4989 4.52128 19.2028C5.07588 19.0468 5.5065 18.8476 6.09708 18.7887ZM14.8797 16.264C15.0209 16.3184 15.1468 16.6511 15.2154 16.7857C15.3006 16.9544 15.3974 17.1171 15.5052 17.2727C16.0714 18.0964 17.0289 18.955 18.0318 19.1812C19.1833 19.4411 20.7132 19.066 21.8348 18.7504C22.3297 18.6123 22.8171 18.4151 23.3175 18.2986C23.963 18.1481 24.6679 18.0615 25.3281 17.9941C25.7701 17.949 26.2811 17.9793 26.7073 18.0964C26.969 18.1684 27.2248 18.2726 27.4917 18.3371C28.0309 18.463 28.5816 18.5331 29.1354 18.5466C29.6882 18.5628 30.1997 18.4308 30.7432 18.3771C30.8547 18.3662 31.0919 18.371 31.1853 18.4233C31.3596 18.5209 31.364 18.8628 31.1253 18.8881C30.8609 18.9312 30.6251 18.9346 30.3697 18.9501C30.0494 18.967 29.7316 19.014 29.4206 19.0909C29.682 19.1932 30.0289 19.2617 30.3048 19.3126C30.6523 19.3972 30.8007 19.3016 31.1339 19.291C31.1904 19.2892 31.257 19.3193 31.2937 19.3667C31.3609 19.4535 31.339 19.7643 31.3159 19.8634C31.1464 20.0702 28.7595 19.3882 28.4004 19.2981C27.3141 19.0254 26.2133 19.147 25.1129 19.2371C24.0051 19.3278 22.8971 19.3974 21.8068 19.6211C21.2231 19.7419 20.6572 19.9748 20.0838 20.1326C18.765 20.4955 17.1295 20.4406 15.9215 19.7625C15.3505 19.4419 14.7368 18.858 14.5938 18.2061C14.4386 17.4989 14.4998 16.8856 14.8797 16.264ZM16.7936 19.0764L16.7649 19.1165L16.7985 19.1199L16.8325 19.0752L16.7936 19.0764ZM15.239 18.8575C15.2361 18.9021 15.2434 18.936 15.277 18.9753C15.2848 18.9845 15.2945 18.992 15.3032 19.0003V19.0002C15.2945 18.9918 15.2849 18.9843 15.277 18.9752C15.2386 18.9303 15.2347 18.8925 15.2408 18.8376L15.239 18.8575ZM15.8635 16.1282C16.0308 16.2209 16.1322 16.5415 16.2534 16.7129C16.5644 17.1537 17.0737 17.5335 17.5783 17.7275C18.773 18.1872 19.7565 17.9502 20.8942 17.5102C21.5344 17.2625 22.11 17.0183 22.7393 16.7544C23.8291 16.3413 25.1039 16.3454 26.2415 16.5083C27.3353 16.6651 28.1958 17.3335 29.2731 17.4822C29.5952 17.5267 29.9254 17.5326 30.2471 17.5133C30.4131 17.5033 31.2169 17.22 31.296 17.4279C31.2587 17.5269 31.0763 17.5849 30.9734 17.6404C30.1175 18.0739 29.3193 18.0204 28.3968 17.9514C27.667 17.8967 27.168 17.6475 26.4751 17.5011C25.9625 17.3929 25.2636 17.3748 24.7362 17.4177C24.2524 17.457 23.6529 17.5922 23.1828 17.7281C21.7114 18.2748 20.6011 19.0821 18.9261 18.9312C17.8965 18.8415 16.8383 18.4003 16.1621 17.6105C15.8901 17.293 15.4184 16.4701 15.8635 16.1282ZM19.8686 18.7741C19.7753 18.741 19.7691 18.765 19.6743 18.7369L19.6743 18.7369C19.7691 18.765 19.7753 18.741 19.8686 18.7742L19.9049 18.6977L19.9049 18.6976L19.8686 18.7741ZM19.6419 18.5913C19.6003 18.6517 19.6273 18.6269 19.5491 18.6576L19.5951 18.7216L19.585 18.7363C19.58 18.7291 19.5756 18.7221 19.5715 18.7152C19.5756 18.7221 19.5801 18.7291 19.5851 18.7363L19.5952 18.7217L19.5492 18.6576C19.6273 18.6269 19.6003 18.6517 19.6419 18.5913L19.6285 18.5553L19.6285 18.5553L19.6419 18.5913ZM25.7844 18.6135C25.7801 18.6704 25.7736 18.6442 25.8081 18.6938C25.8445 18.702 25.8637 18.7056 25.8785 18.6982L25.8785 18.6981C25.8637 18.7056 25.8446 18.7019 25.8081 18.6938C25.7737 18.6442 25.7801 18.6704 25.7844 18.6135ZM13.3043 15.3066C13.9304 13.9966 15.9782 12.793 17.3008 13.9126C17.3284 13.936 17.308 13.9665 17.2993 13.9975C17.2297 13.9932 17.2606 13.9839 17.2047 14.0297L17.2025 14.0658L17.2048 14.0298C17.2606 13.9839 17.2297 13.9933 17.2994 13.9976L17.3074 14.0535L17.3116 14.0605C17.4039 14.2077 17.7292 14.3213 17.727 14.6309C17.7979 14.7268 17.5607 15.3537 17.4442 15.3241C17.1693 15.2539 16.6955 14.8603 16.2909 14.8738C15.6934 14.8936 15.0392 15.0812 14.6101 15.5021C14.0415 16.0596 13.8253 17.0051 13.9765 17.7675C14.0144 17.9607 14.1423 18.339 14.143 18.4879C14.0804 18.5658 13.9274 18.5867 13.853 18.5115C13.0378 17.6934 12.7996 16.3626 13.3043 15.3066ZM12.0945 18.4677C12.0879 18.4876 12.0812 18.5075 12.0744 18.5273L12.0587 18.5428C12.0526 18.5344 12.0485 18.5261 12.0459 18.5174V18.5175C12.0485 18.5261 12.0526 18.5345 12.0587 18.5429L12.0744 18.5274C12.088 18.4878 12.1013 18.4479 12.1141 18.408L12.1141 18.408L12.0945 18.4677ZM9.44447 18.4114C9.47126 18.44 9.48685 18.4777 9.48983 18.5205L9.42877 18.528L9.42881 18.528L9.48987 18.5205C9.48689 18.4777 9.47129 18.4401 9.44451 18.4115L9.44447 18.4114ZM8.47518 18.3877L8.5032 18.383L8.50698 18.3582L8.49531 18.357L8.47518 18.3877ZM8.35462 18.2153C8.36231 18.2333 8.37484 18.2491 8.4018 18.2732C8.46583 18.2781 8.49595 18.2722 8.55839 18.2642L8.55835 18.2642C8.49592 18.2721 8.46579 18.278 8.40176 18.2731C8.37484 18.2491 8.36231 18.2333 8.35462 18.2153ZM15.0565 18.0383L15.0812 18.0848L15.0853 18.0322L15.0565 18.0383ZM14.974 17.8599C15.0291 17.8573 15.0297 17.8609 15.0777 17.8363L15.0776 17.8363C15.0297 17.8608 15.0291 17.8573 14.974 17.8599ZM30.6899 17.7343C30.6831 17.7339 30.6388 17.7211 30.6307 17.7191L30.6307 17.7192C30.6387 17.7212 30.6831 17.734 30.6899 17.7344L30.707 17.6736L30.6899 17.7343ZM15.0613 17.6575C15.0604 17.667 15.0591 17.6767 15.0575 17.6867L15.0597 17.6719C15.0603 17.667 15.0609 17.6622 15.0613 17.6575ZM9.74078 1.83731C11.595 1.03808 13.9791 0.555795 16.0085 0.600519C19.3276 0.673356 22.5387 1.77737 25.1852 3.75548C25.975 4.34651 26.664 5.00321 27.3489 5.70214C28.0406 6.40815 28.479 7.07683 28.9981 7.88318C30.3413 9.94811 31.1371 12.3159 31.29 14.7655C31.3079 15.0525 31.4565 16.7696 31.2921 16.9244C31.0513 16.8189 30.4415 17.0209 30.2776 16.9436C30.2273 16.8169 30.2333 15.9447 30.2172 15.7254C30.1748 15.1991 30.1158 14.6743 30.0404 14.1516C29.634 11.4474 28.3623 8.70637 26.547 6.63038C26.1078 6.12817 25.393 5.52558 24.8874 5.07705C24.4998 4.73319 23.9266 4.40818 23.508 4.10126C23.4505 4.07716 23.3477 3.99785 23.2829 3.96603C23.103 3.87776 22.8782 3.74221 22.7003 3.66614C22.6069 3.62638 22.5292 3.5874 22.4393 3.54184C21.8278 3.24041 21.2643 3.00075 20.6337 2.74382C20.6481 2.73452 20.6562 2.71915 20.6565 2.7033C20.6561 2.71912 20.6481 2.73446 20.6337 2.74374C20.6221 2.75116 20.6081 2.75361 20.5947 2.75049C20.5811 2.74738 20.5698 2.739 20.5628 2.72729C20.5602 2.7229 20.5583 2.71826 20.5572 2.71355V2.71363C20.5583 2.71835 20.5602 2.72298 20.5628 2.72737C18.6592 1.99394 16.5506 1.69968 14.5274 2.02446C14.4322 2.0361 14.2836 2.05425 14.2836 2.05425L14.2837 2.05429L13.9249 2.11563L13.7295 2.15492L13.6837 2.15726C13.6195 2.17044 13.5486 2.18661 13.4847 2.19655C12.9599 2.33795 12.3582 2.44235 11.8468 2.61078C10.6641 2.99274 9.53102 3.51056 8.47079 4.15354C4.45384 6.55896 1.7906 10.7289 1.47656 15.3765C1.44295 15.8393 1.43914 16.3037 1.46521 16.7668C1.4735 16.9175 1.57438 17.6162 1.46364 17.6664L1.46356 17.6663C1.32906 17.6588 1.27212 17.6433 1.14157 17.6124L1.14141 17.6125C0.955228 17.5771 0.508604 17.5147 0.384183 17.3727C0.316668 17.2958 0.317594 16.2622 0.321386 16.0752C0.333423 15.0102 0.442639 13.9484 0.647647 12.9026C1.26509 9.88041 2.80051 7.11541 5.04954 4.97555C6.28151 3.81183 8.17655 2.51151 9.74078 1.83731ZM15.0587 17.5988C15.0592 17.6007 15.0597 17.6027 15.0601 17.6047C15.0593 17.6007 15.0582 17.5968 15.057 17.593L15.0587 17.5988ZM6.48006 17.5831L6.46593 17.6036L6.49841 17.5995L6.49551 17.5778L6.48006 17.5831ZM11.8349 3.45615C13.5823 2.94706 15.4766 2.69264 17.2987 2.80504C17.7748 2.83441 18.3567 2.98768 18.8284 3.08487L18.8285 3.08483C19.3425 3.13901 20.8196 3.57585 21.2627 3.82024H21.2626L21.2627 3.82028C21.6042 3.92614 22.3412 4.33768 22.6815 4.52601C27.1022 6.97402 29.4517 11.9519 29.3751 16.843C29.3744 16.8802 29.3365 16.8987 29.3112 16.9152C29.1576 16.9303 28.9571 16.8341 28.8231 16.7586L28.7201 16.5621C28.5816 16.4995 28.3281 16.408 28.2889 16.2526C28.2246 15.9963 28.286 15.6999 28.2609 15.4349C28.1436 14.1991 27.7207 13.0467 27.2858 11.8901C27.0389 11.2333 26.7879 10.5663 26.4476 9.94707C26.3384 9.74673 26.203 9.5852 26.083 9.39841C25.9913 9.25595 25.9257 9.11802 25.8252 8.97259C25.2998 8.21159 24.6819 7.62015 23.9913 7.01151C23.1766 6.29378 22.4045 5.72588 21.43 5.23309C20.7713 4.89998 20.2629 4.77276 19.5677 4.55851C18.009 4.07808 16.5539 3.81454 14.9138 3.93302C14.5637 3.9583 14.25 3.9945 13.904 4.05855C13.7211 4.0924 13.3401 4.20264 13.1864 4.21706L13.1864 4.21702L13.1569 4.22326L13.1228 4.1651L13.1357 4.11933L13.1227 4.16514L13.1569 4.22334C12.2607 4.55101 11.4103 4.7469 10.5344 5.19814C9.21835 5.83422 8.19564 6.6567 7.17505 7.6714C5.97976 8.85981 5.2376 10.0675 4.61177 11.6288C4.20794 12.6362 3.88515 13.5879 3.76784 14.6805C3.71634 15.1602 3.65574 15.6499 3.63907 16.1336C3.58773 16.3004 3.72368 16.9828 3.62924 17.0871C3.5195 17.2083 2.76384 17.6267 2.57804 17.512C2.55937 17.4286 2.56907 17.0206 2.5646 16.8904C2.52297 15.6764 2.55806 14.5033 2.80685 13.3084C2.95656 12.5709 3.17324 11.8483 3.45434 11.1492C4.41232 8.82628 6.23642 6.51629 8.33932 5.09838C9.36567 4.40637 10.6444 3.803 11.8349 3.45615ZM12.2845 17.4925L12.3041 17.5031L12.3039 17.4645L12.2845 17.4925ZM10.6389 17.2406C10.6212 17.2634 10.6142 17.2656 10.5909 17.2839L10.5709 17.2685V17.2686L10.5909 17.284C10.6142 17.2657 10.6213 17.2635 10.6389 17.2407L10.6377 17.209L10.6376 17.209L10.6389 17.2406ZM12.9956 9.23903C14.7032 8.60459 16.3185 8.45123 18.0941 8.88563C18.6059 9.01082 19.0964 9.16168 19.5772 9.37628C20.8942 9.96406 21.8184 10.8929 22.555 12.1067C22.7769 12.4724 22.9915 12.8602 23.1426 13.2602C23.3099 13.7032 23.7343 15.3397 23.5779 15.7296C23.5663 15.7579 23.5478 15.7763 23.5257 15.7965C23.3454 15.8619 23.1042 15.8499 22.9186 15.8932C22.7347 15.9363 22.5098 16.0252 22.3299 16.0913C22.2648 14.7119 22.095 13.7058 21.2802 12.5405C21.0102 12.1532 20.6972 11.797 20.3468 11.4785C19.1887 10.4392 17.7417 9.81473 16.1491 9.87294C15.6747 9.89027 15.3222 9.99173 14.8751 10.0674C13.3937 10.304 12.1022 10.9351 11.0942 12.051C10.2925 12.9384 9.66588 13.979 9.47812 15.1716C9.38946 15.7347 9.36733 16.2478 9.37366 16.815C9.37429 16.8718 9.34464 16.9556 9.2859 16.9798C9.26556 16.969 9.23891 16.9576 9.22399 16.9429C8.99094 16.8317 8.59631 16.732 8.34166 16.673C8.26526 16.6558 8.20774 16.6531 8.1556 16.5984C8.09748 16.4461 8.12192 16.2522 8.1294 16.0909C8.17136 15.1865 8.4598 14.3974 8.83437 13.5814C9.07936 13.0477 9.33591 12.4924 9.6496 11.9947C10.423 10.7676 11.6188 9.75057 12.9956 9.23903ZM25.5455 16.9127L25.5748 16.9316L25.5577 16.9086L25.5455 16.9127ZM3.04858 16.8851L3.06637 16.8786L3.06673 16.8349L3.04966 16.8337L3.04858 16.8851ZM8.46097 7.51599C11.1005 5.32429 13.6056 4.47868 17.0343 4.76651C17.044 4.82285 17.4513 4.94562 17.4877 4.99025C17.5718 4.94824 17.4405 4.84281 17.523 4.81557C20.6469 5.1873 23.3484 7.01607 25.2559 9.44584C25.9338 10.3091 26.4513 11.3678 26.8306 12.3909C27.0651 13.0626 27.1307 13.8855 27.2782 14.5807C27.3277 14.8135 27.5721 15.8796 27.4452 16.0356C27.4161 16.0331 26.4635 15.8644 26.4635 15.8643C26.3097 15.695 26.2951 15.2117 26.237 14.9813C25.8889 13.0503 25.2862 11.1343 24.0636 9.55775C23.9113 9.36148 23.7211 9.18832 23.5568 9.00242C23.1865 8.62717 22.7553 8.16487 22.2969 7.88699C21.8528 7.61786 21.3682 7.30462 20.9179 7.0533C19.8738 6.47066 18.625 6.14528 17.4401 5.99786C16.6056 5.9021 15.551 5.9034 14.7228 6.02956V6.02968L14.6451 6.04267C12.6439 6.33607 11.2511 7.03218 9.67903 8.23325C7.23318 10.1019 5.88411 12.7709 5.56834 15.7784C5.53161 16.005 5.55729 16.2825 5.48461 16.4944C5.44609 16.6067 5.11845 16.6073 4.99487 16.6374C4.83401 16.6765 4.55127 16.864 4.42326 16.7842C4.36828 16.6327 4.4195 15.8987 4.43739 15.6946C4.63954 13.3868 5.24067 11.5044 6.56934 9.59962C7.10038 8.82299 7.73686 8.12189 8.46097 7.51599ZM9.06966 16.723C9.06511 16.752 9.06331 16.7581 9.04317 16.777C9.04931 16.7712 9.05382 16.7667 9.05714 16.7623C9.05966 16.759 9.06155 16.7557 9.06306 16.7521C9.06456 16.7486 9.0657 16.7446 9.06672 16.7399C9.06774 16.7352 9.0686 16.7297 9.06966 16.723ZM25.5402 16.6483C25.5417 16.658 25.5461 16.6707 25.5534 16.6926C25.6321 16.7386 25.702 16.7013 25.8262 16.7296L25.8273 16.6857L25.8272 16.6856L25.8262 16.7295C25.702 16.7012 25.6321 16.7384 25.5534 16.6925C25.5476 16.6749 25.5436 16.6633 25.5415 16.6544L25.5402 16.6483ZM12.0393 16.611C12.0514 16.614 12.0638 16.6212 12.0759 16.6183L12.0759 16.6183C12.0637 16.6211 12.0513 16.614 12.0393 16.611ZM16.1104 6.76525C17.2161 6.77577 18.3109 6.98192 19.3427 7.37397C19.4461 7.41241 19.8318 7.56571 19.9131 7.62138C19.9879 7.65598 20.0914 7.7078 20.1654 7.73715H20.1653L20.1654 7.73723C21.0471 8.20636 21.4944 8.57543 22.2283 9.2314C23.2759 10.1675 23.921 10.973 24.4824 12.2549C24.6756 12.6958 24.859 13.0679 24.9981 13.5486C25.1733 14.154 25.3786 15.0848 25.3817 15.7095C25.2193 15.71 24.3988 15.7483 24.326 15.6207C24.231 15.4543 24.2149 14.9449 24.1607 14.7283C23.9435 13.8586 23.6758 12.9447 23.2543 12.147C22.3738 10.4803 20.7015 8.96244 18.8606 8.42179L18.7866 8.39767C13.0038 7.14674 8.62773 9.97405 7.53424 15.7738C7.50878 15.9089 7.47681 16.4483 7.42627 16.5184C7.25812 16.5906 6.61686 16.5638 6.40063 16.563C6.38833 16.279 6.44968 15.9757 6.47986 15.6948C6.61436 14.4426 6.95036 13.3243 7.50219 12.1908C7.70706 11.7735 7.93912 11.2842 8.22416 10.9151C8.81161 10.1544 9.64491 9.29532 10.4092 8.71318C11.5675 7.83089 13.1892 7.13371 14.6436 6.89364L14.7127 6.88256L14.7853 6.86373C14.8019 6.9046 14.8104 6.91635 14.8136 6.92662C14.8114 6.91945 14.8067 6.91158 14.7984 6.89364C14.7947 6.88583 14.7904 6.87615 14.7853 6.86373V6.86361L14.8158 6.85769L14.8645 6.8629L14.8646 6.86293C15.3339 6.78603 15.5537 6.80001 15.9962 6.7641L16.1104 6.76525ZM29.0596 16.4108C29.0476 16.466 29.0463 16.4975 29.0072 16.5367L29.0072 16.5367C29.0519 16.492 29.0472 16.4572 29.0655 16.3856L29.0596 16.4108ZM4.86715 16.4633L4.86916 16.4631L4.85608 16.4466L4.86715 16.4633ZM3.23991 16.4259C3.25946 16.4482 3.28044 16.4358 3.31381 16.4319L3.31377 16.4319C3.28043 16.4358 3.25945 16.4482 3.23991 16.4259ZM8.70302 16.195C8.6839 16.2434 8.65891 16.2631 8.62227 16.3005L8.59969 16.3105L8.56483 16.2887L8.5325 16.268C8.50813 16.2956 8.49033 16.3148 8.46383 16.3404L8.43316 16.3094C8.43277 16.2825 8.43381 16.2647 8.43573 16.2523L8.43569 16.2524C8.43377 16.2648 8.43277 16.2826 8.43316 16.3096L8.46383 16.3405C8.49033 16.3149 8.50812 16.2957 8.5325 16.2681L8.56479 16.2888L8.59969 16.3106L8.62227 16.3006C8.65893 16.2632 8.6839 16.2434 8.70302 16.195ZM8.30245 16.2841L8.31255 16.32L8.33594 16.3175L8.33691 16.2705L8.30245 16.2841ZM29.0992 16.0105C29.0887 16.0104 29.0745 16.0153 29.0375 16.0223C29.1253 16.0057 29.0843 16.0007 29.1716 16.0476C29.1211 16.0204 29.1135 16.0107 29.0992 16.0105ZM26.696 15.6795C26.744 15.7053 26.7242 15.6988 26.7807 15.7005C26.7839 15.6984 26.7871 15.6965 26.7901 15.6946C26.7871 15.6965 26.7839 15.6984 26.7807 15.7004C26.7242 15.6987 26.744 15.7053 26.696 15.6795ZM7.18386 15.5521C7.16293 15.5385 7.13503 15.542 7.11821 15.5604C7.116 15.5628 7.11415 15.5655 7.11249 15.5682C7.11414 15.5655 7.11598 15.5628 7.11817 15.5604C7.13499 15.5421 7.16292 15.5385 7.18386 15.5522C7.20241 15.5643 7.21052 15.5866 7.2048 15.6072C7.21055 15.5866 7.20244 15.5642 7.18386 15.5521ZM24.9687 15.4111C24.9622 15.4029 24.9476 15.3937 24.9 15.4002L24.8503 15.4654L24.8326 15.495L24.8504 15.4654L24.9 15.4003C24.9475 15.3938 24.9622 15.4029 24.9687 15.4111ZM8.97587 15.3317C8.96332 15.384 8.96749 15.3787 8.94447 15.4261L8.94439 15.4262H8.94451C8.96753 15.3788 8.96336 15.3841 8.97591 15.3318C8.96691 15.314 8.96175 15.3026 8.95771 15.2949L8.95767 15.2949C8.96171 15.3026 8.96688 15.3139 8.97587 15.3317ZM25.0208 15.3908C25.0101 15.3998 25.0021 15.4064 24.9959 15.4111C24.9919 15.4141 24.9887 15.4163 24.9861 15.4179C24.984 15.4192 24.9824 15.4201 24.981 15.4206C24.9801 15.4209 24.9794 15.4212 24.9787 15.4213C24.9749 15.4217 24.9737 15.4184 24.971 15.4141C24.9774 15.4243 24.9751 15.4293 25.0208 15.3909L25.0208 15.3908ZM27.1916 15.3008C27.1672 15.3041 27.143 15.3071 27.1185 15.3101C27.1536 15.3058 27.1881 15.3016 27.2234 15.2963L27.2135 15.397L27.2234 15.2963L27.1916 15.3008ZM25.01 15.2773L24.9928 15.3118L25.0101 15.2774L25.0445 15.2741L25.0445 15.274L25.01 15.2773ZM27.2111 15.1728C27.2107 15.1841 27.2096 15.1953 27.2078 15.2062C27.2069 15.2117 27.2058 15.2172 27.2046 15.2225L27.1628 15.2492L27.2046 15.2226L27.2079 15.2063C27.2096 15.1953 27.2107 15.1841 27.2111 15.1728ZM26.8567 15.1581L26.8582 15.2785L26.8889 15.2993C26.9499 15.2727 26.9468 15.2762 26.9857 15.223L26.9857 15.2229C26.9467 15.2761 26.9499 15.2726 26.8889 15.2992L26.8582 15.2784L26.8567 15.1581ZM27.1818 15.0222C27.1832 15.0255 27.1845 15.0289 27.1858 15.0322C27.1824 15.0236 27.1788 15.0151 27.1748 15.0069L27.1818 15.0222ZM3.46654 15.0169L3.48803 15.0262L3.4665 15.0168L3.46654 15.0169ZM27.1504 14.9647C27.1521 14.9672 27.1538 14.9699 27.1555 14.9725C27.1509 14.9654 27.1462 14.9585 27.1412 14.9521L27.1504 14.9647ZM26.9984 14.938C27.026 14.9397 27.0319 14.9382 27.0412 14.9437C27.0389 14.9423 27.0368 14.9414 27.0346 14.9408C27.0323 14.9401 27.0298 14.9397 27.0268 14.9394C27.0207 14.9389 27.0123 14.9388 26.9984 14.938ZM19.254 14.877C19.2598 14.8802 19.2656 14.8832 19.2715 14.8859C19.2804 14.8899 19.2894 14.8932 19.2986 14.8958C19.3084 14.8985 19.3183 14.9004 19.3283 14.9014C19.3324 14.9018 19.3366 14.9022 19.3407 14.9023C19.3705 14.903 19.4005 14.8956 19.4287 14.8787C19.3723 14.9125 19.3086 14.9083 19.254 14.877ZM26.913 14.2871C26.9159 14.2874 26.9202 14.2876 26.9272 14.2883C26.9167 14.2873 26.9123 14.2872 26.9093 14.2865L26.913 14.2871ZM7.89004 13.0748L7.88481 13.0936L7.90248 13.0913L7.90538 13.0702L7.89004 13.0748ZM7.94064 12.4044C7.89615 12.4068 7.85659 12.4075 7.81203 12.4078L7.81207 12.4078C7.85662 12.4075 7.89616 12.4068 7.94064 12.4044ZM10.822 12.0961L10.8372 12.1118L10.8265 12.095L10.822 12.0961ZM8.07216 12.0095C8.08105 12.015 8.08755 12.0189 8.09281 12.0222C8.10332 12.0288 8.10883 12.0326 8.11857 12.0407C8.10398 12.0286 8.09885 12.0259 8.07216 12.0095ZM8.05251 11.848C8.04108 11.8684 8.02997 11.8854 8.0195 11.9008L8.03564 11.8763C8.04116 11.8676 8.0468 11.8582 8.05251 11.848ZM16.1429 11.2966C16.1582 11.3518 16.1498 11.3405 16.2048 11.3877L16.2878 11.4037L16.2877 11.4035L16.2048 11.3876C16.1419 11.3337 16.1619 11.3561 16.1347 11.2685L16.1429 11.2966ZM9.63946 10.4285C9.64711 10.4288 9.65867 10.4283 9.67931 10.4298L9.69279 10.4309C9.68303 10.43 9.67487 10.4294 9.668 10.4291C9.65424 10.4285 9.64558 10.4287 9.63946 10.4285ZM19.9292 10.0877C19.9478 10.0889 19.9627 10.0909 19.9748 10.0939C19.9788 10.0949 19.9825 10.096 19.986 10.0973L19.9859 10.0972C19.9756 10.0935 19.9628 10.0909 19.9466 10.0891L19.9292 10.0877ZM13.9298 9.90833C13.9131 9.9332 13.9244 9.92217 13.8936 9.93888V9.939C13.9244 9.92226 13.9131 9.93329 13.9299 9.90841L13.9454 9.87485L13.9453 9.87481L13.9298 9.90833ZM19.0765 9.7565C19.0778 9.75961 19.0787 9.76287 19.0794 9.76627C19.0848 9.79349 19.0683 9.82024 19.0411 9.82773C19.0217 9.83314 19.0007 9.82726 18.9869 9.81256C18.9835 9.80888 18.9807 9.80481 18.9785 9.80048L18.9785 9.8006C18.9807 9.80494 18.9836 9.80899 18.987 9.81267C19.0008 9.82738 19.0218 9.83326 19.0411 9.82785C19.0683 9.82036 19.0848 9.79361 19.0795 9.76639C19.0788 9.763 19.0778 9.75972 19.0766 9.75662L19.0765 9.7565ZM17.3041 9.79194L17.3142 9.82026L17.3346 9.80548L17.3311 9.77903L17.3041 9.79194ZM19.2604 9.68364C19.261 9.69292 19.259 9.70246 19.254 9.71113C19.245 9.72671 19.2283 9.73629 19.2101 9.73608C19.192 9.7359 19.1753 9.72594 19.1669 9.71018L19.1641 9.70426C19.1649 9.70631 19.1658 9.70834 19.1669 9.7103C19.1753 9.72606 19.192 9.73598 19.2102 9.73616C19.2283 9.73636 19.245 9.72683 19.254 9.71125C19.2598 9.70113 19.2616 9.68981 19.2598 9.67912L19.2604 9.68364ZM15.7474 9.43265C15.7479 9.45199 15.7353 9.46071 15.7082 9.51032C15.6965 9.49752 15.691 9.49219 15.6881 9.48791C15.691 9.4922 15.6965 9.49758 15.7083 9.5104C15.7353 9.46078 15.7479 9.452 15.7474 9.43265ZM7.78393 9.40818L7.78872 9.43138L7.81062 9.42292L7.79835 9.39893L7.78393 9.40818ZM26.3144 8.13814C26.3588 8.14937 26.4029 8.16125 26.447 8.17382L26.3808 8.15546C26.3587 8.14951 26.3366 8.14375 26.3144 8.13814ZM17.4828 7.94571L17.462 7.97697L17.4958 7.97399L17.5158 7.94269L17.4828 7.94571ZM18.0899 7.87082C18.1104 7.88295 18.1399 7.88996 18.1815 7.9034L18.1815 7.90336C18.1696 7.89952 18.1587 7.89621 18.1487 7.89315C18.1337 7.88856 18.1208 7.88455 18.1097 7.8802C18.106 7.87875 18.1025 7.87727 18.0992 7.87571C18.0959 7.87415 18.0928 7.87252 18.0899 7.87079L18.0899 7.87082ZM17.4948 7.80397L17.4795 7.83185L17.5075 7.83309L17.5162 7.79936L17.4948 7.80397ZM15.5411 7.75181C15.593 7.77681 15.5762 7.76547 15.6163 7.80599C15.5761 7.76541 15.593 7.77682 15.5411 7.75181ZM19.4581 7.63422C19.446 7.63121 19.4334 7.63307 19.4227 7.63882C19.4334 7.63309 19.446 7.63126 19.4581 7.63426C19.476 7.63873 19.4898 7.65295 19.4937 7.67084C19.4959 7.68124 19.4945 7.6918 19.4901 7.70108C19.4945 7.69178 19.496 7.68118 19.4938 7.67076C19.4898 7.65287 19.476 7.63869 19.4581 7.63422ZM14.9668 7.58706L14.9415 7.61932L14.9772 7.60323L15.0099 7.5668L14.9668 7.58706ZM10.2238 7.07265C10.1328 7.11848 10.1035 7.10102 10.0434 7.19802C10.1035 7.10105 10.1328 7.11852 10.2238 7.07269C10.2261 7.07421 10.2285 7.07698 10.2312 7.08047C10.2285 7.07696 10.226 7.07418 10.2238 7.07265ZM9.991 6.72858C9.98543 6.73922 9.98088 6.7498 9.97719 6.76028C9.98088 6.74983 9.98544 6.73927 9.991 6.72866C10.0947 6.76525 10.1493 6.80548 10.1585 6.86361C10.1493 6.80544 10.0948 6.76518 9.991 6.72858ZM10.4755 6.71186C10.457 6.76299 10.4785 6.74879 10.4489 6.82122L10.4489 6.82126C10.4786 6.74878 10.457 6.76295 10.4755 6.71186ZM10.4336 6.68607L10.4815 6.69624C10.4805 6.69881 10.4795 6.70127 10.4786 6.70359C10.4796 6.70126 10.4805 6.69879 10.4816 6.6962L10.4336 6.68603L10.4336 6.68607ZM10.0354 6.57218C10.0196 6.59112 10.007 6.60883 9.99909 6.6301C10.007 6.60886 10.0196 6.59118 10.0353 6.57226L10.0354 6.57218ZM10.0842 6.51374C10.0729 6.52835 10.062 6.54108 10.0518 6.55283C10.0619 6.54109 10.0729 6.52841 10.0842 6.51382C10.0902 6.52786 10.0961 6.54188 10.1021 6.55589L10.1021 6.55581C10.0961 6.5418 10.0902 6.52778 10.0842 6.51374ZM20.8474 6.3144L20.8567 6.33974L20.8705 6.33136L20.8544 6.31261L20.8474 6.3144ZM14.6952 5.92047C14.6856 5.93276 14.6783 5.94163 14.6727 5.94848C14.6783 5.94164 14.6857 5.93281 14.6952 5.92055L14.7264 5.91777C14.7394 5.95829 14.7413 5.96132 14.7368 5.977C14.7413 5.96126 14.7394 5.95827 14.7264 5.91769L14.6952 5.92047ZM18.6071 5.93017L18.6135 5.94848L18.6217 5.9457L18.6207 5.92119L18.6071 5.93017ZM15.7888 5.59659C15.7993 5.68644 15.7946 5.74346 15.7906 5.83335L15.7536 5.81548L15.7536 5.81556L15.7907 5.83343C15.7946 5.74353 15.7993 5.68649 15.7888 5.59663L15.7888 5.59659ZM15.5627 5.60346L15.6035 5.68132V5.68124L15.5627 5.60346ZM14.7293 5.62316C14.7552 5.7026 14.7313 5.67683 14.7863 5.71759C14.7313 5.67686 14.7552 5.70261 14.7293 5.62316L14.7966 5.56771C14.8586 5.57255 14.8677 5.58741 14.9185 5.62404L14.9288 5.64708C14.9557 5.70569 14.9613 5.73773 15.0176 5.76614L15.0693 5.76677V5.76669L15.0176 5.76614C14.9613 5.73773 14.9557 5.70564 14.9288 5.64704L14.9185 5.62404C14.8677 5.58741 14.8586 5.57251 14.7967 5.56767L14.7293 5.62316ZM13.1912 5.56969C13.1906 5.61789 13.1923 5.65918 13.216 5.70766C13.1844 5.64303 13.1919 5.59112 13.1919 5.51864L13.1912 5.56969ZM13.9848 5.56326C13.9908 5.56663 13.9975 5.56882 14.0046 5.56957L13.9976 5.56834C13.9908 5.56666 13.9845 5.56362 13.9791 5.55948L13.9848 5.56326ZM13.9656 5.54411C13.9679 5.54813 13.9707 5.55178 13.9739 5.55499L13.9694 5.54983C13.968 5.54801 13.9668 5.54612 13.9656 5.54411ZM18.713 5.54637L18.7621 5.44444L18.762 5.4444L18.713 5.54637ZM18.5524 5.46668L18.5203 5.50287L18.5203 5.50283L18.5524 5.46668ZM15.0332 5.37047L14.9892 5.39982L14.9519 5.42346L14.9519 5.42362L14.9892 5.3999L15.0334 5.37043L15.0332 5.37047ZM18.0279 5.345L18.0145 5.37424L18.0386 5.36828L18.0514 5.34238L18.0279 5.345ZM14.1791 5.34385C14.1757 5.34462 14.1706 5.34655 14.1589 5.34965C14.1744 5.34552 14.1783 5.34347 14.1822 5.34349C14.1813 5.34349 14.1803 5.3436 14.1791 5.34385ZM14.7001 5.32891C14.7378 5.33225 14.7579 5.33399 14.7961 5.33428L14.824 5.29999L14.7961 5.3342C14.758 5.33391 14.7378 5.33225 14.7001 5.32891ZM16.0446 5.25451C16.05 5.26392 16.055 5.27349 16.0599 5.28299C16.0529 5.26937 16.0455 5.25565 16.0374 5.24235L16.0446 5.25451ZM16.0047 5.19643C16.0138 5.20713 16.0221 5.21855 16.0298 5.23039L16.0219 5.21867C16.0138 5.20715 16.005 5.19616 15.9955 5.18598L16.0047 5.19643ZM15.1975 4.95453C15.1983 5.02924 15.1205 5.1464 15.0812 5.21788L15.0812 5.21796C15.1205 5.14648 15.1984 5.0293 15.1976 4.95457L15.1975 4.95453ZM15.9409 5.14343C15.945 5.14562 15.9491 5.14795 15.953 5.15042C15.9609 5.15537 15.9683 5.16087 15.9754 5.16683C15.9648 5.15789 15.9534 5.14994 15.9409 5.14339L15.9409 5.14343ZM15.6217 5.05389C15.6216 5.05016 15.6214 5.04643 15.6211 5.04269C15.6216 5.05016 15.6219 5.05761 15.6219 5.06505L15.6217 5.05389ZM15.5254 5.0378C15.5272 5.042 15.5292 5.04611 15.5312 5.05016L15.5254 5.0378C15.5237 5.0336 15.5221 5.02933 15.5207 5.02497L15.5254 5.0378ZM17.0343 4.76651C17.0741 4.76763 17.3521 4.79885 17.3847 4.80719C17.3023 4.83442 17.5718 4.94824 17.4877 4.99025C17.4513 4.94562 17.044 4.82285 17.0343 4.76651ZM20.1904 4.35995L20.1934 4.39174L20.2287 4.37938L20.2237 4.34696L20.1904 4.35995ZM20.6548 2.68908C20.6553 2.69092 20.6557 2.69278 20.656 2.69464C20.6557 2.6928 20.6554 2.69097 20.6549 2.68916L20.6548 2.68908Z" fill="#F9EFE6"/>
</g>
<defs>
<clipPath id="clip0_8216_26367">
<rect width="32" height="32" fill="white"/>
</clipPath>
</defs>
</svg>
