<svg width="512" height="512" viewBox="0 0 512 512" fill="none" xmlns="http://www.w3.org/2000/svg">
<rect width="512" height="512" fill="white"/>
<path d="M388.208 448.182C391.623 447.532 404.692 447.037 407.558 447.381C424.135 449.464 440.864 454.34 455.789 461.792C462.355 465.069 469.55 469.316 475.928 473.081C483.028 477.27 495.562 482.193 501.544 487.28C502.388 489.821 503.394 504.216 500.551 504.408C476.165 506.035 451.783 505.534 427.367 505.716L406.338 505.911C403.364 505.934 398.298 506.152 395.462 505.837C395.462 505.837 392.587 505.818 392.587 505.837C392.566 505.839 391.229 505.982 390.093 505.837C381.315 506.315 372.214 506.217 363.399 506.23L327.97 506.302C302.647 506.321 277.146 506.949 251.774 506.878C248.899 506.835 247.148 507.128 244.153 506.819C231.531 507.324 219.2 506.803 206.74 506.891L123.282 507.2C123.313 507.179 123.343 507.156 123.374 507.133L123.072 507.126C122.647 506.274 122.229 505.414 121.82 504.552C122.174 504.144 122.108 504.227 122.54 504.03C122.108 504.227 122.174 504.144 121.82 504.552L121.766 504.34C121.707 504.395 121.635 504.476 121.517 504.613C121.926 505.475 122.343 506.334 122.769 507.187C121.599 507.239 119.878 507.109 118.664 507.06L117.023 507.183C91.1407 506.044 64.9381 508.056 39.0312 506.764C29.9779 506.315 13.6897 508.472 5.75795 505.986C5.69695 505.644 5.63787 505.302 5.58083 504.961C4.84843 500.577 3.9349 487.133 6.355 482.662C7.26006 480.989 13.4762 483.255 15.7861 483.655C34.2703 486.87 51.131 486.301 69.5041 483.928C99.5279 480.055 124.723 468.447 155.532 470.159C173.642 471.164 184.739 475.802 201.366 480.215C224.782 486.255 249.107 488.106 273.183 485.679C297.935 482.958 320.556 473.608 343.198 463.702C361.955 455.495 365.355 450.132 387.057 448.179L387.366 448.202C387.363 448.175 387.362 448.147 387.359 448.118L388.208 448.182ZM116.37 506.204C116.488 506.205 116.595 506.204 116.692 506.204C116.686 506.185 116.681 506.164 116.674 506.144L117.181 504.236L116.965 503.968L116.37 506.204ZM99.6613 499.97C99.5603 499.984 99.4656 499.997 99.376 500.012L99.3586 500.031C99.1858 501.879 98.9307 501.791 99.9312 502.989C99.9898 502.907 100.043 502.829 100.093 502.756C99.2597 501.734 99.4972 501.725 99.6613 499.97ZM102.773 499.593L103.26 500.001C103.034 500.928 102.989 500.581 103.234 501.42L104.061 501.752L104.208 501.627L103.537 501.359C103.292 500.519 103.338 500.867 103.563 499.94L103.001 499.468C102.909 499.52 102.834 499.56 102.773 499.593ZM124.035 500.949L124.177 500.959L124.662 500.745C124.633 500.734 124.603 500.723 124.573 500.711L124.035 500.949ZM127.11 500.628C126.872 500.61 126.631 500.794 126.251 500.9C126.631 500.857 126.891 500.713 127.11 500.628ZM100.966 500.094C101.256 500.133 101.449 500.199 101.783 500.323C101.823 500.275 101.856 500.23 101.888 500.19C101.583 500.082 101.381 500.032 100.989 500.005C100.981 500.035 100.974 500.065 100.966 500.094ZM102.109 498.202L102.4 498.374L102.436 497.708C102.373 497.617 102.284 497.527 102.151 497.44L102.109 498.202ZM165.758 487.456C164.888 488.045 165.151 487.921 164.723 489.138C153.206 488.273 140.202 488.725 128.718 490.821C126.168 491.286 121.124 493.548 118.797 494.827C118.271 495.152 118.226 495.64 118.1 496.164L118.383 496.74C126.086 498.891 139.638 495.087 147.912 495.198C155.94 495.305 163.808 496.35 171.867 495.393C174.197 495.117 181.92 492.926 180.567 489.717C179.702 489.154 179.421 488.924 178.415 488.592C178.251 489.376 178.076 490.154 177.965 490.948C178.402 491.267 178.689 491.478 179.11 491.823C177.988 492.155 168.44 489.822 166.641 489.415C166.633 489.377 166.627 489.341 166.62 489.306L165.027 489.077C165.414 487.972 165.235 487.972 165.847 487.542C165.819 487.514 165.789 487.486 165.758 487.456ZM112.539 493.521L112.181 494.019L112.54 493.521L112.539 493.521ZM113.368 490.35L113.69 490.795L113.519 491.758C114.193 491.931 113.909 491.911 114.36 491.908L114.443 491.849C114.294 491.849 114.336 491.829 113.822 491.698L113.994 490.735L113.661 490.276C113.552 490.304 113.456 490.328 113.368 490.35ZM111.725 489.457L111.901 490.427C112.393 490.541 112.633 490.516 113.006 490.425C112.774 490.457 112.552 490.448 112.205 490.367L112.035 489.433C111.936 489.441 111.833 489.451 111.725 489.457ZM189.846 486.577L189.736 486.964L189.971 486.948L190.338 486.437L189.846 486.577ZM349.829 486.122L349.958 486.46L350.196 486.356L350.044 485.978L349.829 486.122ZM350.826 481.784L351.092 481.917L350.901 481.747L350.826 481.784ZM406.377 466.706L407.116 467.757C403.067 467.702 398.908 466.426 394.826 466.677C391.967 466.931 389.107 467.165 386.301 467.787C377.114 469.83 359.383 476.052 352.408 481.881C357.305 481.578 362.163 480.811 367.036 480.264C372.379 479.665 377.761 479.284 383.119 478.835C386.826 478.522 390.641 477.956 394.358 478.096C400.224 478.109 406.091 478.213 411.951 478.405C415.819 478.568 432.233 479.928 434.687 479.317C434.499 477.96 433.022 476.974 431.96 476.173C424.782 470.767 415.72 466.97 406.641 466.436L406.377 466.706ZM185.158 476.713L184.751 477.364L185.33 477.084L185.612 476.603L185.158 476.713ZM397.438 411.099C416.102 402.726 437.863 401.047 457.926 404.464C470.154 406.55 480.551 412.729 491.612 417.803C496.047 419.837 499.354 420.648 502.052 424.839C502.177 428.318 502.767 448.901 501.501 450.942C496.983 452.267 477.383 444.994 473.623 449.677C474.31 453.367 495.625 458.388 500.014 457.526C502.032 457.129 502.148 463.126 501.742 464.503C494.965 471.181 455.295 449.439 446.434 446.123C424.412 437.886 402.859 439.523 380.106 442.917C353.408 447.069 330.542 464.23 304.58 471.126C285.711 476.206 266.268 477.566 246.825 476.242C218.422 475.08 192.95 462.082 166.95 452.17C164.057 451.066 161.222 449.303 158.352 448.261C138.631 441.105 117.174 435.553 96.0185 438.019C91.3141 438.566 85.9403 438.723 81.3549 439.666C67.2863 442.563 53.2777 445.895 38.8779 446.748C37.301 446.565 36.9837 446.403 35.6672 445.527C36.4079 446.02 36.8315 446.287 37.3418 446.458C37.3985 446.478 37.4563 446.496 37.5157 446.513C37.872 446.614 38.2865 446.679 38.8779 446.748C37.1656 446.907 35.9434 446.997 34.1962 447.001C27.0561 447.606 13.6199 447.428 6.83999 445.801C6.00239 441.231 5.2414 423.967 7.06927 420.136C9.19427 418.532 14.1498 420.755 16.6118 421.396C21.4035 422.639 26.1929 424.384 31.0093 425.549C49.4522 430.013 69.0448 427.524 86.8044 421.451C94.7939 418.685 101.178 416.121 109.551 414.071L111.802 413.534C136.633 408.317 154.188 419.001 174.306 431.638C177.773 433.815 180.069 435.426 183.287 438.01C173.765 435.615 164.902 431.93 156.22 429.968C163.469 441.391 194.034 452.231 207.771 454.809C239.496 460.764 277.18 466 308.121 453.881C327.254 446.386 345.068 440.037 363.08 430.511C374.417 424.224 385.626 416.524 397.438 411.099ZM97.3407 446.72C114.106 445.988 124.988 447.179 141.259 450.319C145.375 451.113 151.579 451.995 154.902 454.605C155.555 455.119 155.699 455.422 155.771 456.22C154.113 457.557 136.084 458.683 132.237 459.227C123.637 460.437 114.979 463.031 106.546 465.094C92.329 468.57 78.1472 471.544 63.5361 472.804C57.2818 473.546 50.6416 472.693 44.4665 471.639C36.6699 470.315 29.2454 468.075 21.6388 466.022C17.8271 464.996 13.5907 464.248 10.0165 462.592C8.98902 462.117 7.94627 461.466 7.32433 460.502C6.62853 459.425 6.73421 458.419 7.00165 457.228C8.43029 455.601 21.7509 457.873 24.6768 458.107C41.5469 459.465 53.0108 455.182 68.9611 451.605C78.361 449.5 87.7879 447.977 97.3407 446.72ZM68.9643 469.123L68.9566 469.386L69.115 469.345L69.3334 468.957L68.9643 469.123ZM75.4817 466.812L75.0347 466.978L75.0353 466.979L75.4817 466.812L75.5763 466.178H75.5751L75.4817 466.812ZM58.8035 465.247C59.0142 465.182 59.2518 465.153 59.4269 465.019L59.4257 465.017C59.2507 465.15 59.0139 465.18 58.8035 465.245L58.6979 464.921L58.8035 465.247ZM495.45 461.915C495.468 461.865 495.489 461.814 495.509 461.758C496.488 461.788 497.029 461.808 497.916 462.286C497.969 462.632 497.977 462.821 497.938 462.978C497.977 462.82 497.97 462.631 497.917 462.284C497.03 461.806 496.489 461.786 495.509 461.757C495.489 461.812 495.469 461.865 495.45 461.915ZM11.7575 460.948C12.5277 462.054 13.2872 462.569 14.6345 462.842C15.2182 462.963 15.7171 462.976 16.3104 462.894L16.092 462.92C15.5913 462.97 15.1458 462.947 14.6352 462.842C13.2879 462.568 12.5277 462.054 11.7575 460.948ZM476.617 456.157L476.987 456.267C476.74 456.196 476.494 456.121 476.248 456.042L476.617 456.157ZM474.571 453.555C474.584 453.698 474.585 453.842 474.58 453.989C474.572 454.284 474.541 454.595 474.533 454.945C474.546 454.42 474.608 453.983 474.571 453.555ZM6.72277 365.526C11.0492 362.008 33.6466 362.535 40.0875 363.079C67.4921 365.402 91.5426 378.443 117.575 385.687C133.778 390.393 150.288 392.732 166.052 398.968C184.222 406.16 200.811 421.058 220.491 424.589C238.926 427.896 264.308 430.734 282.729 428.146C302.31 425.296 321.259 419.184 338.763 410.069C352.771 402.831 362.865 396.544 377.926 390.79C395.311 384.148 410.638 377.115 429.929 376.851C445.909 375.478 462.273 376.451 477.705 381.062C483.384 382.758 496.808 385.759 500.97 389.654C502.813 391.382 502.645 409.525 501.497 412.063C500.677 412.13 488.544 406.254 486.846 405.476C460.211 393.26 431.024 389.13 402.918 399.622C369.721 412.018 341.348 435.908 305.974 443.299C300.365 444.477 294.99 445.121 289.285 445.749C275.102 447.256 260.79 447.155 246.63 445.447L245.198 445.167C229.238 442.602 213.058 438.593 198.569 431.3C179.376 421.637 162.831 404.575 140.575 401.916C131.893 400.878 118.473 401.246 110.056 403.264C101.137 405.405 93.2866 409.304 84.7775 412.493C73.0808 416.873 60.7205 417.954 48.356 417C45.7922 416.805 43.2779 416.841 40.7625 416.252C34.6747 414.827 9.87195 410.371 6.9849 405.372C5.57857 402.935 6.73767 398.691 7.35266 396.117C12.1441 397.692 17.888 398.913 22.8226 400.1C35.7871 403.228 47.5847 405.363 60.9875 404.211C68.487 403.57 75.892 402.144 83.405 401.5C87.0297 401.188 89.7137 402.089 93.0551 401.838C84.9231 394.35 75.8496 397.478 65.8103 396.514C51.6432 395.164 37.5259 393.276 23.3732 391.671C19.085 391.183 11.1893 388.499 7.11114 387.112C5.27699 386.487 6.26472 367.42 6.72277 365.526ZM457.033 420.013C457.201 422.389 457.91 423.062 459.677 424.572C462.589 427.062 465.778 429.324 468.828 431.647C478.55 439.038 482.095 440.398 494.141 442.715C493.831 441.632 493.541 440.593 492.789 439.715C488.858 435.123 477.013 429.473 471.371 426.362C466.965 423.931 462.015 420.96 457.033 420.013ZM301.173 440.155L301.035 440.503L301.301 440.513L301.272 440.142L301.173 440.155ZM417.072 437.863L417.164 438.527L417.662 438.423L417.514 437.726L417.072 437.863ZM424.007 437.183L424.337 437.499L424.498 437.362L424.389 436.997L424.007 437.183ZM300.744 437.222L300.249 437.372L300.25 437.372L300.744 437.223L301.051 436.784H301.592L301.59 436.783L301.051 436.784L300.744 437.222ZM298.295 435.861L298.294 435.863L299.303 435.619L299.303 435.618L298.295 435.861ZM100.242 426.472C100.483 426.831 100.79 427.113 101.083 427.398C101.132 427.445 101.18 427.493 101.228 427.541C101.49 427.805 101.73 428.084 101.887 428.441L101.842 428.345C101.438 427.534 100.598 427.125 100.128 426.285L100.242 426.472ZM384.266 426.382L383.914 426.268C384.033 426.307 384.151 426.34 384.266 426.382ZM98.6694 427.073C98.615 427.193 98.569 427.318 98.5316 427.454C98.5446 427.407 98.5584 427.361 98.5735 427.316C98.5877 427.274 98.6026 427.233 98.6186 427.193C98.6346 427.153 98.6517 427.112 98.6694 427.073ZM455.103 425.605C455.518 425.803 455.809 426.024 456.168 426.304H456.169C455.81 426.024 455.519 425.802 455.104 425.604L455.103 425.605ZM154.006 425.015L153.281 425.053L153.282 425.054L154.006 425.015ZM132.971 421.72C133.3 421.885 133.539 422.065 133.806 422.282C133.578 422.096 133.371 421.938 133.111 421.793L132.971 421.72ZM129.424 421.763L129.399 421.95L129.424 421.765L129.933 421.404L130.277 421.521L130.118 422.242L130.278 421.519L129.933 421.402L129.424 421.763ZM84.6648 344.268C86.8156 343.627 94.789 344.252 97.3272 344.304C119.466 344.412 135.22 355.929 153.458 366.411C174.428 378.462 199.418 388.495 223.114 393.891C236.783 397.005 249.463 397.549 263.32 397.718C284.847 397.982 304.85 394.141 325.124 387.047C331.406 384.661 339.139 382.673 345.072 379.588C367.057 368.145 387.97 352.16 412.828 347.392C418.384 346.328 425.399 346.381 431.117 346.628C439.377 346.963 447.582 348.102 455.611 350.025C469.966 353.488 484.878 358.142 499.179 361.982C503.193 363.056 502.487 376.304 501.548 379.721C500.103 380.31 492.703 375.839 490.642 375.077C486.253 373.46 482.016 372.282 477.537 371.009C471.43 369.275 465.471 366.87 459.199 365.686C451.222 364.078 441.962 363.889 433.801 364.169C428.109 364.364 417.55 364.768 412.151 366.011C394.565 370.056 376.118 377.268 360.115 385.436C350.031 390.584 340.524 396.384 330.539 401.252C314.967 408.845 299.383 414.142 282.235 416.935C275.204 418.08 268.005 418.992 260.892 419.552C256.622 419.887 251.923 419.714 247.771 420.043C237.792 420.834 228.34 422.364 218.347 420.138C213.582 419.073 209.511 415.64 205.344 413.225C200.129 410.202 194.016 407.188 189.007 403.94C179.151 397.552 170.756 391.375 159.622 387.07C145.357 381.553 130.721 378.475 115.993 374.602C109.86 372.991 102.051 370.55 95.9966 368.63C89.6212 366.609 83.8627 364.377 77.3733 362.522C69.9015 360.387 54.3276 357.686 48.4314 353.53C55.1416 349.088 72.4824 345.831 80.9562 344.588L84.6648 344.268ZM286.595 411.454C286.476 411.628 286.368 411.78 286.271 411.933C286.368 411.781 286.476 411.628 286.594 411.456C286.706 411.557 286.798 411.677 286.927 411.755C287.062 411.836 287.224 411.869 287.369 411.924C287.916 412.594 287.682 413.329 287.655 414.165L287.656 414.165C287.683 413.329 287.917 412.594 287.369 411.924C287.224 411.868 287.063 411.835 286.928 411.754C286.799 411.676 286.707 411.555 286.595 411.454ZM293.52 412.138L293.556 412.135L293.282 411.868L293.52 412.138ZM490.072 400.611C492.139 402.804 492.126 401.043 493.596 401.998C492.125 401.041 492.139 402.805 490.072 400.611ZM212.627 400.149L212.766 400.442L212.903 400.4L212.84 400.019L212.627 400.149ZM98.5535 396.289C98.4481 396.587 98.3474 396.838 98.2701 397.081L98.3545 396.835C98.4151 396.666 98.4833 396.488 98.5535 396.289C98.9518 396.415 99.0033 396.388 99.0707 396.495C99.0842 396.516 99.0982 396.542 99.1158 396.577C99.151 396.645 99.2005 396.744 99.2871 396.892C98.9402 396.3 99.1906 396.491 98.5535 396.289ZM105.513 395.134C105.535 395.356 105.577 395.589 105.622 395.86C106.35 396.293 105.601 395.935 106.666 396.068C107.131 396.127 107.816 396.546 108.253 396.748C108.443 396.408 108.686 396.01 108.926 395.582C108.686 396.009 108.443 396.407 108.254 396.747C107.816 396.545 107.131 396.125 106.666 396.067C105.601 395.933 106.35 396.292 105.622 395.859C105.592 395.678 105.564 395.514 105.542 395.359L105.513 395.134ZM106.379 392.886C106.458 393.198 106.613 393.523 106.876 394.037C106.651 393.596 106.505 393.294 106.418 393.02L106.379 392.886ZM109.77 393.65C109.752 393.723 109.729 393.796 109.707 393.87C109.729 393.797 109.752 393.724 109.77 393.651V393.65ZM487.895 392.537C486.53 392.853 485.254 393.143 483.971 393.716L484.212 393.611C485.414 393.107 486.615 392.833 487.895 392.537ZM83.4482 275.794C95.002 272.657 107.058 271.74 118.963 273.087C138.666 275.124 154.446 283.699 170.567 294.299C175.671 297.654 180.909 300.967 185.585 304.865C206.082 321.954 220.318 337.467 246.398 346.739C266.383 353.84 287.234 356.682 308.487 353.444C313.219 352.721 324.346 349.339 328.006 350.888L328.115 351.413C326.16 353.401 313.922 358.504 310.948 359.265C295.897 363.109 279.036 366.487 263.547 366.949C246.035 367.47 230.795 365.282 214.582 358.966C203.028 354.462 192.588 350.407 182.147 343.342C174.705 338.968 166.638 332.71 158.916 329.345C156.755 328.401 148.175 325.791 146.202 327.444C147.281 329.257 155.39 333.806 157.497 335.421C168.727 344.035 179.01 353.17 192.564 358.192C199.339 360.873 206.575 362.227 213.457 364.587C217.401 365.94 221.252 368.485 225.184 370.086C248.988 379.787 274.776 375.752 299.756 375.873C313.019 375.934 326.905 373.09 339.594 369.757C340.263 369.565 341.009 369.696 341.652 369.972C343.185 373.012 322.126 380.038 319.004 380.998C299.528 386.996 281.051 389.912 260.691 388.734C241.677 387.848 220.606 386.185 202.749 379.091C187.053 372.855 171.264 363.402 156.636 354.973C135.885 343.016 111.035 335.102 86.6627 337.513C80.7573 337.588 77.0812 338.128 71.3113 339.111C64.3441 340.51 57.414 342.085 50.5278 343.833C44.3327 345.457 11.612 355.907 7.99029 354.553C7.26811 354.283 6.87699 353.603 6.64483 352.913C5.68794 350.075 5.83081 332.828 7.53945 330.422C8.44886 329.14 13.5671 330.519 15.0287 330.816L15.8743 330.988C30.1657 333.914 64.5204 336.469 77.8261 332.43C110.797 322.42 143.371 307.983 177.015 326.162C179.127 327.305 187.428 333.5 189.198 333.367C190.687 329.917 178.672 320.46 175.985 318.56C167.454 312.422 158.989 308.432 149.485 304.075C129.945 295.115 108.602 290.644 87.0511 293.02C76.2747 294.208 65.0488 299.079 54.0786 300.387C45.839 301.591 40.4732 301.894 31.7738 301.823C27.6093 301.787 7.54918 300.934 6.91019 293.866C6.42478 288.493 16.0108 289.876 18.9691 290.901C19.587 291.116 23.0215 291.33 24.2563 291.415C24.7499 291.438 26.1255 291.457 26.5195 291.578C29.2739 291.919 32.0108 291.623 34.7636 291.409C52.1675 290.058 66.9191 280.425 83.4482 275.794ZM103.259 385.755C103.265 385.779 103.271 385.803 103.279 385.826C103.287 385.849 103.297 385.871 103.311 385.892C103.386 386.01 103.459 386.101 103.529 386.18C103.634 386.299 103.732 386.391 103.825 386.509C103.671 386.313 103.5 386.188 103.311 385.892C103.284 385.85 103.27 385.803 103.259 385.755ZM11.5752 382.156L12.0305 382.224L12.1387 381.671L11.8322 381.648L11.5752 382.156ZM144.968 373.802L144.856 374.443L145.196 374.092L145.23 373.662L144.968 373.802ZM126.956 371.335C127.602 371.641 128.163 371.876 128.696 372.358C129.093 372.719 128.989 372.849 129.025 373.343L128.278 374.186L129.026 373.343C128.989 372.848 129.094 372.718 128.697 372.357C128.164 371.875 127.602 371.641 126.956 371.335ZM137.651 369.984L137.726 370.505L138.026 370.401L138.119 369.672L137.651 369.984ZM106.776 369.403L107.016 370.268H107.017L106.776 369.403ZM114.798 365.755L115.389 365.843C116.21 366.464 116.236 366.819 116.58 367.758L116.58 367.758C116.236 366.818 116.211 366.463 115.389 365.841L114.798 365.754V365.755ZM204.103 364.394C204.156 364.419 204.202 364.452 204.243 364.489C204.285 364.526 204.321 364.568 204.353 364.614C204.547 364.891 204.59 365.315 204.689 365.625C204.557 365.211 204.524 364.596 204.103 364.394ZM202.635 364.166C202.929 364.164 203.227 364.169 203.513 364.216L203.39 364.198C203.142 364.168 202.887 364.164 202.635 364.166ZM110.808 363.374C110.92 363.469 111.013 363.635 111.16 363.641L110.808 363.374ZM416.323 315.324C426.73 314.803 437.639 314.741 447.931 316.87C464.168 319.512 484.38 328.077 500.554 325.822C502.899 335.787 501.141 334.254 491.789 336.044C485.781 337.193 479.499 338.518 473.527 339.605C469.761 340.292 463.264 338.521 459.627 337.434C459.698 337.32 459.754 337.224 459.8 337.136C459.754 337.223 459.698 337.319 459.628 337.433C458.223 336.795 456.215 336.382 454.649 335.916L454.648 335.918L454.212 335.641C446.377 330.704 426.509 333.327 417.513 335.156C401.226 338.466 387.314 346.878 372.966 354.728C365.163 358.984 360.092 361.903 350.621 361.51C343.755 361.223 339.745 356.472 344.764 350.943C349.985 345.196 359.201 341.492 365.678 337.148C381.784 326.207 396.053 316.336 416.323 315.324ZM133.53 359.439L133.53 359.44L134.791 358.595C136.074 359.334 136.008 359.048 136.648 360.147L136.455 360.918L136.648 360.146C136.008 359.046 136.074 359.333 134.791 358.594L133.53 359.439ZM94.1011 360.477C94.1932 360.53 94.2856 360.579 94.3812 360.625C94.2377 360.556 94.1018 360.481 93.9626 360.393L94.1011 360.477ZM133.891 359.794L134.195 359.58L133.532 359.442L133.891 359.794ZM128.538 359.159C128.757 359.366 128.943 359.53 129.132 359.687L128.943 359.526C128.752 359.361 128.553 359.176 128.307 358.936L128.538 359.159ZM93.2354 359.228C93.2548 359.365 93.2623 359.472 93.2696 359.561L93.2573 359.413C93.2522 359.358 93.2451 359.297 93.2354 359.228ZM290.396 358.246C290.466 358.548 290.377 358.87 290.155 359.098C289.829 359.43 289.305 359.476 288.929 359.202C288.881 359.168 288.838 359.131 288.799 359.09L288.744 359.029C288.796 359.094 288.858 359.153 288.929 359.204C289.305 359.477 289.829 359.431 290.156 359.099C290.378 358.871 290.466 358.549 290.397 358.248L290.396 358.246ZM126.35 357.442C126.345 357.447 126.341 357.453 126.336 357.459C126.361 357.431 126.387 357.404 126.415 357.38L126.35 357.442ZM127.528 356.784C127.2 356.965 126.947 357.073 126.748 357.172C126.947 357.073 127.201 356.966 127.529 356.785L127.528 356.784ZM95.0169 353.28L95.073 354.015L95.6436 353.791L95.6166 353.201L95.0169 353.28ZM497.947 340.116C503.521 338.495 501.774 349.5 501.613 352.549C494.345 351.276 480.755 346.405 474.305 343.241C479.119 342.805 483.918 342.213 488.693 341.464C491.051 341.098 494.593 340.326 496.906 340.121L497.352 340.088L497.353 340.086L497.943 340.115L497.947 340.116ZM87.871 351.049C87.8644 351.093 87.8537 351.137 87.8388 351.18C87.8313 351.202 87.8226 351.223 87.813 351.244C87.7939 351.286 87.7704 351.327 87.7428 351.366C87.5996 351.568 87.3665 351.683 87.1219 351.68C87.3666 351.683 87.6002 351.569 87.7435 351.366C87.8128 351.269 87.8546 351.16 87.871 351.049ZM246.401 172.391C259.231 169.864 272.461 170.071 285.203 173C286.674 173.527 288.165 174.01 289.665 174.447C308.108 181.65 320.613 190.733 330.516 208.509C336.461 220.165 343.426 236.38 340.887 249.579C340.125 253.538 335.442 255.419 332.253 253.434C330.967 252.939 327.97 250.624 327.641 249.192C325.959 241.893 326.265 236.177 323.475 228.867C317.21 212.452 305.658 201.409 289.239 194.437C271.343 186.837 246.29 184.332 227.538 190.841C210.425 197.456 189.016 217.789 181.643 234.676C175.253 249.309 173.499 269.002 179.005 284.314C180.882 289.531 184.325 292.268 189.302 294.38C189.03 290.615 186.825 284.23 185.707 280.279C181.54 265.553 184.897 245.514 192.324 232.431C200.486 218.055 220.747 200.967 237.041 197.016C254.901 192.685 273.952 193.52 289.8 203.582C299.97 209.968 310.278 218.023 313.302 230.196C315.456 238.855 315.277 252.651 304.055 255.282C302.238 255.708 298.602 255.337 297.058 254.16C292.752 250.868 294.255 249.09 296.178 244.993C296.646 242.789 296.6 239.4 296.191 237.262C292.382 217.364 266.241 206.163 247.61 209.703C231.4 212.783 218.126 223.371 208.687 236.372C202.06 245.501 199.776 261.225 201.597 272.172C205.647 291.34 220.599 307.541 236.877 317.984C264.481 335.691 294.215 334.535 324.738 326.536C335.924 323.604 346.684 319.354 358.278 317.46C362.12 316.835 376.168 315.042 378.981 316.903C379.713 319.074 373.817 322.963 372.109 324.034C341.754 343.28 298.677 356.014 263.538 343.101C238.264 333.813 212.801 315.445 191.006 299.821C187.782 297.52 184.636 295.115 181.571 292.609C174.826 286.996 169.7 283.214 161.469 279.664C155.566 277.119 157.356 271.577 158.091 266.217C160.267 250.345 164.928 234.16 172.745 220.082C187.936 195.368 215.589 179.263 243.637 172.843L246.401 172.391ZM160.657 345.486L160.347 346.037L160.816 346.082L160.933 345.477L160.657 345.486ZM22.6403 344.602C22.6357 344.632 22.6295 344.663 22.6216 344.694C22.496 345.189 21.9889 345.488 21.4881 345.368C21.2993 345.322 21.1382 345.222 21.0172 345.089L20.9606 345.021C21.0857 345.188 21.2684 345.315 21.4887 345.369C21.9895 345.49 22.4966 345.19 22.6223 344.696C22.6379 344.634 22.6466 344.572 22.6493 344.511L22.6403 344.602ZM22.621 344.24C22.6434 344.327 22.6534 344.417 22.6493 344.509V344.419C22.6459 344.359 22.6366 344.299 22.6216 344.242L22.621 344.24ZM178.419 339.033C178.508 339.209 178.517 339.482 178.703 339.55L178.704 338.978L178.419 339.033ZM385.599 336.136L386.183 335.385L386.485 335.469L386.486 335.468L386.183 335.384L385.599 336.136ZM454.559 334.261L455.198 335.51L455.199 335.51L454.559 334.261ZM97.5571 300.626C107.291 299.5 120.114 302.182 128.903 306.139C130.472 306.845 132.42 307.633 133.047 309.296L132.634 309.735C128.997 311.066 121.703 311.018 117.621 311.47C106.173 312.739 95.1463 316.198 84.127 319.479C67.7147 324.37 52.5854 325.968 35.5294 325.88C30.8363 325.262 10.3217 324.555 6.60297 319.228C5.4511 317.578 5.70342 308.456 6.60104 306.136C7.84904 305.267 16.7559 308.082 18.859 308.518C36.0013 312.062 55.4916 311.99 72.3444 307.252C81.2179 304.756 88.1079 301.57 97.5571 300.626ZM238.08 260.232C240.338 261.101 242.352 266.425 243.45 268.58C244.814 271.278 246.363 273.881 248.088 276.371C257.146 289.551 272.467 303.287 288.513 306.906C306.937 311.065 331.415 305.064 349.361 300.014C357.279 297.804 365.078 294.65 373.084 292.785C383.412 290.377 394.691 288.991 405.253 287.914C412.326 287.192 420.501 287.676 427.321 289.551C431.509 290.703 435.601 292.369 439.872 293.401C448.498 295.415 457.309 296.538 466.17 296.753C475.014 297.013 483.199 294.901 491.895 294.042C493.679 293.866 497.474 293.944 498.968 294.781C501.758 296.343 501.827 301.813 498.008 302.217C493.778 302.907 490.005 302.962 485.919 303.209C480.795 303.48 475.71 304.231 470.734 305.461C474.915 307.098 480.466 308.195 484.881 309.009C490.441 310.363 492.815 308.833 498.147 308.664C499.05 308.634 500.116 309.116 500.703 309.875C501.778 311.264 501.428 316.237 501.059 317.822C498.346 321.131 460.156 310.219 454.411 308.777C437.029 304.413 419.416 306.36 401.81 307.801C384.086 309.253 366.357 310.366 348.913 313.946C339.574 315.879 330.519 319.605 321.345 322.13C300.243 327.936 274.076 327.057 254.749 316.207C245.613 311.078 235.793 301.735 233.504 291.305C231.021 279.99 232 270.178 238.08 260.232ZM268.701 305.23L268.243 305.871L268.78 305.927L269.325 305.211L268.701 305.23ZM243.828 301.727C243.782 302.442 243.898 302.984 244.436 303.613C244.561 303.759 244.715 303.88 244.855 304.013V304.01C244.715 303.877 244.562 303.757 244.436 303.611C243.822 302.892 243.759 302.287 243.857 301.409L243.828 301.727ZM253.819 258.058C256.497 259.542 258.119 264.671 260.058 267.415C265.035 274.467 273.183 280.543 281.256 283.648C300.372 291.002 316.108 287.211 334.311 280.172C344.554 276.208 353.764 272.3 363.832 268.079C381.27 261.469 401.666 261.534 419.869 264.141C437.369 266.65 451.137 277.344 468.374 279.723C473.528 280.435 478.811 280.53 483.958 280.22C486.613 280.061 499.474 275.528 500.74 278.854C500.143 280.439 497.225 281.366 495.579 282.254C481.884 289.189 469.112 288.334 454.352 287.231C442.675 286.355 434.692 282.369 423.605 280.025C415.404 278.294 404.221 278.005 395.782 278.691C388.043 279.319 378.45 281.483 370.928 283.657C347.387 292.405 329.622 305.322 302.822 302.907C286.347 301.472 269.417 294.413 258.598 281.776C254.245 276.696 246.698 263.529 253.819 258.058ZM317.902 300.394C316.408 299.863 316.309 300.247 314.792 299.798L314.793 299.799C316.31 300.248 316.409 299.864 317.902 300.394L318.483 299.171L318.482 299.17L317.902 300.394ZM314.274 297.468C313.608 298.434 314.04 298.037 312.79 298.529L313.526 299.554L313.364 299.788C313.285 299.673 313.214 299.561 313.148 299.452C313.214 299.561 313.285 299.674 313.365 299.789L313.526 299.555L312.791 298.529C314.041 298.038 313.609 298.435 314.275 297.469L314.06 296.893L314.06 296.892L314.274 297.468ZM412.554 297.823C412.485 298.734 412.382 298.315 412.933 299.109C413.516 299.239 413.823 299.298 414.059 299.178L414.06 299.178C413.823 299.297 413.518 299.239 412.934 299.108C412.383 298.315 412.485 298.734 412.554 297.823ZM212.872 244.913C222.891 223.953 255.656 204.695 276.816 222.609C277.258 222.983 276.932 223.472 276.793 223.968C275.679 223.899 276.173 223.749 275.28 224.483L275.244 225.06L275.28 224.485C276.174 223.751 275.679 223.9 276.794 223.97L276.922 224.864L276.989 224.976C278.467 227.33 283.672 229.148 283.636 234.102C284.77 235.636 280.974 245.667 279.111 245.193C274.712 244.071 267.131 237.773 260.658 237.988C251.098 238.306 240.632 241.307 233.765 248.041C224.667 256.961 221.209 272.09 223.627 284.287C224.234 287.379 226.28 293.432 226.291 295.814C225.29 297.061 222.842 297.396 221.653 296.192C208.608 283.103 204.797 261.809 212.872 244.913ZM193.516 295.491C193.41 295.81 193.303 296.128 193.194 296.445L192.942 296.693C192.845 296.559 192.78 296.425 192.738 296.287V296.288C192.78 296.426 192.845 296.56 192.942 296.694L193.194 296.447C193.412 295.812 193.624 295.174 193.83 294.536L193.829 294.535L193.516 295.491ZM151.115 294.591C151.544 295.048 151.794 295.651 151.841 296.335L150.864 296.455L150.865 296.456L151.842 296.336C151.794 295.651 151.545 295.049 151.116 294.591L151.115 294.591ZM135.607 294.211L136.055 294.136L136.116 293.739L135.929 293.719L135.607 294.211ZM133.678 291.452C133.801 291.741 134.001 291.994 134.433 292.379C135.457 292.457 135.939 292.362 136.938 292.236L136.937 292.234C135.939 292.361 135.456 292.455 134.432 292.377C134.001 291.993 133.801 291.741 133.678 291.452ZM240.908 288.62L241.304 289.365L241.369 288.522L240.908 288.62ZM239.587 285.766C240.47 285.724 240.479 285.782 241.246 285.389L241.245 285.388C240.478 285.781 240.47 285.724 239.587 285.766ZM491.042 283.757C490.933 283.751 490.225 283.546 490.095 283.513L490.095 283.514C490.223 283.547 490.933 283.752 491.042 283.758L491.315 282.785L491.042 283.757ZM240.985 282.528C240.97 282.679 240.949 282.835 240.924 282.994L240.958 282.759C240.969 282.681 240.978 282.604 240.985 282.528ZM155.856 29.4048C185.524 16.6171 223.67 8.90053 256.14 9.61612C309.246 10.7815 360.623 28.4457 402.968 60.0955C415.604 69.552 426.628 80.0592 437.586 91.242C448.653 102.538 455.667 113.237 463.974 126.139C485.465 159.178 498.197 197.062 500.644 236.256C500.931 240.847 503.308 268.322 500.677 270.799C496.825 269.11 487.067 272.342 484.446 271.105C483.641 269.078 483.737 255.123 483.48 251.615C482.8 243.194 481.857 234.796 480.65 226.433C474.147 183.167 453.801 139.31 424.755 106.094C417.728 98.0585 406.292 88.4171 398.203 81.2406C392 75.7388 382.829 70.5387 376.132 65.628C375.212 65.2423 373.566 63.9733 372.531 63.4643C369.652 62.0519 366.054 59.8832 363.209 58.666C361.715 58.0298 360.471 57.4061 359.033 56.6772C349.249 51.8544 340.233 48.0197 330.143 43.9089C330.374 43.7602 330.503 43.5142 330.509 43.2606C330.502 43.5137 330.374 43.7592 330.143 43.9077C329.958 44.0264 329.734 44.0655 329.519 44.0157C329.302 43.9659 329.121 43.8318 329.009 43.6445C328.967 43.5742 328.937 43.5 328.918 43.4246V43.4259C328.937 43.5013 328.967 43.5755 329.009 43.6458C298.552 31.9109 264.814 27.2026 232.443 32.3992C230.919 32.5853 228.542 32.8759 228.542 32.8759L228.543 32.8765L222.802 33.8579L219.677 34.4865L218.943 34.524C217.917 34.7349 216.782 34.9935 215.759 35.1527C207.363 37.415 197.735 39.0854 189.553 41.7802C170.63 47.8916 152.5 56.1768 135.537 66.4644C71.2654 104.951 28.6535 171.671 23.6289 246.031C23.0911 253.437 23.0302 260.867 23.4473 268.277C23.5799 270.688 25.194 281.867 23.4222 282.671L23.4209 282.668C21.2688 282.548 20.3579 282.301 18.269 281.807L18.2664 281.808C15.2876 281.242 8.14157 280.243 6.15083 277.972C5.07059 276.741 5.08541 260.202 5.14608 257.212C5.33868 240.171 7.08612 223.182 10.3663 206.45C20.2453 158.094 44.8121 113.854 80.7965 79.6166C100.508 60.9971 130.829 40.192 155.856 29.4048ZM240.942 281.588C240.95 281.62 240.959 281.651 240.965 281.684C240.952 281.619 240.936 281.557 240.916 281.496L240.942 281.588ZM103.685 281.337L103.459 281.665L103.979 281.6L103.932 281.252L103.685 281.337ZM189.363 55.3062C217.321 47.1608 247.629 43.0901 276.784 44.8884C284.401 45.3583 293.711 47.8108 301.259 49.3657L301.259 49.3651C309.484 50.232 333.117 57.2215 340.208 61.1316H340.206L340.207 61.1322C345.671 62.8261 357.463 69.4107 362.908 72.424C433.639 111.592 471.232 191.239 470.005 269.496C469.995 270.092 469.388 270.388 468.983 270.651C466.526 270.892 463.318 269.353 461.174 268.146L459.525 265.002C457.309 264 453.254 262.535 452.627 260.049C451.598 255.949 452.581 251.206 452.178 246.966C450.302 227.193 443.535 208.756 436.577 190.249C432.627 179.74 428.61 169.068 423.166 159.161C421.418 155.955 419.252 153.371 417.332 150.382C415.865 148.103 414.816 145.896 413.206 143.569C404.801 131.393 394.915 121.93 383.865 112.192C370.829 100.708 358.476 91.622 342.884 83.7373C332.345 78.4074 324.21 76.372 313.087 72.9439C288.147 65.2571 264.866 61.0405 238.624 62.9361C233.024 63.3406 228.003 63.9199 222.467 64.9447C219.542 65.4862 213.445 67.25 210.987 67.4808L210.986 67.4801L210.515 67.5799L209.968 66.6494L210.176 65.9172L209.968 66.65L210.514 67.5812C196.175 72.824 182.569 75.9582 168.555 83.178C147.498 93.3553 131.134 106.515 114.805 122.75C95.68 141.765 83.8055 161.088 73.7923 186.068C67.3309 202.187 62.1664 217.414 60.2894 234.895C59.4653 242.571 58.4958 250.406 58.229 258.145C57.4075 260.813 59.5828 271.732 58.0718 273.402C56.3159 275.341 44.2253 282.035 41.2526 280.2C40.9538 278.866 41.109 272.338 41.0375 270.255C40.3714 250.83 40.9329 232.06 44.9135 212.942C47.3089 201.143 50.7757 189.581 55.2733 178.395C70.6011 141.228 99.7867 104.268 133.433 81.5819C149.855 70.5097 170.314 60.8558 189.363 55.3062ZM196.556 279.888L196.87 280.057L196.866 279.439L196.556 279.888ZM170.226 275.858C169.943 276.222 169.831 276.258 169.458 276.55L169.138 276.304V276.305L169.459 276.552C169.831 276.26 169.944 276.224 170.227 275.86L170.207 275.352L170.206 275.351L170.226 275.858ZM207.934 147.832C235.255 137.681 261.101 135.228 289.51 142.178C297.698 144.181 305.546 146.595 313.239 150.028C334.311 159.433 349.098 174.294 360.884 193.715C364.435 199.566 367.868 205.772 370.285 212.171C372.963 219.259 379.753 245.443 377.25 251.681C377.065 252.135 376.768 252.429 376.415 252.752C373.53 253.798 369.672 253.606 366.701 254.299C363.759 254.989 360.161 256.412 357.283 257.469C356.241 235.398 353.523 219.3 340.488 200.656C336.168 194.46 331.158 188.76 325.552 183.665C307.023 167.035 283.87 157.043 258.39 157.975C250.799 158.252 245.159 159.876 238.005 161.087C214.302 164.872 193.639 174.97 177.511 192.823C164.684 207.023 154.658 223.671 151.654 242.753C150.235 251.763 149.881 259.972 149.982 269.048C149.993 269.956 149.518 271.297 148.578 271.684C148.253 271.512 147.827 271.329 147.588 271.095C143.859 269.315 137.545 267.72 133.47 266.777C132.248 266.5 131.328 266.457 130.494 265.582C129.564 263.145 129.955 260.043 130.074 257.462C130.746 242.992 135.361 230.367 141.354 217.311C145.274 208.771 149.379 199.887 154.398 191.923C166.772 172.289 185.905 156.017 207.934 147.832ZM408.732 270.611L409.201 270.913L408.927 270.545L408.732 270.611ZM48.7811 270.17L49.0658 270.066L49.0716 269.366L48.7985 269.346L48.7811 270.17ZM135.379 120.264C177.612 85.1964 217.693 71.6668 272.553 76.272C272.708 77.1734 279.224 79.1377 279.808 79.8517C281.153 79.1797 279.053 77.4927 280.372 77.057C330.354 83.0047 373.579 112.265 404.099 151.141C414.945 164.954 423.225 181.893 429.293 198.262C433.045 209.01 434.094 222.176 436.455 233.299C437.247 237.024 441.158 254.081 439.126 256.577C438.661 256.538 423.421 253.837 423.419 253.837C420.959 251.128 420.725 243.396 419.795 239.708C414.226 208.812 404.584 178.156 385.022 152.932C382.585 149.791 379.541 147.021 376.913 144.047C370.987 138.043 364.088 130.646 356.754 126.2C349.648 121.894 341.895 116.882 334.69 112.861C317.984 103.538 298.004 98.3323 279.046 95.9736C265.694 94.4414 248.82 94.4621 235.569 96.4808V96.4827L234.326 96.6906C202.307 101.385 180.022 112.523 154.868 131.74C115.735 161.637 94.1496 204.342 89.0973 252.462C88.5097 256.088 88.9206 260.527 87.7576 263.918C87.1413 265.715 81.8991 265.725 79.9219 266.206C77.3481 266.831 72.8242 269.831 70.7761 268.556C69.8964 266.131 70.7159 254.386 71.0022 251.122C74.2365 214.197 83.8546 184.078 105.113 153.602C113.61 141.176 123.794 129.958 135.379 120.264ZM145.118 267.576C145.046 268.04 145.017 268.137 144.695 268.439C144.793 268.347 144.865 268.275 144.918 268.205C144.959 268.151 144.989 268.099 145.013 268.042C145.037 267.985 145.055 267.922 145.071 267.847C145.088 267.772 145.102 267.684 145.118 267.576ZM408.648 266.381C408.672 266.536 408.742 266.738 408.858 267.089C410.117 267.825 411.235 267.229 413.224 267.682L413.241 266.979L413.239 266.978L413.224 267.679C411.235 267.227 410.117 267.823 408.858 267.087C408.765 266.807 408.702 266.62 408.668 266.478L408.648 266.381ZM192.633 265.784C192.826 265.833 193.024 265.946 193.218 265.901L193.218 265.9C193.024 265.945 192.825 265.833 192.633 265.784ZM257.77 108.252C275.462 108.42 292.979 111.719 309.487 117.991C311.142 118.606 317.313 121.059 318.614 121.95C319.811 122.504 321.466 123.333 322.65 123.802H322.649L322.651 123.803C336.758 131.31 343.914 137.215 355.657 147.71C372.419 162.687 382.74 175.575 391.723 196.086C394.813 203.141 397.747 209.094 399.973 216.785C402.776 226.472 406.061 241.364 406.111 251.36C403.512 251.368 390.384 251.98 389.22 249.94C387.7 247.276 387.443 239.126 386.575 235.661C383.1 221.745 378.816 207.124 372.072 194.359C357.985 167.693 331.228 143.407 301.773 134.756L300.59 134.371C208.064 114.356 138.048 159.593 120.552 252.389C120.144 254.55 119.633 263.18 118.824 264.303C116.134 265.458 105.874 265.028 102.414 265.015C102.217 260.472 103.199 255.62 103.682 251.124C105.834 231.09 111.21 213.196 120.039 195.061C123.317 188.383 127.03 180.555 131.59 174.65C140.99 162.479 154.323 148.733 166.551 139.419C185.084 125.302 211.032 114.147 234.301 110.306L235.407 110.129L236.569 109.827C236.835 110.481 236.97 110.669 237.022 110.834C236.986 110.719 236.911 110.593 236.778 110.306C236.72 110.181 236.65 110.026 236.569 109.827V109.826L237.057 109.731L237.835 109.814L237.837 109.815C245.346 108.584 248.863 108.808 255.943 108.233L257.77 108.252ZM464.957 262.581C464.766 263.464 464.745 263.968 464.119 264.594L464.119 264.595C464.835 263.879 464.759 263.323 465.052 262.177L464.957 262.581ZM77.8782 263.421L77.9104 263.417L77.7011 263.154L77.8782 263.421ZM51.8424 262.822C52.1552 263.18 52.4909 262.981 53.0249 262.919L53.0243 262.918C52.4907 262.98 52.1551 263.179 51.8424 262.822ZM139.252 259.128C138.946 259.902 138.546 260.217 137.96 260.816L137.599 260.975L137.041 260.627L136.524 260.295C136.134 260.738 135.849 261.044 135.425 261.454L134.934 260.959C134.928 260.528 134.945 260.243 134.976 260.045L134.975 260.047C134.944 260.245 134.928 260.53 134.934 260.961L135.425 261.456C135.849 261.046 136.134 260.74 136.524 260.297L137.041 260.629L137.599 260.977L137.96 260.818C138.547 260.219 138.946 259.903 139.252 259.128ZM132.843 260.554L133.005 261.127L133.379 261.088L133.394 260.336L132.843 260.554ZM465.591 256.176C465.423 256.174 465.196 256.252 464.604 256.364C466.009 256.098 465.352 256.019 466.75 256.769C465.941 256.335 465.821 256.179 465.591 256.176ZM427.14 250.88C427.908 251.292 427.591 251.188 428.495 251.215C428.547 251.183 428.597 251.151 428.645 251.121C428.597 251.151 428.547 251.182 428.495 251.215C427.592 251.188 427.908 251.292 427.14 250.88ZM114.946 248.841C114.611 248.623 114.164 248.68 113.895 248.974C113.86 249.012 113.83 249.055 113.804 249.099C113.83 249.055 113.86 249.013 113.895 248.975C114.164 248.681 114.611 248.624 114.946 248.843C115.243 249.036 115.372 249.394 115.281 249.723C115.373 249.393 115.243 249.035 114.946 248.841ZM399.504 246.586C399.399 246.455 399.165 246.307 398.404 246.411L397.609 247.454L397.326 247.928L397.61 247.454L398.404 246.412C399.164 246.309 399.399 246.455 399.504 246.586ZM143.618 245.316C143.417 246.152 143.484 246.068 143.115 246.826L143.114 246.827H143.116C143.484 246.069 143.418 246.154 143.618 245.317C143.475 245.032 143.392 244.85 143.327 244.726L143.327 244.726C143.391 244.849 143.474 245.031 143.618 245.316ZM400.336 246.261C400.166 246.404 400.037 246.51 399.939 246.585C399.875 246.634 399.822 246.669 399.781 246.695C399.748 246.715 399.722 246.729 399.7 246.737C399.686 246.743 399.674 246.747 399.663 246.748C399.602 246.755 399.583 246.702 399.539 246.634C399.643 246.797 399.605 246.876 400.337 246.263L400.336 246.261ZM435.069 244.82C434.679 244.874 434.292 244.921 433.9 244.969C434.462 244.9 435.013 244.833 435.578 244.749L435.42 246.36L435.578 244.748L435.069 244.82ZM400.165 244.444L399.888 244.996L400.165 244.445L400.716 244.393L400.715 244.392L400.165 244.444ZM435.382 242.772C435.375 242.953 435.357 243.132 435.329 243.308C435.315 243.395 435.297 243.482 435.277 243.568L434.608 243.995L435.278 243.569L435.33 243.308C435.358 243.133 435.375 242.953 435.382 242.772ZM429.711 242.538L429.735 244.463L430.226 244.797C431.202 244.37 431.152 244.428 431.776 243.575L431.775 243.574C431.152 244.426 431.202 244.369 430.226 244.796L429.735 244.462L429.711 242.538ZM434.912 240.362C434.935 240.415 434.956 240.47 434.977 240.524C434.923 240.385 434.865 240.249 434.801 240.118L434.912 240.362ZM55.4685 240.278L55.8124 240.427L55.4679 240.276L55.4685 240.278ZM434.41 239.442C434.438 239.483 434.464 239.526 434.492 239.568C434.418 239.454 434.343 239.344 434.263 239.241L434.41 239.442ZM431.978 239.016C432.421 239.043 432.514 239.02 432.662 239.107C432.626 239.085 432.593 239.07 432.557 239.06C432.52 239.049 432.481 239.043 432.433 239.038C432.335 239.03 432.201 239.029 431.978 239.016ZM308.069 238.039C308.16 238.092 308.254 238.139 308.348 238.181C308.49 238.246 308.635 238.299 308.782 238.34C308.938 238.384 309.097 238.415 309.257 238.431C309.323 238.437 309.389 238.442 309.455 238.444C309.932 238.456 310.412 238.337 310.864 238.067C309.96 238.608 308.942 238.54 308.069 238.039ZM430.611 228.601C430.659 228.606 430.727 228.609 430.839 228.62C430.671 228.604 430.601 228.604 430.553 228.591L430.611 228.601ZM126.245 209.204L126.161 209.505L126.444 209.469L126.49 209.131L126.245 209.204ZM127.054 198.478C126.342 198.516 125.709 198.527 124.996 198.532L124.997 198.533C125.71 198.528 126.342 198.516 127.054 198.478ZM173.157 193.545L173.4 193.797L173.228 193.528L173.157 193.545ZM129.158 192.16C129.301 192.247 129.405 192.311 129.489 192.363C129.657 192.468 129.745 192.53 129.901 192.659C129.668 192.466 129.586 192.422 129.158 192.16ZM128.844 189.576C128.661 189.903 128.483 190.174 128.316 190.421L128.574 190.029C128.662 189.89 128.753 189.74 128.844 189.576ZM258.291 180.753C258.535 181.637 258.4 181.456 259.28 182.212L260.609 182.467L260.607 182.465L259.28 182.21C258.275 181.346 258.594 181.706 258.159 180.304L258.291 180.753ZM154.235 166.865C154.358 166.868 154.543 166.861 154.873 166.884L155.089 166.902C154.932 166.887 154.802 166.878 154.692 166.873C154.472 166.863 154.333 166.868 154.235 166.865ZM318.872 161.412C319.169 161.43 319.407 161.462 319.6 161.51C319.665 161.526 319.724 161.544 319.78 161.564L319.779 161.564C319.614 161.504 319.409 161.461 319.15 161.434L318.872 161.412ZM222.881 158.541C222.614 158.939 222.794 158.763 222.302 159.03V159.032C222.795 158.764 222.614 158.94 222.882 158.542L223.13 158.005L223.128 158.005L222.881 158.541ZM305.228 156.112C305.248 156.162 305.264 156.214 305.275 156.268C305.36 156.704 305.097 157.132 304.661 157.252C304.351 157.338 304.015 157.244 303.794 157.009C303.74 156.95 303.695 156.885 303.659 156.815L303.66 156.817C303.695 156.887 303.741 156.952 303.795 157.011C304.016 157.246 304.352 157.34 304.662 157.253C305.097 157.134 305.361 156.706 305.275 156.27C305.265 156.216 305.249 156.163 305.229 156.114L305.228 156.112ZM276.87 156.679L277.032 157.132L277.358 156.896L277.302 156.472L276.87 156.679ZM308.17 154.946C308.18 155.095 308.148 155.247 308.069 155.386C307.923 155.635 307.656 155.788 307.366 155.785C307.076 155.782 306.809 155.623 306.674 155.371L306.629 155.276C306.642 155.309 306.656 155.341 306.674 155.373C306.809 155.625 307.076 155.783 307.367 155.786C307.657 155.79 307.924 155.637 308.069 155.388C308.161 155.226 308.189 155.045 308.161 154.874L308.17 154.946ZM251.962 150.93C251.97 151.24 251.769 151.379 251.336 152.173C251.148 151.968 251.06 151.883 251.014 151.814C251.06 151.883 251.148 151.969 251.336 152.174C251.769 151.38 251.97 151.24 251.962 150.93ZM124.547 150.539L124.624 150.91L124.974 150.775L124.777 150.391L124.547 150.539ZM421.035 130.218C421.744 130.398 422.45 130.588 423.155 130.789L422.097 130.495C421.743 130.4 421.39 130.308 421.035 130.218ZM279.729 127.139L279.396 127.639L279.936 127.592L280.256 127.091L279.729 127.139ZM289.443 125.941C289.77 126.135 290.243 126.247 290.908 126.462L290.907 126.462C290.717 126.4 290.543 126.347 290.383 126.298C290.144 126.225 289.937 126.161 289.76 126.091C289.7 126.068 289.644 126.044 289.592 126.019C289.539 125.994 289.489 125.968 289.442 125.94L289.443 125.941ZM279.92 124.871L279.676 125.317L280.124 125.337L280.263 124.798L279.92 124.871ZM248.662 124.037C249.492 124.437 249.223 124.255 249.865 124.904C249.222 124.254 249.493 124.437 248.662 124.037ZM311.333 122.155C311.14 122.107 310.938 122.137 310.768 122.229C310.938 122.137 311.14 122.108 311.333 122.156C311.62 122.228 311.84 122.455 311.903 122.741C311.939 122.908 311.916 123.077 311.846 123.225C311.917 123.076 311.94 122.907 311.904 122.74C311.841 122.454 311.62 122.227 311.333 122.155ZM239.473 121.401L239.068 121.917L239.639 121.659L240.163 121.077L239.473 121.401ZM163.585 113.17C162.129 113.904 161.66 113.624 160.698 115.176C161.66 113.625 162.129 113.904 163.585 113.171C163.621 113.195 163.66 113.24 163.703 113.295C163.66 113.239 163.62 113.195 163.585 113.17ZM159.86 107.665C159.771 107.835 159.698 108.005 159.639 108.172C159.698 108.005 159.771 107.836 159.86 107.666C161.519 108.252 162.392 108.896 162.54 109.826C162.393 108.895 161.52 108.251 159.86 107.665ZM167.612 107.398C167.316 108.216 167.66 107.988 167.186 109.147L167.187 109.148C167.661 107.988 167.316 108.215 167.612 107.398ZM166.941 106.985L167.709 107.148C167.692 107.189 167.677 107.228 167.662 107.265C167.677 107.228 167.692 107.188 167.709 107.147L166.941 106.984L166.941 106.985ZM160.57 105.163C160.318 105.466 160.115 105.749 159.989 106.089C160.115 105.75 160.318 105.467 160.569 105.164L160.57 105.163ZM161.352 104.228C161.17 104.461 160.995 104.665 160.833 104.853C160.995 104.665 161.17 104.462 161.352 104.229C161.447 104.454 161.542 104.678 161.637 104.902L161.638 104.901C161.542 104.677 161.447 104.452 161.352 104.228ZM333.562 101.038L333.711 101.444L333.932 101.31L333.674 101.01L333.562 101.038ZM235.127 94.7354C234.974 94.9319 234.857 95.0739 234.766 95.1835C234.856 95.074 234.975 94.9327 235.127 94.7367L235.627 94.6922C235.834 95.3404 235.864 95.3889 235.792 95.6399C235.865 95.3879 235.835 95.3401 235.627 94.6909L235.127 94.7354ZM297.717 94.8905L297.82 95.1835L297.952 95.139L297.935 94.7468L297.717 94.8905ZM252.625 89.5532C252.793 90.9908 252.717 91.9032 252.654 93.3415L252.061 93.0555L252.062 93.0567L252.655 93.3428C252.717 91.9043 252.793 90.9916 252.625 89.5538L252.625 89.5532ZM249.007 89.6632L249.661 90.909V90.9077L249.007 89.6632ZM235.673 89.9784C236.087 91.2494 235.704 90.8371 236.585 91.4893C235.705 90.8376 236.087 91.2496 235.673 89.9784L236.75 89.0911C237.742 89.1686 237.888 89.4063 238.7 89.9924L238.865 90.3611C239.295 91.2989 239.384 91.8114 240.285 92.266L241.113 92.2762V92.2749L240.285 92.266C239.384 91.8115 239.295 91.2981 238.865 90.3604L238.7 89.9924C237.888 89.4063 237.742 89.1679 236.751 89.0905L235.673 89.9784ZM211.063 89.1229C211.053 89.894 211.081 90.5547 211.46 91.3304C210.954 90.2962 211.074 89.4658 211.074 88.3061L211.063 89.1229ZM223.761 89.0199C223.856 89.0738 223.963 89.1089 224.077 89.121L223.966 89.1013C223.857 89.0743 223.756 89.0257 223.669 88.9595L223.761 89.0199ZM223.454 88.7136C223.49 88.7779 223.535 88.8363 223.587 88.8877L223.515 88.8051C223.492 88.7759 223.472 88.7458 223.454 88.7136ZM299.412 88.7498L300.197 87.1188L300.196 87.1182L299.412 88.7498ZM296.843 87.4747L296.328 88.0538L296.329 88.0532L296.843 87.4747ZM240.535 85.9353L239.831 86.405L239.235 86.7832L239.234 86.7857L239.831 86.4063L240.538 85.9346L240.535 85.9353ZM288.451 85.5278L288.236 85.9957L288.622 85.9003L288.826 85.4859L288.451 85.5278ZM226.87 85.5094C226.815 85.5217 226.733 85.5527 226.546 85.6022C226.795 85.5362 226.857 85.5034 226.92 85.5037C226.904 85.5036 226.889 85.5053 226.87 85.5094ZM235.206 85.2704C235.809 85.3238 236.131 85.3517 236.742 85.3562L237.188 84.8077L236.742 85.355C236.131 85.3504 235.809 85.3238 235.206 85.2704ZM256.717 84.0799C256.803 84.2305 256.884 84.3836 256.962 84.5357C256.85 84.3178 256.732 84.0983 256.602 83.8854L256.717 84.0799ZM256.079 83.1506C256.224 83.3219 256.357 83.5047 256.481 83.6941L256.354 83.5066C256.224 83.3222 256.084 83.1464 255.931 82.9835L256.079 83.1506ZM243.164 79.2804C243.177 80.4757 241.932 82.3502 241.302 83.4939L241.303 83.4951C241.932 82.3515 243.179 80.4765 243.165 79.281L243.164 79.2804ZM255.058 82.3027C255.125 82.3377 255.189 82.375 255.252 82.4146C255.378 82.4937 255.497 82.5817 255.61 82.6771C255.44 82.5341 255.258 82.4068 255.059 82.3021L255.058 82.3027ZM249.951 80.87C249.949 80.8104 249.946 80.7506 249.942 80.6908C249.949 80.8104 249.954 80.9295 249.954 81.0487L249.951 80.87ZM248.411 80.6126C248.439 80.6798 248.47 80.7456 248.504 80.8103L248.411 80.6126C248.383 80.5454 248.358 80.4771 248.335 80.4073L248.411 80.6126ZM272.553 76.272C273.19 76.2899 277.638 76.7894 278.159 76.9228C276.84 77.3586 281.153 79.1797 279.808 79.8517C279.224 79.1377 272.708 77.1734 272.553 76.272ZM323.05 69.7671L323.099 70.2756L323.663 70.0779L323.584 69.5592L323.05 69.7671ZM330.481 43.033C330.489 43.0625 330.495 43.0922 330.5 43.122C330.495 43.0927 330.49 43.0633 330.482 43.0343L330.481 43.033Z" fill="#323032"/>
</svg>
