<svg width="192" height="192" viewBox="0 0 192 192" fill="none" xmlns="http://www.w3.org/2000/svg">
<rect width="192" height="192" fill="white"/>
<path d="M145.577 168.069C146.858 167.825 151.759 167.64 152.834 167.769C159.05 168.55 165.323 170.378 170.92 173.173C173.382 174.402 176.081 175.994 178.472 177.406C181.135 178.977 185.835 180.823 188.078 182.731C188.395 183.684 188.772 189.082 187.706 189.154C178.561 189.764 169.418 189.576 160.262 189.644L152.376 189.718C151.261 189.726 149.361 189.808 148.298 189.69C148.298 189.69 147.219 189.683 147.219 189.69C147.212 189.691 146.71 189.744 146.285 189.69C142.993 189.869 139.58 189.832 136.274 189.837L122.988 189.864C113.492 189.871 103.929 190.107 94.4149 190.08C93.3366 190.064 92.68 190.174 91.5569 190.058C86.8235 190.247 82.1994 190.052 77.5272 190.085L46.2302 190.201C46.242 190.193 46.2532 190.184 46.2648 190.176L46.1515 190.173C45.992 189.854 45.8355 189.531 45.682 189.208C45.8147 189.055 45.7901 189.086 45.952 189.012C45.7898 189.086 45.8147 189.055 45.682 189.208L45.6619 189.129C45.6398 189.149 45.6127 189.18 45.5682 189.231C45.7218 189.554 45.8782 189.876 46.0377 190.196C45.5991 190.215 44.9537 190.167 44.4985 190.149L43.8831 190.195C34.1773 189.768 24.3513 190.522 14.6362 190.037C11.2412 189.869 5.13317 190.678 2.15874 189.746C2.13587 189.618 2.11371 189.489 2.09232 189.361C1.81767 187.717 1.4751 182.676 2.38264 180.999C2.72204 180.372 5.05307 181.221 5.9193 181.372C12.8509 182.577 19.1737 182.364 26.0635 181.474C37.3225 180.022 46.7708 175.669 58.3242 176.31C65.1152 176.688 69.2768 178.427 75.5116 180.082C84.2928 182.347 93.4145 183.041 102.443 182.13C111.725 181.11 120.208 177.604 128.699 173.889C135.733 170.811 137.008 168.8 145.146 168.068L145.262 168.077C145.261 168.066 145.26 168.056 145.259 168.045L145.577 168.069ZM43.6384 189.827C43.6826 189.828 43.7225 189.827 43.7592 189.827C43.7569 189.82 43.7547 189.813 43.7522 189.805L43.9423 189.089L43.8613 188.989L43.6384 189.827ZM37.3725 187.49C37.3346 187.495 37.2991 187.5 37.2655 187.505L37.259 187.513C37.1942 188.206 37.0985 188.173 37.4737 188.622C37.4957 188.591 37.5156 188.562 37.5346 188.535C37.2219 188.151 37.311 188.148 37.3725 187.49ZM38.5396 187.348L38.7219 187.501C38.6374 187.849 38.6202 187.719 38.7122 188.034L39.0224 188.158L39.0774 188.111L38.826 188.01C38.734 187.696 38.7512 187.826 38.8357 187.478L38.6251 187.301C38.5904 187.321 38.5623 187.336 38.5396 187.348ZM46.5126 187.857L46.5659 187.861L46.7478 187.78C46.7368 187.776 46.7255 187.772 46.7142 187.768L46.5126 187.857ZM47.6659 187.737C47.5765 187.73 47.4862 187.799 47.3437 187.839C47.4862 187.822 47.5836 187.768 47.6659 187.737ZM37.8618 187.536C37.9705 187.551 38.0428 187.576 38.1681 187.622C38.1831 187.604 38.1957 187.587 38.2075 187.572C38.093 187.532 38.0175 187.513 37.8705 187.503C37.8675 187.514 37.8646 187.525 37.8618 187.536ZM38.2903 186.827L38.3995 186.891L38.413 186.641C38.3895 186.607 38.3559 186.573 38.306 186.541L38.2903 186.827ZM62.1586 182.797C61.8327 183.018 61.931 182.971 61.7707 183.428C57.4516 183.103 52.5754 183.273 48.2687 184.059C47.3123 184.233 45.4209 185.081 44.5482 185.561C44.3511 185.683 44.3343 185.866 44.2869 186.063L44.3932 186.279C47.2818 187.085 52.3636 185.659 55.4664 185.7C58.4772 185.74 61.4275 186.132 64.4497 185.773C65.3233 185.67 68.2194 184.848 67.7123 183.645C67.3879 183.434 67.2822 183.347 66.9051 183.223C66.8438 183.517 66.7779 183.809 66.7365 184.106C66.9004 184.226 67.0081 184.305 67.1659 184.435C66.7452 184.559 63.1645 183.684 62.49 183.531C62.487 183.518 62.4847 183.504 62.482 183.491L61.8845 183.405C62.0299 182.991 61.9626 182.99 62.1922 182.829C62.1815 182.819 62.1704 182.808 62.1586 182.797ZM42.2016 185.072L42.0673 185.258L42.2021 185.071L42.2016 185.072ZM42.5124 183.882L42.6334 184.049L42.5692 184.41C42.822 184.475 42.7155 184.468 42.8844 184.466L42.9158 184.444C42.8596 184.444 42.8756 184.437 42.6829 184.388L42.7472 184.027L42.6223 183.854C42.5816 183.865 42.5455 183.874 42.5124 183.882ZM41.8965 183.547L41.9625 183.911C42.1469 183.954 42.2368 183.944 42.3767 183.91C42.2897 183.922 42.2066 183.919 42.0762 183.889L42.0127 183.538C41.9755 183.541 41.9368 183.545 41.8965 183.547ZM71.1917 182.467L71.1506 182.613L71.2388 182.606L71.3762 182.415L71.1917 182.467ZM131.186 182.297L131.234 182.423L131.323 182.384L131.266 182.243L131.186 182.297ZM131.559 180.67L131.659 180.72L131.587 180.656L131.559 180.67ZM152.391 175.016L152.668 175.41C151.15 175.389 149.59 174.911 148.059 175.005C146.987 175.1 145.915 175.188 144.862 175.421C141.417 176.187 134.768 178.521 132.153 180.706C133.989 180.593 135.81 180.305 137.638 180.1C139.641 179.875 141.66 179.732 143.669 179.564C145.059 179.447 146.49 179.235 147.884 179.287C150.084 179.292 152.284 179.331 154.481 179.403C155.932 179.464 162.087 179.974 163.007 179.745C162.937 179.236 162.383 178.866 161.985 178.566C159.293 176.539 155.894 175.115 152.49 174.914L152.391 175.016ZM69.4336 178.768L69.2812 179.012L69.4981 178.907L69.6041 178.727L69.4336 178.768ZM149.039 154.163C156.038 151.023 164.198 150.394 171.722 151.675C176.307 152.457 180.206 154.775 184.354 156.677C186.017 157.44 187.257 157.744 188.269 159.316C188.316 160.62 188.537 168.339 188.062 169.104C186.368 169.601 179.018 166.874 177.608 168.63C177.866 170.014 185.859 171.897 187.505 171.573C188.262 171.424 188.305 173.673 188.153 174.19C185.612 176.694 170.735 168.541 167.412 167.297C159.154 164.208 151.072 164.822 142.539 166.095C132.528 167.652 123.953 174.087 114.217 176.673C107.141 178.578 99.8499 179.088 92.559 178.592C81.9076 178.156 72.3559 173.282 62.6057 169.565C61.5208 169.151 60.4579 168.489 59.3816 168.099C51.9861 165.415 43.9397 163.333 36.0064 164.258C34.2423 164.463 32.2271 164.522 30.5076 164.876C25.2319 165.962 19.9786 167.212 14.5787 167.531C13.9874 167.463 13.8684 167.402 13.3747 167.074C13.6525 167.258 13.8113 167.358 14.0027 167.423C14.024 167.43 14.0456 167.437 14.0679 167.443C14.2015 167.481 14.3569 167.506 14.5787 167.531C13.9366 167.591 13.4783 167.625 12.8231 167.626C10.1456 167.853 5.10698 167.786 2.56451 167.176C2.25041 165.463 1.96504 158.988 2.65049 157.552C3.44736 156.95 5.30568 157.784 6.22894 158.025C8.02583 158.491 9.82184 159.145 11.628 159.582C18.5441 161.256 25.8913 160.322 32.5512 158.045C35.5472 157.008 37.9413 156.046 41.0811 155.277L41.9253 155.076C51.2368 153.12 57.8202 157.126 65.3641 161.865C66.6644 162.682 67.5253 163.286 68.7322 164.255C65.1614 163.356 61.8376 161.975 58.5819 161.239C61.3003 165.523 72.7621 169.588 77.9136 170.554C89.8105 172.787 103.942 174.751 115.545 170.206C122.72 167.396 129.4 165.015 136.154 161.443C140.406 159.085 144.609 156.198 149.039 154.163ZM36.5023 167.521C42.7893 167.247 46.8699 167.693 52.9715 168.871C54.515 169.168 56.8417 169.499 58.0879 170.478C58.3327 170.671 58.3866 170.784 58.4135 171.083C57.7919 171.585 51.0311 172.007 49.5884 172.211C46.3633 172.665 43.1166 173.638 39.9544 174.411C34.6229 175.715 29.3047 176.83 23.8256 177.302C21.4802 177.581 18.9901 177.261 16.6745 176.866C13.7507 176.369 10.9665 175.529 8.11405 174.759C6.68468 174.375 5.09604 174.094 3.75571 173.473C3.3704 173.295 2.97936 173.051 2.74613 172.689C2.48521 172.285 2.52484 171.908 2.62513 171.462C3.16087 170.851 8.15609 171.703 9.25333 171.791C15.5796 172.3 19.8786 170.694 25.8599 169.353C29.3849 168.563 32.92 167.992 36.5023 167.521ZM25.8611 175.922L25.8582 176.021L25.9176 176.005L25.9995 175.86L25.8611 175.922ZM28.3051 175.056L28.1375 175.118L28.1378 175.118L28.3051 175.056L28.3406 174.818H28.3402L28.3051 175.056ZM22.0508 174.469C22.1298 174.444 22.219 174.433 22.2846 174.383L22.2841 174.382C22.2185 174.432 22.1297 174.444 22.0508 174.468L22.0112 174.346L22.0508 174.469ZM185.793 173.219C185.8 173.2 185.808 173.181 185.815 173.16C186.183 173.171 186.385 173.179 186.718 173.358C186.738 173.488 186.741 173.559 186.726 173.618C186.741 173.559 186.738 173.488 186.718 173.357C186.386 173.178 186.183 173.171 185.816 173.16C185.808 173.181 185.8 173.2 185.793 173.219ZM4.40856 172.856C4.69741 173.271 4.98223 173.464 5.48745 173.567C5.70633 173.612 5.89344 173.617 6.1159 173.586L6.03403 173.596C5.84624 173.615 5.67917 173.606 5.4877 173.567C4.98246 173.464 4.6974 173.271 4.40856 172.856ZM178.731 171.06L178.87 171.101C178.777 171.074 178.685 171.046 178.592 171.017L178.731 171.06ZM177.964 170.084C177.968 170.138 177.969 170.192 177.967 170.247C177.964 170.358 177.953 170.474 177.949 170.605C177.954 170.408 177.977 170.245 177.964 170.084ZM2.52055 137.073C4.14297 135.754 12.617 135.952 15.0323 136.156C25.3091 137.027 34.328 141.917 44.0901 144.634C50.1664 146.398 56.3574 147.276 62.269 149.614C69.0826 152.311 75.3036 157.898 82.6837 159.222C89.5966 160.462 99.1152 161.526 106.023 160.556C113.366 159.487 120.472 157.195 127.036 153.777C132.289 151.063 136.074 148.705 141.722 146.547C148.241 144.056 153.989 141.419 161.223 141.32C167.216 140.805 173.352 141.17 179.139 142.899C181.269 143.535 186.303 144.66 187.863 146.121C188.554 146.769 188.491 153.573 188.061 154.525C187.753 154.55 183.204 152.346 182.567 152.055C172.579 147.473 161.633 145.925 151.094 149.859C138.645 154.508 128.005 163.467 114.74 166.238C112.636 166.68 110.621 166.921 108.481 167.157C103.163 167.722 97.7958 167.684 92.4856 167.043L91.9489 166.939C85.9638 165.977 79.8961 164.473 74.4629 161.738C67.2653 158.115 61.0612 151.717 52.715 150.72C49.4593 150.33 44.4269 150.468 41.2705 151.225C37.9259 152.028 34.982 153.49 31.7911 154.686C27.4048 156.328 22.7697 156.734 18.133 156.376C17.1716 156.303 16.2287 156.316 15.2854 156.095C13.0025 155.561 3.70149 153.89 2.61885 152.016C2.09147 151.101 2.52614 149.51 2.75676 148.545C4.55356 149.136 6.70751 149.593 8.55797 150.039C13.4197 151.211 17.8438 152.012 22.8698 151.58C25.6821 151.34 28.459 150.805 31.2764 150.563C32.6356 150.446 33.6421 150.784 34.8952 150.69C31.8457 147.882 28.4431 149.055 24.6784 148.694C19.3657 148.187 14.0717 147.479 8.76448 146.878C7.1564 146.695 4.19552 145.688 2.66619 145.168C1.97838 144.934 2.34878 137.783 2.52055 137.073ZM171.387 157.506C171.45 158.397 171.716 158.649 172.379 159.216C173.47 160.149 174.666 160.997 175.81 161.869C179.456 164.64 180.785 165.15 185.302 166.019C185.186 165.613 185.077 165.223 184.795 164.894C183.321 163.172 178.879 161.053 176.764 159.887C175.112 158.975 173.255 157.861 171.387 157.506ZM112.939 165.059L112.888 165.19L112.988 165.193L112.976 165.054L112.939 165.059ZM156.402 164.2L156.436 164.449L156.623 164.41L156.567 164.148L156.402 164.2ZM159.002 163.945L159.126 164.063L159.186 164.012L159.146 163.875L159.002 163.945ZM112.778 163.959L112.593 164.015L112.593 164.016L112.779 163.96L112.894 163.795H113.096L113.096 163.795L112.894 163.795L112.778 163.959ZM111.86 163.449L111.86 163.449L112.238 163.358L112.238 163.358L111.86 163.449ZM37.5904 159.928C37.6808 160.063 37.7957 160.168 37.9056 160.275C37.9238 160.293 37.942 160.311 37.9599 160.329C38.0583 160.428 38.1483 160.532 38.207 160.666L38.1903 160.63C38.0387 160.326 37.7239 160.173 37.5474 159.858L37.5904 159.928ZM144.099 159.894L143.967 159.852C144.012 159.866 144.056 159.878 144.099 159.894ZM37.0006 160.154C36.9801 160.198 36.9629 160.245 36.9489 160.296C36.9537 160.278 36.9589 160.261 36.9646 160.245C36.9699 160.229 36.9755 160.213 36.9815 160.198C36.9875 160.183 36.9939 160.168 37.0006 160.154ZM170.663 159.603C170.819 159.677 170.928 159.76 171.062 159.865H171.063C170.928 159.76 170.819 159.677 170.663 159.602L170.663 159.603ZM57.7517 159.381L57.48 159.396L57.4803 159.396L57.7517 159.381ZM49.8637 158.146C49.9869 158.208 50.0765 158.275 50.1768 158.357C50.0912 158.287 50.0136 158.228 49.9162 158.173L49.8637 158.146ZM48.5337 158.162L48.5242 158.232L48.5337 158.163L48.7242 158.028L48.8534 158.071L48.7938 158.342L48.8537 158.071L48.7242 158.027L48.5337 158.162ZM31.7488 129.102C32.5554 128.861 35.5454 129.095 36.4972 129.115C44.7991 129.155 50.7069 133.474 57.5464 137.405C65.4102 141.924 74.7814 145.687 83.6672 147.71C88.793 148.878 93.5482 149.082 98.7445 149.145C106.817 149.244 114.318 147.804 121.921 145.143C124.277 144.249 127.177 143.503 129.401 142.346C137.646 138.056 145.488 132.061 154.81 130.273C156.894 129.874 159.524 129.894 161.668 129.986C164.766 130.112 167.843 130.539 170.854 131.26C176.237 132.559 181.829 134.304 187.192 135.744C188.697 136.147 188.432 141.115 188.08 142.396C187.538 142.617 184.763 140.941 183.99 140.655C182.344 140.048 180.755 139.607 179.076 139.13C176.786 138.479 174.551 137.577 172.199 137.133C169.208 136.53 165.735 136.459 162.675 136.564C160.54 136.638 156.581 136.789 154.556 137.255C147.961 138.772 141.044 141.476 135.043 144.539C131.261 146.47 127.696 148.645 123.952 150.471C118.112 153.318 112.268 155.304 105.838 156.351C103.201 156.781 100.502 157.123 97.8342 157.333C96.2328 157.458 94.4707 157.394 92.9138 157.517C89.1713 157.814 85.6271 158.387 81.8795 157.553C80.0929 157.153 78.566 155.866 77.0035 154.96C75.0477 153.827 72.7555 152.696 70.8772 151.479C67.1813 149.083 64.0331 146.767 59.8576 145.152C54.5085 143.084 49.0197 141.929 43.4969 140.477C41.197 139.873 38.2686 138.957 35.9982 138.237C33.6075 137.479 31.448 136.642 29.0145 135.947C26.2126 135.146 20.3723 134.133 18.1613 132.575C20.6776 130.909 27.1804 129.688 30.3581 129.221L31.7488 129.102ZM107.473 154.296C107.428 154.361 107.387 154.419 107.351 154.476C107.387 154.419 107.428 154.362 107.472 154.297C107.514 154.335 107.549 154.38 107.597 154.409C107.648 154.44 107.708 154.452 107.763 154.473C107.968 154.724 107.88 154.999 107.87 155.313L107.871 155.313C107.88 154.999 107.968 154.724 107.763 154.472C107.709 154.452 107.648 154.439 107.597 154.409C107.549 154.379 107.515 154.334 107.473 154.296ZM110.069 154.553L110.083 154.551L109.98 154.452L110.069 154.553ZM183.776 150.23C184.552 151.053 184.547 150.392 185.098 150.75C184.546 150.391 184.552 151.053 183.776 150.23ZM79.7347 150.057L79.7869 150.167L79.8381 150.151L79.8146 150.008L79.7347 150.057ZM36.9571 148.609C36.9176 148.721 36.8798 148.815 36.8508 148.906L36.8824 148.814C36.9052 148.751 36.9307 148.684 36.9571 148.609C37.1064 148.657 37.1257 148.647 37.151 148.686C37.1561 148.694 37.1613 148.704 37.1679 148.717C37.1812 148.743 37.1997 148.78 37.2322 148.835C37.1021 148.613 37.196 148.685 36.9571 148.609ZM39.567 148.176C39.575 148.26 39.591 148.347 39.6078 148.449C39.8808 148.611 39.5999 148.476 39.9993 148.526C40.1737 148.548 40.4304 148.706 40.5945 148.782C40.6656 148.654 40.7566 148.505 40.8466 148.344C40.7567 148.504 40.6657 148.654 40.5947 148.781C40.4306 148.705 40.1737 148.548 39.9993 148.526C39.6 148.476 39.8808 148.61 39.6078 148.448C39.5966 148.38 39.586 148.319 39.5776 148.261L39.567 148.176ZM39.8916 147.333C39.9214 147.45 39.9795 147.572 40.0778 147.765C39.9935 147.599 39.9387 147.486 39.9061 147.383L39.8916 147.333ZM41.1633 147.62C41.1564 147.647 41.148 147.675 41.1396 147.702C41.148 147.675 41.1564 147.648 41.1633 147.62V147.62ZM182.96 147.202C182.448 147.321 181.97 147.43 181.489 147.644L181.579 147.605C182.03 147.416 182.48 147.313 182.96 147.202ZM31.2926 103.424C35.6253 102.247 40.1464 101.903 44.6108 102.409C51.9992 103.173 57.9169 106.388 63.9621 110.363C65.8762 111.621 67.8405 112.863 69.5938 114.325C77.2803 120.734 82.6186 126.551 92.3986 130.028C99.8931 132.691 107.712 133.757 115.682 132.542C117.457 132.271 121.629 131.003 123.002 131.584L123.043 131.781C122.309 132.526 117.72 134.44 116.605 134.725C110.961 136.167 104.638 137.434 98.8297 137.607C92.2625 137.802 86.5476 136.982 80.4677 134.613C76.135 132.924 72.2199 131.404 68.3045 128.754C65.5137 127.114 62.4888 124.767 59.5929 123.505C58.7827 123.151 55.5652 122.173 54.8252 122.793C55.2298 123.472 58.2707 125.178 59.0608 125.784C63.272 129.014 67.1282 132.44 72.2112 134.323C74.7515 135.328 77.465 135.836 80.046 136.721C81.5251 137.229 82.969 138.183 84.4435 138.783C93.37 142.421 103.041 140.908 112.408 140.953C117.381 140.976 122.589 139.91 127.347 138.66C127.598 138.588 127.878 138.637 128.119 138.741C128.694 139.88 120.797 142.515 119.626 142.875C112.322 145.124 105.394 146.218 97.7588 145.776C90.6285 145.444 82.7268 144.82 76.0304 142.16C70.1443 139.822 64.2236 136.277 58.7379 133.116C50.9564 128.632 41.6377 125.664 32.498 126.568C30.2835 126.596 28.905 126.799 26.7413 127.168C24.1285 127.692 21.5297 128.283 18.9475 128.938C16.6243 129.547 4.35403 133.466 2.99587 132.958C2.72505 132.857 2.57838 132.602 2.49132 132.343C2.13249 131.279 2.18606 124.811 2.8268 123.909C3.16784 123.428 5.08716 123.946 5.63527 124.057L5.95239 124.122C11.3117 125.219 24.1947 126.177 29.1843 124.662C41.5484 120.908 53.7635 115.495 66.3802 122.312C67.1721 122.74 70.2849 125.064 70.9487 125.014C71.507 123.72 67.0014 120.174 65.9938 119.461C62.7949 117.159 59.6204 115.663 56.0565 114.029C48.7291 110.669 40.7253 108.993 32.6437 109.883C28.6025 110.329 24.3928 112.156 20.279 112.646C17.1891 113.098 15.1769 113.211 11.9147 113.184C10.353 113.171 2.83045 112.851 2.59083 110.201C2.4088 108.186 6.00355 108.704 7.11292 109.089C7.34465 109.169 8.63256 109.25 9.09561 109.282C9.28073 109.29 9.79656 109.297 9.94433 109.343C10.9772 109.471 12.0036 109.36 13.0359 109.279C19.5623 108.773 25.0942 105.16 31.2926 103.424ZM38.7217 144.659C38.7237 144.668 38.7261 144.677 38.7292 144.686C38.7322 144.694 38.736 144.703 38.741 144.711C38.7694 144.755 38.7967 144.789 38.8229 144.819C38.8622 144.863 38.8992 144.898 38.9337 144.942C38.8762 144.868 38.8121 144.821 38.741 144.711C38.731 144.695 38.7258 144.677 38.7217 144.659ZM4.34021 143.309L4.51096 143.335L4.55154 143.127L4.43657 143.119L4.34021 143.309ZM54.3624 140.177L54.3206 140.417L54.4479 140.285L54.4609 140.124L54.3624 140.177ZM47.6081 139.252C47.8501 139.366 48.0608 139.454 48.2605 139.635C48.4094 139.77 48.3703 139.819 48.3839 140.005L48.1037 140.321L48.3842 140.005C48.3706 139.819 48.4097 139.77 48.2607 139.635C48.061 139.454 47.8501 139.366 47.6081 139.252ZM51.6187 138.745L51.6469 138.94L51.7592 138.901L51.794 138.628L51.6187 138.745ZM40.0404 138.527L40.1305 138.851H40.131L40.0404 138.527ZM43.0486 137.159L43.2706 137.192C43.5783 137.425 43.5882 137.558 43.7169 137.91L43.7171 137.91C43.5882 137.558 43.5785 137.425 43.2706 137.191L43.0486 137.159V137.159ZM76.5381 136.649C76.5578 136.658 76.5752 136.67 76.5908 136.684C76.6063 136.698 76.62 136.714 76.6321 136.731C76.7045 136.835 76.7208 136.994 76.7579 137.11C76.7084 136.955 76.6961 136.724 76.5381 136.649ZM75.9877 136.563C76.0979 136.562 76.2096 136.564 76.3169 136.582L76.2707 136.575C76.1778 136.564 76.0822 136.562 75.9877 136.563ZM41.5526 136.266C41.5946 136.302 41.6293 136.364 41.6845 136.366L41.5526 136.266ZM156.121 118.247C160.023 118.052 164.114 118.029 167.974 118.827C174.063 119.818 181.642 123.03 187.707 122.184C188.587 125.921 187.927 125.346 184.421 126.018C182.167 126.448 179.812 126.945 177.572 127.353C176.16 127.61 173.724 126.946 172.36 126.539C172.386 126.496 172.407 126.46 172.425 126.427C172.407 126.46 172.386 126.496 172.36 126.538C171.833 126.299 171.08 126.144 170.493 125.97L170.492 125.97L170.329 125.866C167.391 124.015 159.94 124.999 156.567 125.685C150.459 126.926 145.242 130.08 139.862 133.024C136.936 134.62 135.034 135.715 131.482 135.567C128.908 135.46 127.404 133.678 129.286 131.605C131.244 129.449 134.7 128.061 137.129 126.431C143.168 122.328 148.519 118.627 156.121 118.247ZM50.0731 134.791L50.0734 134.791L50.5461 134.474C51.0271 134.751 51.0024 134.644 51.2424 135.056L51.1702 135.345L51.2426 135.056C51.0026 134.643 51.0273 134.751 50.5463 134.474L50.0731 134.791ZM35.2874 135.18C35.322 135.2 35.3566 135.218 35.3925 135.235C35.3387 135.209 35.2877 135.181 35.2355 135.148L35.2874 135.18ZM50.2086 134.924L50.3226 134.844L50.0741 134.792L50.2086 134.924ZM48.2013 134.686C48.2835 134.763 48.353 134.825 48.424 134.884L48.353 134.823C48.2815 134.761 48.2069 134.692 48.1146 134.602L48.2013 134.686ZM34.9628 134.712C34.9701 134.763 34.9729 134.803 34.9756 134.836L34.971 134.781C34.9691 134.76 34.9664 134.737 34.9628 134.712ZM108.898 134.343C108.924 134.456 108.891 134.577 108.808 134.663C108.685 134.787 108.489 134.804 108.348 134.702C108.33 134.689 108.314 134.675 108.299 134.66L108.278 134.637C108.298 134.661 108.321 134.683 108.348 134.702C108.489 134.805 108.685 134.788 108.808 134.663C108.891 134.578 108.924 134.457 108.898 134.344L108.898 134.343ZM47.3806 134.042C47.3788 134.044 47.3773 134.046 47.3755 134.048C47.3849 134.038 47.3945 134.028 47.405 134.018L47.3806 134.042ZM47.8226 133.795C47.6995 133.863 47.6047 133.903 47.5299 133.941C47.6047 133.903 47.6997 133.863 47.8228 133.795L47.8226 133.795ZM35.6309 132.481L35.6519 132.757L35.8659 132.672L35.8557 132.451L35.6309 132.481ZM186.729 127.544C188.82 126.937 188.165 131.063 188.104 132.207C185.379 131.73 180.283 129.903 177.864 128.716C179.669 128.553 181.469 128.331 183.259 128.05C184.144 127.913 185.472 127.623 186.339 127.546L186.507 127.534L186.507 127.533L186.728 127.544L186.729 127.544ZM32.9511 131.644C32.9487 131.661 32.9446 131.677 32.9391 131.694C32.9362 131.702 32.933 131.71 32.9294 131.718C32.9222 131.733 32.9134 131.749 32.9031 131.763C32.8494 131.839 32.762 131.882 32.6702 131.881C32.762 131.882 32.8496 131.839 32.9033 131.763C32.9293 131.727 32.945 131.686 32.9511 131.644ZM92.3998 64.6477C97.211 63.6998 102.172 63.7777 106.951 64.8758C107.502 65.0737 108.061 65.2549 108.624 65.4188C115.54 68.1197 120.229 71.5257 123.943 78.1918C126.172 82.5629 128.784 88.6436 127.832 93.5932C127.546 95.0776 125.79 95.783 124.595 95.0386C124.112 94.8529 122.988 93.9849 122.865 93.4478C122.234 90.7109 122.349 88.5675 121.303 85.8261C118.953 79.6703 114.621 75.5294 108.464 72.9148C101.753 70.065 92.3582 69.1256 85.3263 71.5665C78.9089 74.0471 70.8807 81.672 68.1156 88.0045C65.7196 93.492 65.0617 100.877 67.1263 106.619C67.8301 108.575 69.1214 109.601 70.9876 110.394C70.8857 108.982 70.0589 106.587 69.6396 105.106C68.0769 99.5833 69.3357 92.0685 72.1211 87.1626C75.1817 81.7714 82.7795 75.3636 88.89 73.8819C95.5875 72.2577 102.731 72.5709 108.675 76.3441C112.488 78.7391 116.354 81.7597 117.488 86.3243C118.295 89.5715 118.228 94.7452 114.02 95.7317C113.339 95.8916 111.975 95.7525 111.396 95.3108C109.781 94.0766 110.345 93.4098 111.066 91.8732C111.242 91.0468 111.224 89.7759 111.071 88.9743C109.643 81.5124 99.84 77.3122 92.8532 78.6397C86.7744 79.7947 81.7968 83.7652 78.257 88.6406C75.7718 92.0638 74.9156 97.9602 75.5986 102.066C77.117 109.254 82.724 115.329 88.8284 119.245C99.1797 125.885 110.33 125.452 121.776 122.452C125.971 121.352 130.006 119.759 134.354 119.048C135.795 118.814 141.063 118.142 142.117 118.84C142.392 119.654 140.181 121.112 139.54 121.514C128.157 128.731 112.003 133.506 98.8261 128.664C89.3483 125.181 79.7999 118.293 71.6269 112.434C70.4179 111.571 69.2379 110.669 68.0886 109.729C65.5592 107.624 63.6368 106.206 60.5503 104.875C58.3369 103.921 59.008 101.842 59.2835 99.8322C60.0998 93.8804 61.8474 87.8109 64.7789 82.5316C70.4756 73.2639 80.8453 67.2245 91.3632 64.8169L92.3998 64.6477ZM60.2457 129.558L60.1298 129.765L60.3056 129.782L60.3493 129.555L60.2457 129.558ZM8.48962 129.227C8.48791 129.238 8.48556 129.25 8.48262 129.261C8.4355 129.447 8.24536 129.559 8.05753 129.514C7.98674 129.497 7.92633 129.459 7.88098 129.409L7.85972 129.384C7.90663 129.447 7.97517 129.494 8.05777 129.514C8.24558 129.56 8.43575 129.447 8.48286 129.262C8.48874 129.239 8.49197 129.215 8.493 129.192L8.48962 129.227ZM8.48238 129.091C8.4908 129.124 8.49454 129.158 8.493 129.192V129.158C8.49173 129.135 8.48822 129.113 8.48262 129.092L8.48238 129.091ZM66.9065 127.138C66.9399 127.204 66.9433 127.307 67.0133 127.332L67.0135 127.118L66.9065 127.138ZM144.599 126.052L144.818 125.77L144.931 125.802L144.932 125.802L144.818 125.77L144.599 126.052ZM170.459 125.349L170.699 125.817L170.699 125.817L170.459 125.349ZM36.5834 112.736C40.2338 112.314 45.0424 113.319 48.3383 114.803C48.9266 115.068 49.6572 115.363 49.8922 115.987L49.7374 116.152C48.3733 116.651 45.6382 116.633 44.1075 116.802C39.8142 117.278 35.6794 118.575 31.5471 119.805C25.3925 121.64 19.719 122.239 13.323 122.206C11.5631 121.974 3.87015 121.709 2.47562 119.712C2.04368 119.093 2.13829 115.672 2.4749 114.802C2.9429 114.476 6.28296 115.532 7.07162 115.695C13.5 117.024 20.8089 116.997 27.1287 115.22C30.4562 114.284 33.04 113.09 36.5834 112.736ZM89.2793 97.5881C90.1264 97.914 90.8815 99.9105 91.2934 100.718C91.8046 101.73 92.3855 102.706 93.0324 103.64C96.4294 108.582 102.175 113.734 108.192 115.091C115.101 116.65 124.28 114.4 131.01 112.506C133.979 111.677 136.904 110.495 139.906 109.795C143.779 108.892 148.008 108.373 151.969 107.969C154.622 107.698 157.687 107.88 160.245 108.582C161.815 109.015 163.35 109.639 164.951 110.026C168.186 110.782 171.491 111.203 174.813 111.283C178.13 111.381 181.199 110.589 184.46 110.267C185.129 110.201 186.552 110.23 187.113 110.544C188.159 111.129 188.185 113.181 186.753 113.332C185.166 113.591 183.751 113.612 182.219 113.705C180.298 113.806 178.391 114.088 176.525 114.549C178.093 115.163 180.174 115.574 181.83 115.879C183.915 116.387 184.805 115.813 186.805 115.75C187.143 115.739 187.543 115.92 187.763 116.204C188.166 116.725 188.035 118.59 187.897 119.184C186.879 120.425 172.558 116.333 170.404 115.793C163.885 114.156 157.281 114.886 150.678 115.426C144.032 115.971 137.384 116.388 130.842 117.731C127.34 118.456 123.944 119.853 120.504 120.8C112.591 122.977 102.778 122.647 95.5303 118.579C92.1043 116.655 88.422 113.152 87.5635 109.24C86.6324 104.997 86.9996 101.318 89.2793 97.5881ZM100.762 114.462L100.59 114.703L100.792 114.724L100.996 114.455L100.762 114.462ZM91.4349 113.149C91.4178 113.417 91.4612 113.62 91.6629 113.856C91.7099 113.911 91.7678 113.956 91.8202 114.006V114.005C91.7678 113.955 91.7101 113.91 91.6632 113.855C91.4328 113.585 91.409 113.359 91.4458 113.03L91.4349 113.149ZM95.1817 96.7729C96.1859 97.3294 96.7943 99.2527 97.5214 100.281C99.3874 102.926 102.443 105.205 105.47 106.369C112.639 109.127 118.54 107.705 125.366 105.065C129.207 103.579 132.661 102.113 136.437 100.531C142.976 98.052 150.624 98.0762 157.45 99.0537C164.013 99.9946 169.176 104.005 175.64 104.897C177.572 105.164 179.553 105.2 181.484 105.084C182.479 105.024 187.302 103.324 187.777 104.571C187.553 105.165 186.459 105.513 185.842 105.846C180.706 108.447 175.917 108.126 170.382 107.712C166.003 107.384 163.009 105.889 158.851 105.01C155.776 104.361 151.582 104.253 148.418 104.51C145.516 104.746 141.918 105.557 139.098 106.372C130.269 109.653 123.608 114.497 113.558 113.591C107.38 113.053 101.031 110.406 96.9736 105.667C95.3413 103.762 92.5111 98.8244 95.1817 96.7729ZM119.213 112.649C118.652 112.45 118.615 112.594 118.047 112.425L118.047 112.426C118.616 112.594 118.653 112.45 119.213 112.649L119.43 112.19L119.43 112.19L119.213 112.649ZM117.852 111.551C117.603 111.914 117.765 111.765 117.296 111.949L117.572 112.334L117.511 112.421C117.481 112.378 117.455 112.336 117.43 112.295C117.455 112.336 117.481 112.379 117.511 112.422L117.572 112.334L117.296 111.95C117.765 111.765 117.603 111.914 117.853 111.552L117.772 111.336L117.772 111.336L117.852 111.551ZM154.707 111.685C154.681 112.026 154.643 111.869 154.849 112.167C155.068 112.216 155.183 112.238 155.272 112.193L155.272 112.193C155.183 112.237 155.069 112.215 154.85 112.167C154.643 111.869 154.681 112.026 154.707 111.685ZM79.8265 91.8434C83.5836 83.9832 95.8703 76.7617 103.806 83.4795C103.971 83.6197 103.849 83.8031 103.797 83.9891C103.379 83.963 103.564 83.907 103.229 84.1822L103.216 84.3986L103.23 84.1827C103.565 83.9075 103.379 83.9635 103.797 83.9896L103.845 84.325L103.87 84.3672C104.424 85.2499 106.376 85.9314 106.363 87.7892C106.788 88.3646 105.365 92.1262 104.666 91.9483C103.017 91.5275 100.174 89.1659 97.7463 89.2465C94.1613 89.3657 90.2365 90.4912 87.6613 93.0164C84.2498 96.3612 82.9531 102.035 83.8597 106.609C84.0874 107.768 84.8547 110.038 84.8587 110.931C84.4832 111.399 83.5653 111.524 83.1192 111.073C78.2276 106.164 76.7983 98.1794 79.8265 91.8434ZM72.5681 110.81C72.5284 110.93 72.4883 111.049 72.4474 111.168L72.3529 111.261C72.3165 111.211 72.2918 111.16 72.2764 111.109V111.109C72.2918 111.161 72.3165 111.211 72.3529 111.261L72.4474 111.168C72.5291 110.93 72.6086 110.691 72.6858 110.452L72.6855 110.452L72.5681 110.81ZM56.6678 110.472C56.8285 110.644 56.9221 110.87 56.94 111.127L56.5736 111.172L56.5738 111.172L56.9402 111.127C56.9223 110.87 56.8287 110.644 56.668 110.473L56.6678 110.472ZM50.8521 110.33L51.0202 110.302L51.0429 110.153L50.9728 110.146L50.8521 110.33ZM50.1287 109.295C50.1749 109.404 50.25 109.499 50.4118 109.643C50.796 109.672 50.9766 109.637 51.3513 109.589L51.3511 109.589C50.9765 109.636 50.7957 109.672 50.4115 109.642C50.25 109.498 50.1749 109.404 50.1287 109.295ZM90.3399 108.234L90.4884 108.513L90.5128 108.197L90.3399 108.234ZM89.8447 107.163C90.1759 107.147 90.1791 107.169 90.4669 107.022L90.4664 107.021C90.1789 107.169 90.1756 107.147 89.8447 107.163ZM184.14 106.41C184.099 106.407 183.834 106.331 183.785 106.318L183.785 106.319C183.833 106.331 184.099 106.408 184.14 106.41L184.243 106.045L184.14 106.41ZM90.3688 105.949C90.3634 106.006 90.3555 106.064 90.3459 106.124L90.3589 106.035C90.3629 106.006 90.3661 105.977 90.3688 105.949ZM58.4456 11.0278C69.5712 6.23241 83.8758 3.33868 96.0522 3.60702C115.967 4.04404 135.233 10.6681 151.112 22.5368C155.851 26.083 159.985 30.0232 164.094 34.2167C168.244 38.4528 170.875 42.4649 173.99 47.303C182.049 59.6926 186.823 73.8992 187.741 88.5968C187.849 90.3186 188.74 100.622 187.753 101.551C186.309 100.917 182.65 102.129 181.667 101.665C181.365 100.905 181.401 95.672 181.304 94.3564C181.05 91.1986 180.696 88.0495 180.243 84.9135C177.805 68.6885 170.175 52.2421 159.283 39.7862C156.648 36.7729 152.359 33.1574 149.326 30.4662C147 28.403 143.561 26.453 141.049 24.6115C140.704 24.4668 140.087 23.991 139.699 23.8001C138.619 23.2705 137.27 22.4572 136.203 22.0007C135.643 21.7622 135.176 21.5283 134.637 21.2549C130.968 19.4464 127.587 18.0084 123.803 16.4668C123.89 16.411 123.938 16.3188 123.94 16.2237C123.938 16.3186 123.89 16.4107 123.803 16.4663C123.734 16.5109 123.65 16.5255 123.569 16.5069C123.488 16.4882 123.42 16.4379 123.378 16.3677C123.362 16.3413 123.351 16.3135 123.344 16.2852V16.2857C123.351 16.314 123.362 16.3418 123.378 16.3681C111.956 11.9676 99.3046 10.202 87.1655 12.1507C86.5943 12.2205 85.7028 12.3294 85.7028 12.3294L85.703 12.3297L83.5501 12.6977L82.3782 12.9334L82.1031 12.9475C81.7183 13.0266 81.2928 13.1235 80.909 13.1832C77.7605 14.0316 74.15 14.658 71.082 15.6686C63.9859 17.9603 57.1871 21.0673 50.8257 24.9251C26.724 39.3576 10.7446 64.3775 8.86036 92.2627C8.65868 95.0399 8.63583 97.8259 8.79225 100.605C8.84196 101.509 9.44727 105.701 8.78283 106.003L8.78235 106.002C7.97533 105.956 7.63371 105.864 6.85038 105.679L6.84942 105.679C5.73234 105.467 3.0526 105.092 2.30607 104.24C1.90098 103.779 1.90654 97.5769 1.92929 96.4554C2.00152 90.065 2.65681 83.6941 3.88686 77.4198C7.59151 59.2863 16.804 42.6964 30.2982 29.8572C37.6901 22.8749 49.0603 15.073 58.4456 11.0278ZM90.3529 105.597C90.3559 105.608 90.359 105.62 90.3614 105.632C90.3566 105.608 90.3504 105.585 90.343 105.562L90.3529 105.597ZM38.8813 105.502L38.7965 105.625L38.9915 105.601L38.9741 105.471L38.8813 105.502ZM71.0105 20.7408C81.495 17.6863 92.8604 16.1597 103.793 16.8341C106.65 17.0104 110.141 17.93 112.972 18.5131L112.972 18.5129C116.056 18.838 124.919 21.459 127.577 22.9253H127.577L127.577 22.9256C129.626 23.5608 134.048 26.03 136.09 27.16C162.614 41.848 176.711 71.7155 176.251 101.062C176.248 101.285 176.02 101.396 175.868 101.495C174.947 101.586 173.744 101.008 172.94 100.556L172.322 99.3767C171.491 99.0008 169.97 98.4517 169.735 97.5194C169.349 95.9818 169.717 94.2032 169.566 92.6131C168.863 85.1984 166.325 78.2844 163.716 71.3443C162.234 67.4036 160.728 63.4016 158.687 59.6863C158.031 58.4843 157.219 57.5151 156.499 56.3944C155.949 55.5396 155.555 54.712 154.952 53.8394C151.8 49.2734 148.093 45.7248 143.949 42.073C139.06 37.7666 134.428 34.3592 128.581 31.4025C124.629 29.4038 121.578 28.6405 117.407 27.3549C108.055 24.4724 99.3241 22.8911 89.4837 23.602C87.3834 23.7537 85.5007 23.9709 83.4247 24.3552C82.3277 24.5583 80.0413 25.2197 79.1195 25.3063L79.1193 25.306L78.9425 25.3435L78.7377 24.9945L78.8155 24.7199L78.7374 24.9947L78.9423 25.3439C73.565 27.31 68.463 28.4853 63.2076 31.1927C55.3111 35.0092 49.1748 39.9441 43.0513 46.0323C35.8795 53.1628 31.4266 60.4091 27.6716 69.7764C25.2486 75.8211 23.3119 81.5313 22.608 88.0867C22.299 90.9651 21.9354 93.9033 21.8354 96.8053C21.5273 97.806 22.3431 101.901 21.7764 102.527C21.118 103.254 16.584 105.764 15.4692 105.076C15.3572 104.576 15.4154 102.128 15.3886 101.346C15.1388 94.0624 15.3494 87.0235 16.8421 79.8541C17.7403 75.4295 19.0404 71.0937 20.727 66.8992C26.4749 52.9616 37.4195 39.1016 50.0369 30.5942C56.195 26.4421 63.8674 22.8219 71.0105 20.7408ZM73.7081 104.959L73.8258 105.022L73.8241 104.791L73.7081 104.959ZM63.8343 103.448C63.7283 103.584 63.686 103.598 63.5464 103.707L63.4264 103.615V103.615L63.5467 103.708C63.6863 103.598 63.7285 103.585 63.8346 103.448L63.8271 103.258L63.8266 103.258L63.8343 103.448ZM77.9747 55.4381C88.22 51.6315 97.9122 50.7113 108.566 53.3177C111.636 54.0688 114.579 54.974 117.464 56.2616C125.366 59.7883 130.911 65.3611 135.331 72.6441C136.663 74.8382 137.95 77.1653 138.856 79.565C139.861 82.2232 142.407 92.0421 141.468 94.3815C141.399 94.5516 141.288 94.6617 141.155 94.7831C140.073 95.1752 138.626 95.1033 137.512 95.3632C136.409 95.622 135.06 96.1553 133.98 96.5519C133.59 88.2753 132.571 82.2386 127.682 75.2469C126.062 72.9233 124.184 70.7861 122.082 68.8752C115.133 62.6389 106.451 58.8923 96.8956 59.2415C94.049 59.3455 91.9343 59.9543 89.2515 60.4085C80.3629 61.8278 72.614 65.6148 66.5662 72.3097C61.756 77.6344 57.9962 83.8777 56.8697 91.0333C56.3377 94.412 56.205 97.4905 56.2429 100.894C56.2467 101.235 56.0688 101.737 55.7164 101.883C55.5943 101.818 55.4345 101.749 55.3449 101.662C53.9466 100.994 51.5789 100.396 50.0509 100.042C49.5925 99.9385 49.2474 99.9225 48.9346 99.5943C48.5859 98.6802 48.7325 97.5171 48.7774 96.5493C49.0291 91.1232 50.7598 86.3885 53.0072 81.4926C54.4772 78.2902 56.0165 74.9584 57.8986 71.9721C62.539 64.6093 69.714 58.5074 77.9747 55.4381ZM153.274 101.48L153.45 101.593L153.347 101.455L153.274 101.48ZM18.2924 101.315L18.3992 101.276L18.4014 101.013L18.299 101.006L18.2924 101.315ZM50.7668 45.0999C66.6041 31.9496 81.6343 26.876 102.207 28.603C102.265 28.941 104.709 29.6776 104.927 29.9454C105.432 29.6934 104.644 29.0608 105.139 28.8973C123.882 31.1277 140.092 42.1003 151.537 56.679C155.604 61.8588 158.709 68.2109 160.984 74.3493C162.392 78.3796 162.785 83.3169 163.67 87.4882C163.967 88.8849 165.434 95.2812 164.672 96.2173C164.498 96.2026 158.782 95.19 158.782 95.1897C157.859 94.1741 157.771 91.2744 157.423 89.8915C155.334 78.3055 151.718 66.8095 144.383 57.3504C143.469 56.1728 142.327 55.1338 141.342 54.0184C139.12 51.7669 136.533 48.9931 133.782 47.3259C131.118 45.7111 128.21 43.8316 125.508 42.3237C119.244 38.8278 111.751 36.8756 104.642 35.9911C99.6348 35.4165 93.3069 35.4243 88.3379 36.1813V36.182L87.8717 36.2599C75.8645 38.0203 67.5078 42.197 58.0751 49.4034C43.4 60.615 35.3056 76.6291 33.411 94.6744C33.1906 96.034 33.3447 97.6987 32.9086 98.9703C32.6775 99.6439 30.7117 99.6478 29.9702 99.8284C29.005 100.063 27.3086 101.188 26.5405 100.709C26.2107 99.8 26.518 95.3959 26.6253 94.1717C27.8382 80.3249 31.445 69.0302 39.417 57.6016C42.6033 52.9419 46.4221 48.7352 50.7668 45.0999ZM54.4189 100.342C54.3917 100.516 54.3808 100.552 54.26 100.666C54.2968 100.631 54.3239 100.604 54.3438 100.578C54.3589 100.558 54.3703 100.538 54.3793 100.517C54.3884 100.495 54.3952 100.472 54.4013 100.444C54.4074 100.415 54.4126 100.382 54.4189 100.342ZM153.242 99.8937C153.251 99.9519 153.278 100.028 153.321 100.159C153.794 100.435 154.213 100.212 154.958 100.382L154.965 100.118L154.964 100.118L154.958 100.381C154.213 100.211 153.793 100.434 153.321 100.159C153.286 100.053 153.263 99.9836 153.25 99.9302L153.242 99.8937ZM72.2368 99.6699C72.3091 99.6882 72.3836 99.7308 72.4563 99.7137L72.4561 99.7135C72.3834 99.7305 72.3091 99.6882 72.2368 99.6699ZM96.6633 40.5954C103.298 40.6585 109.867 41.8954 116.057 44.2477C116.678 44.4784 118.992 45.3982 119.48 45.7322C119.929 45.9398 120.549 46.2507 120.993 46.4268H120.993L120.994 46.4273C126.284 49.2421 128.967 51.4565 133.371 55.3923C139.657 61.0087 143.527 65.8417 146.896 73.5334C148.054 76.1788 149.155 78.4112 149.99 81.2955C151.041 84.928 152.272 90.5124 152.291 94.2608C151.317 94.2639 146.394 94.4934 145.957 93.7284C145.387 92.7297 145.291 89.6731 144.965 88.3739C143.662 83.1553 142.055 77.6723 139.527 72.8858C134.244 62.8859 124.21 53.7785 113.165 50.5346L112.721 50.3899C78.0236 42.8843 51.7674 59.8482 45.2064 94.6467C45.0537 95.4572 44.8618 98.6935 44.5586 99.1145C43.5497 99.5477 39.7021 99.3866 38.4048 99.3817C38.331 97.6781 38.6991 95.8584 38.8801 94.1727C39.6871 86.6596 41.7031 79.9495 45.0141 73.1489C46.2433 70.6447 47.6357 67.7091 49.3459 65.4946C52.8706 60.9306 57.8704 55.7758 62.4562 52.283C69.4061 46.9893 79.1364 42.8062 87.8625 41.3658L88.2772 41.2993L88.7129 41.1863C88.8125 41.4315 88.8633 41.502 88.8827 41.5636C88.8693 41.5206 88.8412 41.4734 88.7912 41.3658C88.7694 41.3189 88.7432 41.2608 88.7129 41.1863V41.1856L88.8958 41.1501L89.1878 41.1813L89.1885 41.1815C92.0043 40.7201 93.3232 40.804 95.978 40.5885L96.6633 40.5954ZM174.359 98.4688C174.287 98.8001 174.279 98.9891 174.044 99.2239L174.044 99.2241C174.313 98.9557 174.284 98.747 174.394 98.3174L174.359 98.4688ZM29.2039 98.7837L29.2159 98.7825L29.1374 98.6836L29.2039 98.7837ZM19.4404 98.5591C19.5577 98.6933 19.6836 98.6188 19.8838 98.5956L19.8836 98.5954C19.6835 98.6186 19.5577 98.6933 19.4404 98.5591ZM52.2191 97.174C52.1044 97.4641 51.9544 97.5825 51.7346 97.8069L51.5991 97.8667L51.3899 97.7361L51.196 97.6117C51.0497 97.7776 50.943 97.8924 50.784 98.0462L50.5999 97.8605C50.5976 97.699 50.6039 97.5921 50.6154 97.5177L50.6151 97.5185C50.6036 97.5928 50.5976 97.6998 50.5999 97.8612L50.784 98.0469C50.943 97.8931 51.0497 97.7783 51.196 97.6124L51.3897 97.7368L51.5991 97.8674L51.7346 97.8076C51.9546 97.5831 52.1043 97.4645 52.2191 97.174ZM49.8157 97.7087L49.8763 97.9237L50.0166 97.9089L50.0224 97.6269L49.8157 97.7087ZM174.596 96.0669C174.533 96.0662 174.448 96.0954 174.226 96.1374C174.753 96.0378 174.507 96.0081 175.031 96.2893C174.727 96.1266 174.682 96.068 174.596 96.0669ZM160.177 94.0809C160.465 94.2356 160.346 94.1966 160.685 94.2067C160.704 94.1944 160.723 94.1827 160.742 94.1712C160.723 94.1826 160.705 94.1942 160.685 94.2065C160.346 94.1964 160.465 94.2356 160.177 94.0809ZM43.1042 93.3165C42.9785 93.2346 42.8111 93.2558 42.7102 93.3661C42.697 93.3806 42.6859 93.3966 42.6759 93.413C42.6858 93.3968 42.6968 93.381 42.71 93.3665C42.8109 93.2562 42.9785 93.2351 43.1042 93.317C43.2155 93.3896 43.2641 93.5236 43.2297 93.6471C43.2643 93.5235 43.2156 93.3891 43.1042 93.3165ZM149.813 92.4706C149.774 92.4214 149.686 92.3662 149.401 92.405L149.103 92.7961L148.997 92.974L149.103 92.7964L149.401 92.4055C149.686 92.3668 149.774 92.4215 149.813 92.4706ZM53.8562 91.9943C53.7809 92.3082 53.8059 92.2763 53.6678 92.5607L53.6673 92.5611H53.668C53.8061 92.2768 53.7811 92.3086 53.8564 91.9948C53.8025 91.8878 53.7715 91.8196 53.7472 91.7734L53.747 91.7731C53.7712 91.8194 53.8022 91.8874 53.8562 91.9943ZM150.126 92.349C150.062 92.4025 150.013 92.442 149.976 92.4703C149.952 92.4887 149.933 92.5019 149.917 92.5116C149.905 92.5191 149.895 92.5244 149.887 92.5275C149.882 92.5295 149.877 92.5311 149.873 92.5316C149.85 92.5341 149.843 92.5143 149.827 92.4887C149.865 92.5497 149.851 92.5794 150.126 92.3495L150.126 92.349ZM163.151 91.8086C163.004 91.8287 162.859 91.8464 162.712 91.8644C162.923 91.8386 163.129 91.8133 163.341 91.7817L163.282 92.3859L163.341 91.7815L163.151 91.8086ZM150.061 91.6675L149.958 91.8744L150.062 91.668L150.268 91.6482L150.268 91.648L150.061 91.6675ZM163.268 91.0404C163.265 91.1083 163.259 91.1754 163.248 91.2414C163.243 91.2743 163.236 91.3069 163.229 91.3391L162.978 91.499L163.229 91.3393L163.248 91.2416C163.259 91.1757 163.265 91.1083 163.268 91.0404ZM161.141 90.9527L161.15 91.6747L161.334 91.7998C161.7 91.6398 161.682 91.6613 161.915 91.3417L161.915 91.3412C161.681 91.6608 161.7 91.6394 161.334 91.7993L161.15 91.6742L161.141 90.9527ZM163.092 90.1368C163.1 90.1567 163.108 90.177 163.116 90.1974C163.095 90.1454 163.074 90.0943 163.05 90.045L163.092 90.1368ZM20.8002 90.1051L20.9292 90.1611L20.8 90.1046L20.8002 90.1051ZM162.903 89.7919C162.914 89.8073 162.924 89.8232 162.934 89.8391C162.906 89.7963 162.878 89.7551 162.848 89.7163L162.903 89.7919ZM161.991 89.632C162.157 89.6419 162.192 89.6334 162.248 89.6661C162.234 89.658 162.222 89.6524 162.208 89.6484C162.195 89.6444 162.18 89.6419 162.162 89.6403C162.125 89.6371 162.075 89.637 161.991 89.632ZM115.525 89.2656C115.56 89.2853 115.595 89.303 115.63 89.319C115.683 89.3431 115.738 89.3631 115.793 89.3786C115.851 89.3951 115.911 89.4064 115.971 89.4124C115.996 89.4149 116.02 89.4168 116.045 89.4174C116.224 89.4219 116.404 89.3775 116.573 89.2761C116.235 89.4788 115.853 89.4535 115.525 89.2656ZM161.479 85.7263C161.496 85.7281 161.522 85.7294 161.564 85.7334C161.501 85.7275 161.475 85.7274 161.457 85.7227L161.479 85.7263ZM47.3412 78.4526L47.3098 78.5653L47.4159 78.5517L47.4333 78.4252L47.3412 78.4526ZM47.6448 74.4301C47.3779 74.4445 47.1405 74.4486 46.8732 74.4506L46.8734 74.4508C47.1407 74.4489 47.3779 74.4445 47.6448 74.4301ZM64.9333 72.5804L65.0243 72.6748L64.9601 72.574L64.9333 72.5804ZM48.4339 72.0608C48.4873 72.0936 48.5263 72.1174 48.5578 72.1371C48.6209 72.1765 48.654 72.1997 48.7124 72.2482C48.6249 72.1756 48.5941 72.1593 48.4339 72.0608ZM48.316 71.0921C48.2475 71.2146 48.1808 71.3163 48.118 71.4087L48.2148 71.2618C48.2479 71.2096 48.2818 71.1534 48.316 71.0921ZM96.8587 67.7835C96.9502 68.1148 96.8996 68.0469 97.2296 68.3303L97.7279 68.4261L97.7272 68.4252L97.2296 68.3296C96.8526 68.0058 96.9721 68.1407 96.8091 67.615L96.8587 67.7835ZM57.8377 62.5752C57.8836 62.5766 57.953 62.5738 58.0768 62.5826L58.1577 62.5893C58.0991 62.5837 58.0502 62.5804 58.009 62.5785C57.9264 62.5747 57.8745 62.5763 57.8377 62.5752ZM119.576 60.5303C119.688 60.5371 119.777 60.5491 119.85 60.5673C119.874 60.5733 119.896 60.58 119.917 60.5875L119.917 60.5873C119.855 60.5649 119.778 60.549 119.681 60.5387L119.576 60.5303ZM83.58 59.4539C83.4797 59.6031 83.5474 59.5369 83.3627 59.6372V59.6379C83.5477 59.5375 83.4799 59.6036 83.5803 59.4544L83.6733 59.253L83.6725 59.2527L83.58 59.4539ZM114.46 58.5429C114.467 58.5615 114.473 58.5811 114.477 58.6015C114.51 58.7648 114.411 58.9254 114.248 58.9703C114.131 59.0027 114.005 58.9675 113.922 58.8792C113.902 58.8572 113.885 58.8328 113.872 58.8068L113.872 58.8075C113.885 58.8335 113.902 58.8579 113.923 58.8799C114.006 58.9682 114.132 59.0035 114.248 58.971C114.411 58.9261 114.51 58.7656 114.478 58.6023C114.474 58.5819 114.468 58.5622 114.46 58.5436L114.46 58.5429ZM103.826 58.7555L103.886 58.9255L104.009 58.8368L103.988 58.6781L103.826 58.7555ZM115.563 58.1058C115.567 58.1614 115.555 58.2187 115.525 58.2707C115.471 58.3642 115.371 58.4216 115.262 58.4204C115.153 58.4193 115.053 58.3596 115.002 58.265L114.985 58.2295C114.99 58.2418 114.996 58.2539 115.002 58.2657C115.053 58.3603 115.153 58.4198 115.262 58.4209C115.371 58.4221 115.471 58.3649 115.525 58.2714C115.56 58.2107 115.57 58.1427 115.56 58.0786L115.563 58.1058ZM94.4852 56.5998C94.4882 56.7159 94.4128 56.7681 94.2504 57.0658C94.18 56.989 94.1469 56.9571 94.1296 56.9314C94.1469 56.9571 94.1802 56.9894 94.2507 57.0663C94.4131 56.7686 94.4882 56.7159 94.4852 56.5998ZM46.7046 56.453L46.7333 56.5922L46.8647 56.5414L46.791 56.3975L46.7046 56.453ZM157.888 48.8328C158.153 48.9001 158.418 48.9714 158.683 49.0468L158.286 48.9367C158.153 48.901 158.021 48.8664 157.888 48.8328ZM104.898 47.6782L104.773 47.8657L104.976 47.8479L105.096 47.66L104.898 47.6782ZM108.541 47.2289C108.663 47.3016 108.841 47.3437 109.09 47.4243L109.09 47.4241C109.018 47.401 108.953 47.3812 108.893 47.3628C108.803 47.3353 108.726 47.3112 108.659 47.2851C108.637 47.2764 108.616 47.2675 108.596 47.2582C108.576 47.2488 108.558 47.239 108.54 47.2286L108.541 47.2289ZM104.97 46.8277L104.878 46.995L105.046 47.0024L105.098 46.8L104.97 46.8277ZM93.2476 46.5147C93.5591 46.6648 93.458 46.5967 93.6988 46.8399C93.4576 46.5964 93.5592 46.6648 93.2476 46.5147ZM116.75 45.8092C116.677 45.7912 116.601 45.8023 116.537 45.8369C116.601 45.8024 116.677 45.7914 116.749 45.8094C116.857 45.8363 116.94 45.9216 116.963 46.029C116.977 46.0913 116.968 46.1547 116.942 46.2104C116.968 46.1546 116.977 46.091 116.964 46.0285C116.94 45.9211 116.857 45.836 116.75 45.8092ZM89.8017 45.5263L89.6501 45.7198L89.8641 45.6233L90.0607 45.4047L89.8017 45.5263ZM61.3437 42.4398C60.7978 42.7148 60.6219 42.61 60.2612 43.192C60.6219 42.6102 60.798 42.7151 61.344 42.44C61.3573 42.4492 61.3721 42.4658 61.3882 42.4868C61.372 42.4657 61.3571 42.449 61.3437 42.4398ZM59.947 40.3754C59.9136 40.4392 59.8863 40.5027 59.8641 40.5656C59.8862 40.5029 59.9136 40.4396 59.947 40.3759C60.5693 40.5954 60.8966 40.8368 60.952 41.1856C60.8968 40.8366 60.5695 40.595 59.947 40.3754ZM62.854 40.275C62.743 40.5819 62.872 40.4966 62.6943 40.9312L62.6946 40.9315C62.8724 40.4966 62.7432 40.5816 62.854 40.275ZM62.6023 40.1204L62.8902 40.1814C62.8838 40.1968 62.8783 40.2115 62.8728 40.2255C62.8783 40.2114 62.884 40.1966 62.8904 40.1811L62.6025 40.1201L62.6023 40.1204ZM60.2131 39.437C60.1188 39.5506 60.0428 39.6569 59.9955 39.7845C60.0428 39.6571 60.1187 39.551 60.2129 39.4375L60.2131 39.437ZM60.5063 39.0864C60.4382 39.174 60.3727 39.2504 60.3119 39.3209C60.3726 39.2505 60.4383 39.1744 60.5063 39.0868C60.5421 39.171 60.5776 39.2552 60.6133 39.3393L60.6136 39.3388C60.5778 39.2547 60.5421 39.1706 60.5063 39.0864ZM125.085 37.8903L125.141 38.0424L125.224 37.9921L125.127 37.8796L125.085 37.8903ZM88.1722 35.5267C88.1148 35.6004 88.0707 35.6537 88.0369 35.6948C88.0707 35.6537 88.115 35.6007 88.1722 35.5272L88.3596 35.5105C88.4374 35.7536 88.4487 35.7718 88.4217 35.8659C88.4488 35.7714 88.4375 35.7535 88.3596 35.5101L88.1722 35.5267ZM111.643 35.5849L111.682 35.6948L111.731 35.6781L111.725 35.531L111.643 35.5849ZM94.7337 33.5834C94.7968 34.1225 94.7683 34.4647 94.7448 35.004L94.5224 34.8968L94.5226 34.8972L94.7451 35.0045C94.7686 34.4651 94.797 34.1228 94.7339 33.5837L94.7337 33.5834ZM93.3773 33.6247L93.6222 34.0918V34.0914L93.3773 33.6247ZM88.377 33.7429C88.5322 34.2195 88.3886 34.0649 88.719 34.3095C88.3888 34.0651 88.5323 34.2196 88.377 33.7429L88.7808 33.4101C89.1527 33.4392 89.2073 33.5283 89.5119 33.7481L89.5737 33.8864C89.7351 34.2381 89.7685 34.4303 90.1063 34.6007L90.4169 34.6045V34.6041L90.1063 34.6007C89.7686 34.4303 89.7353 34.2378 89.574 33.8861L89.5119 33.7481C89.2073 33.5284 89.1529 33.439 88.7811 33.4099L88.377 33.7429ZM79.1483 33.4221C79.1445 33.7112 79.1548 33.959 79.2971 34.2499C79.1074 33.8621 79.1524 33.5507 79.1524 33.1158L79.1483 33.4221ZM83.9097 33.3834C83.9455 33.4037 83.9858 33.4168 84.0283 33.4213L83.9868 33.414C83.946 33.4038 83.9081 33.3856 83.8754 33.3608L83.9097 33.3834ZM83.7948 33.2686C83.8083 33.2927 83.8252 33.3146 83.8445 33.3339L83.8175 33.3029C83.8091 33.292 83.8015 33.2806 83.7948 33.2686ZM112.279 33.2821L112.573 32.6705L112.573 32.6703L112.279 33.2821ZM111.316 32.804L111.123 33.0211L111.123 33.0209L111.316 32.804ZM90.2003 32.2267L89.936 32.4028L89.7126 32.5447L89.7121 32.5456L89.936 32.4033L90.2012 32.2265L90.2003 32.2267ZM108.169 32.0739L108.088 32.2493L108.233 32.2136L108.309 32.0582L108.169 32.0739ZM85.0758 32.067C85.055 32.0716 85.0243 32.0832 84.9541 32.1018C85.0477 32.077 85.071 32.0647 85.0944 32.0649C85.0886 32.0648 85.0827 32.0655 85.0758 32.067ZM88.2016 31.9774C88.428 31.9974 88.5487 32.0079 88.7777 32.0096L88.9451 31.8039L88.7777 32.0091C88.5487 32.0074 88.428 31.9974 88.2016 31.9774ZM96.2684 31.5309C96.3008 31.5874 96.3309 31.6448 96.3601 31.7018C96.3183 31.6201 96.2741 31.5378 96.2254 31.458L96.2684 31.5309ZM96.0293 31.1825C96.0835 31.2467 96.1335 31.3152 96.18 31.3863L96.1324 31.3159C96.0835 31.2468 96.0308 31.1809 95.9737 31.1198L96.0293 31.1825ZM91.1859 29.7311C91.191 30.1794 90.7239 30.8823 90.4879 31.3112L90.4882 31.3117C90.7241 30.8828 91.1915 30.1797 91.1864 29.7314L91.1859 29.7311ZM95.6464 30.8645C95.6713 30.8776 95.6956 30.8916 95.7191 30.9064C95.7662 30.9361 95.8108 30.9691 95.8532 31.0049C95.7896 30.9513 95.7211 30.9035 95.6467 30.8643L95.6464 30.8645ZM93.7311 30.3272C93.7304 30.3049 93.7291 30.2825 93.7277 30.26C93.7305 30.3049 93.7322 30.3495 93.7321 30.3942L93.7311 30.3272ZM93.1536 30.2307C93.1642 30.2559 93.1759 30.2806 93.1884 30.3048L93.1536 30.2307C93.1431 30.2055 93.1337 30.1799 93.1251 30.1537L93.1536 30.2307ZM102.207 28.603C102.446 28.6097 104.114 28.797 104.309 28.847C103.815 29.0104 105.432 29.6934 104.927 29.9454C104.709 29.6776 102.265 28.941 102.207 28.603ZM121.143 26.1636L121.161 26.3543L121.373 26.2802L121.343 26.0857L121.143 26.1636ZM123.93 16.1384C123.933 16.1494 123.935 16.1606 123.937 16.1717C123.935 16.1607 123.933 16.1497 123.93 16.1388L123.93 16.1384Z" fill="#323032"/>
</svg>
